<?xml version="1.0" encoding="UTF-8"?>
<svg id="Layer_2" data-name="Layer 2" xmlns="http://www.w3.org/2000/svg" viewBox="0 0 154.33 104.25">
  <defs>
    <style>
      .cls-1, .cls-2 {
        fill: #040404;
      }

      .cls-3 {
        fill: #f1ad1d;
      }

      .cls-3, .cls-4, .cls-5, .cls-6, .cls-7, .cls-8, .cls-9, .cls-10, .cls-11, .cls-12, .cls-13, .cls-14, .cls-15, .cls-16, .cls-17, .cls-18 {
        stroke: #040404;
      }

      .cls-3, .cls-6, .cls-10, .cls-16 {
        stroke-width: .75px;
      }

      .cls-3, .cls-6, .cls-2, .cls-14 {
        stroke-linejoin: round;
      }

      .cls-4 {
        fill: #5b8d66;
      }

      .cls-4, .cls-5, .cls-7, .cls-8, .cls-9, .cls-10, .cls-11, .cls-12, .cls-13, .cls-15, .cls-16, .cls-17, .cls-18 {
        stroke-miterlimit: 10;
      }

      .cls-4, .cls-7, .cls-9, .cls-17 {
        stroke-width: .79px;
      }

      .cls-5 {
        fill: #fffffd;
      }

      .cls-5, .cls-18 {
        stroke-width: .76px;
      }

      .cls-6 {
        fill: #5e68b0;
      }

      .cls-7 {
        fill: #f2ae20;
      }

      .cls-8 {
        fill: #d76f60;
        stroke-width: 1px;
      }

      .cls-9 {
        fill: #638667;
      }

      .cls-10, .cls-11 {
        fill: #f1ad22;
      }

      .cls-11 {
        stroke-width: .76px;
      }

      .cls-12 {
        fill: none;
        stroke-width: .74px;
      }

      .cls-13 {
        fill: #fff;
      }

      .cls-2 {
        stroke: #080607;
        stroke-width: .72px;
      }

      .cls-14 {
        fill: #e3a726;
        stroke-width: .81px;
      }

      .cls-15 {
        fill: #5d69b1;
      }

      .cls-16, .cls-17 {
        fill: #eba726;
      }

      .cls-18 {
        fill: #381614;
      }
    </style>
  </defs>
  <g id="Layer_6" data-name="Layer 6">
    <g>
      <g>
        <path class="cls-5" d="M52.94,76.06v5.16h-6.05c-.73,0-1.33-.59-1.33-1.33v-3.84c0-1.64,1.33-2.97,2.97-2.97h1.45c1.64,0,2.97,1.33,2.97,2.97Z"/>
        <path class="cls-18" d="M46.69,81.23h37.07v8.13h-37.07c-.63,0-1.13-.51-1.13-1.13v-5.87c0-.63.51-1.13,1.13-1.13Z"/>
        <path class="cls-5" d="M52.94,89.36v5.17c0,1.64-1.33,2.97-2.97,2.97h-1.45c-1.64,0-2.97-1.33-2.97-2.97v-3.85c0-.73.59-1.33,1.33-1.33h6.05Z"/>
      </g>
      <path class="cls-6" d="M153.76,45.3h-4.34c-4.41,0-4.41-10.09,0-10.09h4.34v-13.69h-.97c-.27-6.56-5.68-11.79-12.3-11.79h-11.83c-3.41,0-6.49,1.38-8.71,3.61-1.73,1.73-2.95,3.97-3.41,6.49h-7.08v6.09c-.41,7.66-17.21,6.78-16.8-.88l.54-5.41,8.8-9.22s-1.15-2.03-6.7-6.29c-5.56-4.26-11.44-2.47-11.44-2.47v23.8l-2.4,13.31-1.8,3.89c-.67,1.45-1.56,2.81-2.73,3.89-1.13,1.04-1.99,2.45,1.45,2.59,5.38.21,15.1-7.62,15.1-7.62h9.61c12.22,0,12.22,21.86,0,21.86h-50.67v31.72c0,4.85,3.94,8.79,8.79,8.79h83.95c4.11,0,7.56-2.83,8.52-6.65l.08.03v-.34c.12-.59.19-1.21.19-1.83l-.19-49.79ZM144.99,24.19c-.8.8-1.9,1.29-3.12,1.29h-14.6c-2.44,0-4.41-1.97-4.41-4.41,0-2.19.89-4.16,2.32-5.59,1.43-1.44,3.41-2.32,5.59-2.32h7.6c4.37,0,7.91,3.54,7.91,7.91,0,1.22-.49,2.32-1.29,3.12Z"/>
      <path class="cls-16" d="M68.63,18.34h0c-1.12.02-2.05-.95-1.91-2.05C68.54,2.01,81.32.45,83.86.38c5.35-.14,6.7,1.25,6.05,2.32l-.07.11c-.47.76-1.37,1-2.25.85-7-1.18-15.81,3.26-17.15,13.04-.13.92-.9,1.62-1.83,1.63Z"/>
      <path class="cls-16" d="M71.74,19.32h0c-.93-.02-1.66-.83-1.56-1.76.87-7.87,7.4-14.06,15.2-14.06.75,0,1.49.06,2.22.17.92.14,1.51,1.07,1.28,1.97l-.04.15c-.21.83-1.03,1.31-1.88,1.16-6.07-1.04-12.98,4.07-13.6,10.89-.08.85-.77,1.5-1.62,1.48Z"/>
      <path class="cls-16" d="M88.66,16.74c-.07,1.29-.58,2.57-1.53,3.58l-1.9,2.01c-.93.98-2.51.8-3.23-.33-.17-.27-.36-.54-.56-.8-.85-1.11-1.91-2.04-3.12-2.75-.23-.14-.47-.26-.71-.38-1.28-.62-1.64-2.27-.66-3.3l2.07-2.19c2.14-2.24,5.68-2.34,7.92-.2,1.24,1.18,1.81,2.78,1.73,4.37Z"/>
      <path class="cls-16" d="M83.86,17.41c0,.44-.16.89-.47,1.25l-.95,1.11c-.67.78-1.83.9-2.63.25-.01,0-.02-.02-.03-.02-.85-.68-.98-1.91-.27-2.74l.84-.98c.8-.93,2.3-1.05,3.07-.11.29.36.44.79.44,1.24Z"/>
      <path class="cls-16" d="M75.48,17.97h0c-1.23-.17-2.02-1.41-1.64-2.6,1.63-5.04,6.25-8.62,11.54-8.62.05,0,.11,0,.16,0,1.22.07,2.11,1.2,1.87,2.4l-.04.22c-.22,1.09-1.29,1.78-2.38,1.56-4.34-.88-6.45,1.39-7.27,5.47-.21,1.03-1.19,1.71-2.23,1.56Z"/>
      <g>
        <rect class="cls-15" x="56.42" y="70.83" width="83.14" height="26.92" rx="13.46" ry="13.46"/>
        <path class="cls-12" d="M134.99,84.29c0,1.52-.4,2.94-1.11,4.17-.37.63-.81,1.21-1.33,1.73-1.51,1.51-3.59,2.44-5.89,2.44h-57.34c-3.08,0-5.78-1.68-7.22-4.17-.71-1.23-1.11-2.65-1.11-4.17s.4-2.94,1.11-4.16c.37-.63.81-1.21,1.33-1.73,1.51-1.51,3.59-2.44,5.89-2.44h57.34c3.08,0,5.78,1.68,7.22,4.17.71,1.22,1.11,2.64,1.11,4.16Z"/>
        <path class="cls-9" d="M133.88,88.46c-.37.63-.81,1.21-1.33,1.73-1.51,1.51-3.59,2.44-5.89,2.44h-57.34c-3.08,0-5.78-1.68-7.22-4.17h71.78Z"/>
        <path class="cls-4" d="M134.99,84.29c0,1.52-.4,2.94-1.11,4.17H62.1c-.71-1.23-1.11-2.65-1.11-4.17h74Z"/>
        <path class="cls-7" d="M134.99,84.29H60.99c0-1.52.4-2.94,1.11-4.16h71.78c.71,1.22,1.11,2.64,1.11,4.16Z"/>
        <path class="cls-17" d="M133.88,80.13H62.1c.37-.63.81-1.21,1.33-1.73,1.51-1.51,3.59-2.44,5.89-2.44h57.34c3.08,0,5.78,1.68,7.22,4.17Z"/>
      </g>
      <g>
        <rect class="cls-13" x="123.28" y="49.64" width="24.8" height="2.13" rx="1.06" ry="1.06"/>
        <rect class="cls-13" x="123.28" y="51.76" width="24.8" height="2.13" rx="1.06" ry="1.06"/>
        <rect class="cls-13" x="123.28" y="53.89" width="24.8" height="2.13" rx="1.06" ry="1.06"/>
        <rect class="cls-13" x="123.28" y="56.02" width="24.8" height="2.13" rx="1.06" ry="1.06"/>
        <rect class="cls-13" x="123.28" y="58.15" width="24.8" height="2.13" rx="1.06" ry="1.06"/>
        <rect class="cls-13" x="123.28" y="60.28" width="24.8" height="2.13" rx="1.06" ry="1.06"/>
      </g>
      <path class="cls-10" d="M77.97,45.42h2.02c4.68,0,8.55-3.45,9.21-7.95.06-.44-3.04-2.91-3.04-2.91l-7.94.78c1.67,3.71,1.38,7.08-.25,10.08Z"/>
      <rect class="cls-3" x="121.57" y="19.46" width="26.01" height="7.01"/>
      <path class="cls-10" d="M90.03,37.52c-2.08,2.81-5.97,3.97-9.45,2.27-2.31-1.13-3.83-3.33-4.11-5.89-.5-4.56,2.83-8.07,6.9-8.27.75-.04,1.33.65,1.25,1.39v.09c-.07.62-.58,1.05-1.2,1.11-1.38.13-2.74.84-3.53,2.13-2,3.27.09,7.04,3.39,7.52,1.78.26,3.52-.5,4.57-1.88.37-.48,1-.68,1.55-.43l.18.08c.72.33.94,1.24.47,1.88Z"/>
      <path class="cls-11" d="M86.93,33.8c.99.28,1.39,1.49.75,2.29-.92,1.13-2.32,1.84-3.85,1.84-2.72,0-4.96-2.24-4.96-4.97s2.24-4.96,4.96-4.96c0,0,.05,0,.12.01.94.11,1.51,1.08,1.15,1.95h0c-.21.5-.68.86-1.22.86-.85.01-2.08.58-2.08,2.13,0,1.13.92,2.04,2.04,2.04.63,0,1.19-.28,1.56-.73s.95-.64,1.51-.48c.01,0,.02,0,.03,0Z"/>
      <path class="cls-11" d="M85.87,32.96c0,.14-.01.29-.04.42-.02.07-.69,1.62-2,1.62-1.12,0-2.04-.91-2.04-2.04s.92-2.04,2.04-2.04h.06c.25.01.51.07.73.16.73.31,1.24,1.03,1.24,1.87Z"/>
      <circle class="cls-11" cx="83.72" cy="32.96" r="2.43"/>
      <rect class="cls-2" x="8.32" y="52.58" width="89.67" height="11.82"/>
      <rect class="cls-8" x="4.19" y="56.36" width="94.68" height="4.26"/>
      <rect class="cls-14" x=".4" y="51.2" width="4.66" height="14.58" rx="2.33" ry="2.33"/>
      <circle class="cls-1" cx="83.72" cy="32.96" r="1.37"/>
    </g>
  </g>
</svg>