<?xml version="1.0" encoding="UTF-8"?>
<svg id="Layer_2" data-name="Layer 2" xmlns="http://www.w3.org/2000/svg" viewBox="0 0 148.84 111.13">
  <defs>
    <style>
      .cls-1 {
        fill: #d96c2f;
      }

      .cls-1, .cls-2, .cls-3, .cls-4, .cls-5, .cls-6, .cls-7, .cls-8, .cls-9, .cls-10, .cls-11, .cls-12, .cls-13, .cls-14, .cls-15, .cls-16, .cls-17, .cls-18, .cls-19, .cls-20 {
        stroke-miterlimit: 10;
      }

      .cls-1, .cls-2, .cls-3, .cls-4, .cls-5, .cls-7, .cls-8, .cls-9, .cls-10, .cls-11, .cls-12, .cls-13, .cls-14, .cls-15, .cls-16, .cls-17, .cls-18, .cls-19, .cls-20 {
        stroke: #201231;
      }

      .cls-2 {
        fill: #466fb6;
      }

      .cls-3 {
        fill: #fadbb7;
      }

      .cls-21 {
        fill: #201231;
      }

      .cls-4 {
        fill: #e04e28;
      }

      .cls-5 {
        fill: #fdcb35;
      }

      .cls-6 {
        fill: #0f0c0c;
        stroke: #0f0c0c;
      }

      .cls-7 {
        fill: #fbcc35;
      }

      .cls-8 {
        fill: none;
      }

      .cls-9 {
        fill: #b95031;
      }

      .cls-10 {
        fill: #e54b27;
      }

      .cls-11 {
        fill: #e16933;
      }

      .cls-12 {
        fill: #f0cf62;
      }

      .cls-13 {
        fill: #f8bb3c;
      }

      .cls-14 {
        fill: #206d3e;
      }

      .cls-15 {
        fill: #fece33;
      }

      .cls-16 {
        fill: #fbd8b2;
      }

      .cls-17 {
        fill: #4673b9;
      }

      .cls-18 {
        fill: #c5a667;
      }

      .cls-19 {
        fill: #f58138;
      }

      .cls-20 {
        fill: #e14f27;
      }
    </style>
  </defs>
  <g id="Layer_8" data-name="Layer 8">
    <g>
      <path class="cls-17" d="M113.03,103.82v-1.31l-11.52-22.53c-1.37-2.67-3.45-4.86-5.97-6.37H25.42c-4.96,0-9.22-2.96-11.1-7.22h-5.85v13.95h53.57c.23,0,.45.02.67.08h.03s.11.02.16.04c.08.02.16.05.24.08h.01c.14.05.28.12.41.19.18.09.35.21.51.34.08.06.16.13.23.21.57.57.93,1.37.93,2.25v15.36c0,1.76-1.43,3.19-3.19,3.19H8.47v3.03c0,3.05,2.47,5.52,5.52,5.52h105.84c-3.76,0-6.8-3.05-6.8-6.81ZM91.95,100.92c-.78,0-1.55-.09-2.28-.27-4.26-1.02-7.43-4.86-7.43-9.44s3.17-8.43,7.43-9.45c.73-.18,1.5-.27,2.28-.27,5.37,0,9.72,4.35,9.72,9.72s-4.35,9.71-9.72,9.71Z"/>
      <path class="cls-8" d="M65.23,83.52v15.37c0,1.76-1.43,3.19-3.19,3.19H8.47v-21.74h53.57c1.76,0,3.19,1.42,3.19,3.18Z"/>
      <path class="cls-8" d="M101.67,91.21c0,5.36-4.35,9.71-9.72,9.71-.78,0-1.55-.09-2.28-.27v-18.89c.73-.18,1.5-.27,2.28-.27,5.37,0,9.72,4.35,9.72,9.72Z"/>
      <path class="cls-8" d="M121.04,110.63h-1.21c-3.76,0-6.8-3.05-6.8-6.81v-1.31l2.39,4.68c.99,1.93,2.89,3.21,5.02,3.41.2.02.4.03.6.03Z"/>
      <rect class="cls-12" x="135.85" y="35.19" width="3.23" height="75.44"/>
      <path class="cls-15" d="M132.07,35.19v75.44h-11.03c-.2,0-.4,0-.6-.03,3.47-.3,6.2-3.22,6.2-6.78v-61.82c0-3.76-3.05-6.81-6.81-6.81h12.24Z"/>
      <path class="cls-2" d="M148.34,41.23v63.36c0,3.34-2.7,6.04-6.03,6.04h-.4V35.19h.4c3.33,0,6.03,2.7,6.03,6.04Z"/>
      <path class="cls-7" d="M113.03,62.17v40.34l-11.52-22.53c-1.37-2.67-3.45-4.86-5.97-6.37h6.05c6.32,0,11.44-5.12,11.44-11.44Z"/>
      <path class="cls-5" d="M126.64,42v61.82c0,3.56-2.73,6.48-6.2,6.78-2.13-.2-4.03-1.48-5.02-3.41l-2.39-4.68v-60.51c0-1.88.76-3.58,1.99-4.82,1.23-1.23,2.93-1.99,4.81-1.99,3.76,0,6.81,3.05,6.81,6.81Z"/>
      <path class="cls-8" d="M120.44,110.6c-.2.02-.41.03-.61.03-3.76,0-6.8-3.05-6.8-6.81v-1.31l2.39,4.68c.99,1.93,2.89,3.21,5.02,3.41Z"/>
      <rect class="cls-9" x="139.08" y="35.19" width="2.83" height="75.44"/>
      <rect class="cls-11" x="132.07" y="35.19" width="3.78" height="75.44"/>
      <path class="cls-8" d="M13.28,12.52v3.18c-.22-.49-.34-1.02-.34-1.59s.12-1.1.34-1.59Z"/>
      <path class="cls-20" d="M20.91,14.11c0,2.2-1.78,3.99-3.98,3.99-1.63,0-3.04-.99-3.65-2.4-.22-.49-.34-1.02-.34-1.59s.12-1.1.34-1.59c.61-1.41,2.02-2.39,3.65-2.39,2.2,0,3.98,1.78,3.98,3.98Z"/>
      <path class="cls-6" d="M13.28,2.91v.75h-4.81v-.75c0-1.33,1.07-2.41,2.4-2.41.67,0,1.27.27,1.7.71.44.43.71,1.03.71,1.7Z"/>
      <path class="cls-13" d="M65.23,83.52v15.37c0,1.76-1.43,3.19-3.19,3.19H8.47v-21.74h53.57c1.76,0,3.19,1.42,3.19,3.18Z"/>
      <rect class="cls-16" x="8.47" y="86.48" width="56.76" height="9.95"/>
      <path class="cls-10" d="M101.67,91.21c0,5.36-4.35,9.71-9.72,9.71-.78,0-1.55-.09-2.28-.27v-18.89c.73-.18,1.5-.27,2.28-.27,5.37,0,9.72,4.35,9.72,9.72Z"/>
      <path class="cls-14" d="M89.67,81.76v18.89c-4.26-1.02-7.43-4.86-7.43-9.44s3.17-8.43,7.43-9.45Z"/>
      <path class="cls-4" d="M8.47,63.71c0,1.04-.4,1.97-1.05,2.68-.73.8-1.78,1.3-2.94,1.3s-2.21-.5-2.94-1.3c-.65-.71-1.04-1.64-1.04-2.68,0-2.2,1.78-3.99,3.98-3.99s3.99,1.79,3.99,3.99Z"/>
      <path class="cls-20" d="M14.32,66.39h-5.85V3.66h4.81v8.86c-.22.49-.34,1.02-.34,1.59s.12,1.1.34,1.59v45.77c0,1.75.37,3.42,1.04,4.92Z"/>
      <path class="cls-8" d="M7.42,66.39c.65-.71,1.05-1.64,1.05-2.68v2.68h-1.05Z"/>
      <circle class="cls-21" cx="119.84" cy="43.39" r="2.91"/>
      <g>
        <path class="cls-18" d="M125.96,92.93c0,.74-.13,1.44-.38,2.09-.84,2.35-3.1,4.03-5.74,4.03s-4.9-1.68-5.74-4.03c-.25-.65-.38-1.35-.38-2.09,0-.6.09-1.18.25-1.72.74-2.54,3.09-4.4,5.87-4.4s5.13,1.86,5.87,4.4c.16.54.25,1.12.25,1.72Z"/>
        <path class="cls-1" d="M125.96,92.93c0,.74-.13,1.44-.38,2.09h-11.48c-.25-.65-.38-1.35-.38-2.09,0-.6.09-1.18.25-1.72h11.74c.16.54.25,1.12.25,1.72Z"/>
      </g>
      <rect class="cls-3" x="8.47" y="86.48" width="47.12" height="9.95"/>
      <rect class="cls-8" x="8.47" y="86.48" width="36.99" height="9.95"/>
      <rect class="cls-8" x="8.47" y="86.48" width="28.67" height="9.95"/>
      <rect class="cls-8" x="8.47" y="86.48" width="20.66" height="9.95"/>
      <rect class="cls-8" x="8.47" y="86.48" width="13.6" height="9.95"/>
      <rect class="cls-8" x="8.47" y="86.48" width="4.81" height="9.95"/>
      <rect class="cls-21" x="8.47" y="90.2" width="47.12" height="2.73"/>
      <circle class="cls-19" cx="60.3" cy="91.45" r="3.85"/>
    </g>
  </g>
</svg>