<?xml version="1.0" encoding="UTF-8"?>
<svg id="Layer_2" data-name="Layer 2" xmlns="http://www.w3.org/2000/svg" xmlns:xlink="http://www.w3.org/1999/xlink" viewBox="0 0 187.77 205.88">
  <defs>
    <style>
      .cls-1 {
        fill: #38352b;
      }

      .cls-1, .cls-2, .cls-3, .cls-4, .cls-5, .cls-6, .cls-7, .cls-8, .cls-9, .cls-10, .cls-11, .cls-12, .cls-13, .cls-14, .cls-15, .cls-16, .cls-17, .cls-18, .cls-19, .cls-20, .cls-21 {
        stroke-width: .64px;
      }

      .cls-1, .cls-2, .cls-3, .cls-4, .cls-5, .cls-6, .cls-7, .cls-8, .cls-9, .cls-10, .cls-11, .cls-12, .cls-13, .cls-14, .cls-15, .cls-17, .cls-18, .cls-19, .cls-22, .cls-20, .cls-21 {
        stroke: #110b0a;
      }

      .cls-1, .cls-2, .cls-8, .cls-11, .cls-23, .cls-12, .cls-14, .cls-24, .cls-16, .cls-25, .cls-17, .cls-18, .cls-22, .cls-21 {
        stroke-miterlimit: 10;
      }

      .cls-2 {
        fill: #fbf7e9;
      }

      .cls-3 {
        fill: #a4ccc9;
      }

      .cls-3, .cls-26, .cls-4, .cls-5, .cls-27, .cls-6, .cls-7, .cls-9, .cls-10, .cls-28, .cls-13, .cls-29, .cls-15, .cls-19, .cls-20, .cls-30 {
        stroke-linejoin: round;
      }

      .cls-26 {
        fill: #fff;
        stroke-linecap: round;
      }

      .cls-26, .cls-30 {
        stroke: #fff;
        stroke-width: 6px;
      }

      .cls-4, .cls-31 {
        fill: #f6b221;
      }

      .cls-5 {
        fill: #186853;
      }

      .cls-27, .cls-6, .cls-8, .cls-24, .cls-16, .cls-30 {
        fill: none;
      }

      .cls-27, .cls-28, .cls-23, .cls-29, .cls-24, .cls-25, .cls-22 {
        stroke-width: .42px;
      }

      .cls-27, .cls-29 {
        stroke: #48505a;
      }

      .cls-7 {
        fill: #325e95;
      }

      .cls-32, .cls-11 {
        fill: #e75f27;
      }

      .cls-33, .cls-14 {
        fill: #e96027;
      }

      .cls-9 {
        fill: #333124;
      }

      .cls-10, .cls-34 {
        fill: #989d8f;
      }

      .cls-35 {
        clip-path: url(#clippath-1);
      }

      .cls-36 {
        clip-path: url(#clippath-3);
      }

      .cls-37 {
        clip-path: url(#clippath-4);
      }

      .cls-38 {
        clip-path: url(#clippath-2);
      }

      .cls-39 {
        clip-path: url(#clippath-6);
      }

      .cls-40 {
        clip-path: url(#clippath-5);
      }

      .cls-28 {
        fill: #cd8943;
      }

      .cls-28, .cls-23, .cls-24, .cls-25 {
        stroke: #120f0d;
      }

      .cls-41, .cls-20 {
        fill: #385f9e;
      }

      .cls-23, .cls-42 {
        fill: #13100e;
      }

      .cls-12 {
        fill: #fcd9b7;
      }

      .cls-43 {
        fill: #110b0a;
      }

      .cls-13 {
        fill: #2f6396;
      }

      .cls-29 {
        fill: #3c895e;
      }

      .cls-15, .cls-44 {
        fill: #fbfbeb;
      }

      .cls-16 {
        stroke: #5a341f;
      }

      .cls-25 {
        fill: #fffdf8;
      }

      .cls-17 {
        fill: #7c884e;
      }

      .cls-45 {
        fill: #3b8c61;
      }

      .cls-18 {
        fill: #030303;
      }

      .cls-19 {
        fill: #1c614b;
      }

      .cls-22 {
        fill: #33825d;
      }

      .cls-46 {
        clip-path: url(#clippath);
      }

      .cls-21 {
        fill: #e75f26;
      }
    </style>
    <clipPath id="clippath">
      <path class="cls-4" d="M51.26,113.04h91.39c20.05,0,36.32,16.28,36.32,36.32v23.01H51.26v-59.33h0Z"/>
    </clipPath>
    <clipPath id="clippath-1">
      <path class="cls-10" d="M18.96,32.65h-3.87l-1.85-4.32c-.34-.8-.52-1.66-.52-2.53v-11.74h8.59v11.74c0,.87-.18,1.73-.52,2.53l-1.85,4.32Z"/>
    </clipPath>
    <clipPath id="clippath-2">
      <path class="cls-15" d="M98.02,158.31c-15.08,0-27.3-12.22-27.3-27.3v-57.81c0-20.56-16.82-37.38-37.38-37.38h-.14c-2.78,0-5.04,2.26-5.04,5.04v136.93c0,12.74,10.33,23.08,23.08,23.08h127.9c1.8,0,3.25-1.46,3.25-3.25v-39.3h-84.37Z"/>
    </clipPath>
    <clipPath id="clippath-3">
      <path class="cls-20" d="M167.51,162.92h-69.25c-18.01,0-32.61-14.14-32.61-32.15l-.27-54.95c0-17.01-14.82-34.35-31.83-34.35l-.15-5.65h-2.93c-6.88,0-12.46,5.58-12.46,12.46l.3,28.43c4.98,0,9.1,3.64,9.86,8.4v92.03c0,13.1,10.62,23.73,23.73,23.73h115.62c6.33,0,11.46-5.13,11.46-11.46v-14.55c0-6.33-5.13-11.93-11.46-11.93Z"/>
    </clipPath>
    <clipPath id="clippath-4">
      <path class="cls-27" d="M11.19,47.55h26.83c6.88,0,12.46,5.58,12.46,12.46v.5c0,6.88-5.58,12.46-12.46,12.46H11.19v-25.41h0Z"/>
    </clipPath>
    <clipPath id="clippath-5">
      <path class="cls-11" d="M93.39,92.82c0,6.14-4.97,11.11-11.11,11.11-5.19,0-10.16-3.56-11.56-8.37v-22.37c0-2.23-.2-4.41-.58-6.53-2.24-12.56-10.81-23-22.26-27.88-1.2-.51-2.44-.97-3.71-1.35-3.59-2.04-6.01-5.9-6.01-10.33,0-6.56,5.32-11.88,11.88-11.88s11.8,5.24,11.87,11.73c1.77-1.26,3.94-2,6.28-2,6,0,10.86,4.86,10.86,10.86,0,1.92-.5,3.73-1.38,5.3,5.64.39,10.09,5.09,10.09,10.83,0,4.67-2.95,8.65-7.09,10.18,5.23.78,9.24,5.29,9.24,10.74,0,3.84-1.99,7.22-5,9.15,4.87,1.18,8.48,5.57,8.48,10.8Z"/>
    </clipPath>
    <clipPath id="clippath-6">
      <circle class="cls-23" cx="106.51" cy="185.84" r="6.72"/>
    </clipPath>
  </defs>
  <g id="_2" data-name="2">
    <g>
      <g>
        <path class="cls-26" d="M12.73,15.35v10.44c0,.87.18,1.73.52,2.53l1.85,4.32h3.87l1.85-4.32c.34-.8.52-1.66.52-2.53v-10.44c1.6-1.27,2.63-3.23,2.63-5.43,0-3.83-3.1-6.93-6.93-6.93s-6.93,3.1-6.93,6.93c0,2.2,1.03,4.16,2.63,5.43Z"/>
        <path class="cls-26" d="M178.97,158.31v-8.95c0-20.06-16.26-36.32-36.32-36.32h-71.93v-17.47c1.41,4.81,6.37,8.36,11.56,8.36,6.14,0,11.11-4.97,11.11-11.11,0-5.23-3.61-9.62-8.48-10.8,3.01-1.93,5-5.3,5-9.15,0-5.45-4.01-9.96-9.24-10.74,4.14-1.53,7.09-5.51,7.09-10.18,0-5.74-4.45-10.44-10.09-10.83.88-1.56,1.38-3.38,1.38-5.3,0-6-4.86-10.86-10.86-10.86-2.34,0-4.5.74-6.28,2-.08-6.49-5.36-11.73-11.87-11.73s-11.88,5.32-11.88,11.88c0,4.43,2.42,8.29,6.01,10.33.01,0,.03,0,.04.01-3.43-1.05-7.06-1.62-10.82-1.63h0s-.38,0-.38,0h-2.55c-6.88,0-12.46,5.58-12.46,12.46l.07,6.72c-2.16-1.84-4.52-3.42-7.24-3.97-5.59-.72-9.23,5.72-5.47,10.03,1.26,1.51,2.79,2.49,4.54,2.84-2.07.25-3.86,1.3-5.3,3.03-3.89,4.46-.18,10.32,5.66,10.39,3.12.03,5.71-1.08,8.02-2.64l.02,2.03c4.98,0,9.1,3.64,9.86,8.4v92.68c0,12.74,10.33,23.08,23.08,23.08h127.9c1.8,0,3.25-1.46,3.25-3.25v-39.3h-3.42ZM46.08,38.07c-.08-.03-.16-.05-.24-.08.08.03.16.05.24.08Z"/>
        <path class="cls-30" d="M48.31,84.14c1.44-3.38,1.38-7.37-.17-10.71s-4.56-5.95-8.08-7.02c-1.65-.5-3.4-.68-5.02-1.29s-3.17-1.79-3.57-3.47c-.47-1.99.78-4.06.44-6.08-.41-2.42-2.87-3.84-4.46-5.7-2.06-2.41-1.95-6.33-2.33-9.47-.23-1.85-.8-4.23-2.94-4.69-1.15-.27-2.52.3-3.56-.16-2.07-1.02-1.7-3.81-1.19-5.65,1.85-6.61-.88-13.53-.94-20.4"/>
      </g>
      <g id="HedLump_O-Lips" data-name="HedLump O-Lips">
        <g>
          <path class="cls-31" d="M51.26,113.04h91.39c20.05,0,36.32,16.28,36.32,36.32v23.01H51.26v-59.33h0Z"/>
          <g class="cls-46">
            <rect class="cls-43" x="174.85" y="103.75" width="12.92" height="66.72"/>
          </g>
          <path class="cls-6" d="M51.26,113.04h91.39c20.05,0,36.32,16.28,36.32,36.32v23.01H51.26v-59.33h0Z"/>
        </g>
        <rect class="cls-43" x="88.68" y="130.79" width="66.18" height="10.28"/>
        <path class="cls-22" d="M84.45,126.79v18.27h74.65v-18.27h-74.65ZM155.99,142.01h-68.43v-12.17h68.43v12.17Z"/>
        <path class="cls-14" d="M23.19,70.63c-3.56,3.24-7.43,6.74-12.93,6.69-5.84-.06-9.55-5.92-5.66-10.39,1.78-2.15,4.09-3.26,6.83-3.09,3.03-.02,6.77,0,9.91.01,1.86.01,3.53,0,4.6.03.35.03.78,0,1.03.22.48.56-2.91,5.54-3.72,6.46l-.06.06Z"/>
        <path class="cls-14" d="M22.68,59.24c-3.44-3.13-7.09-7.25-11.86-8.21-5.59-.72-9.23,5.72-5.47,10.03,1.72,2.08,3.96,3.15,6.6,2.98,2.93.02,6.54,0,9.58,0,1.8-.01,3.41,0,4.45-.03.34-.02.76,0,1-.22.46-.54-3.44-3.59-4.23-4.49l-.06-.06Z"/>
        <path class="cls-8" d="M48.31,84.14c1.44-3.38,1.38-7.37-.17-10.71s-4.56-5.95-8.08-7.02c-1.65-.5-3.4-.68-5.02-1.29s-3.17-1.79-3.57-3.47c-.47-1.99.78-4.06.44-6.08-.41-2.42-2.87-3.84-4.46-5.7-2.06-2.41-1.95-6.33-2.33-9.47-.23-1.85-.8-4.23-2.94-4.69-1.15-.27-2.52.3-3.56-.16-2.07-1.02-1.7-3.81-1.19-5.65,1.85-6.61-.88-13.53-.94-20.4"/>
        <g>
          <path class="cls-34" d="M18.96,32.65h-3.87l-1.85-4.32c-.34-.8-.52-1.66-.52-2.53v-11.74h8.59v11.74c0,.87-.18,1.73-.52,2.53l-1.85,4.32Z"/>
          <g class="cls-35">
            <rect class="cls-7" x="10.38" y="26.23" width="13.17" height="2.55"/>
            <rect class="cls-5" x="10.38" y="24.46" width="13.17" height="1.82"/>
            <rect class="cls-19" x="10.38" y="22.7" width="13.17" height="1.82"/>
            <rect class="cls-13" x="10.38" y="20.48" width="13.17" height="2.22"/>
            <rect class="cls-3" x="10.38" y="18.26" width="13.17" height="2.22"/>
            <rect class="cls-9" x="10.38" y="13.58" width="13.17" height="4.68"/>
          </g>
          <path class="cls-6" d="M18.96,32.65h-3.87l-1.85-4.32c-.34-.8-.52-1.66-.52-2.53v-11.74h8.59v11.74c0,.87-.18,1.73-.52,2.53l-1.85,4.32Z"/>
        </g>
        <circle class="cls-12" cx="17.03" cy="9.93" r="6.93"/>
        <g>
          <path class="cls-44" d="M98.02,158.31c-15.08,0-27.3-12.22-27.3-27.3v-57.81c0-20.56-16.82-37.38-37.38-37.38h-.14c-2.78,0-5.04,2.26-5.04,5.04v136.93c0,12.74,10.33,23.08,23.08,23.08h127.9c1.8,0,3.25-1.46,3.25-3.25v-39.3h-84.37Z"/>
          <g class="cls-38">
            <path class="cls-2" d="M96.7,200.87h82.44c1.8,0,3.25-1.46,3.25-3.25v-34.69h-85.69"/>
          </g>
          <path class="cls-6" d="M98.02,158.31c-15.08,0-27.3-12.22-27.3-27.3v-57.81c0-20.56-16.82-37.38-37.38-37.38h-.14c-2.78,0-5.04,2.26-5.04,5.04v136.93c0,12.74,10.33,23.08,23.08,23.08h127.9c1.8,0,3.25-1.46,3.25-3.25v-39.3h-84.37Z"/>
        </g>
        <g>
          <path class="cls-41" d="M167.51,162.92h-69.25c-18.01,0-32.61-14.14-32.61-32.15l-.27-54.95c0-17.01-14.82-34.35-31.83-34.35l-.15-5.65h-2.93c-6.88,0-12.46,5.58-12.46,12.46l.3,28.43c4.98,0,9.1,3.64,9.86,8.4v92.03c0,13.1,10.62,23.73,23.73,23.73h115.62c6.33,0,11.46-5.13,11.46-11.46v-14.55c0-6.33-5.13-11.93-11.46-11.93Z"/>
          <g class="cls-36">
            <polygon class="cls-45" points="90.77 205.88 186.5 205.88 186.5 136.65 90.77 205.88"/>
            <g>
              <g class="cls-37">
                <path class="cls-29" d="M40.78,47.92h.62c6.37,0,11.54,5.17,11.54,11.54v30.02h-23.7v-30.02c0-6.37,5.17-11.54,11.54-11.54Z" transform="translate(-8.84 6.13) rotate(-7.71)"/>
              </g>
              <path class="cls-27" d="M11.19,47.55h26.83c6.88,0,12.46,5.58,12.46,12.46v.5c0,6.88-5.58,12.46-12.46,12.46H11.19v-25.41h0Z"/>
            </g>
          </g>
          <path class="cls-6" d="M167.51,162.92h-69.25c-18.01,0-32.61-14.14-32.61-32.15l-.27-54.95c0-17.01-14.82-34.35-31.83-34.35l-.15-5.65h-2.93c-6.88,0-12.46,5.58-12.46,12.46l.3,28.43c4.98,0,9.1,3.64,9.86,8.4v92.03c0,13.1,10.62,23.73,23.73,23.73h115.62c6.33,0,11.46-5.13,11.46-11.46v-14.55c0-6.33-5.13-11.93-11.46-11.93Z"/>
        </g>
        <circle class="cls-28" cx="22.46" cy="68.44" r="1.14"/>
        <circle class="cls-28" cx="22.46" cy="45.13" r="1.14"/>
        <circle class="cls-2" cx="39.43" cy="59.34" r="5.9"/>
        <circle class="cls-17" cx="39.43" cy="59.34" r="3.7"/>
        <circle class="cls-43" cx="39.43" cy="59.34" r="1.83"/>
        <g>
          <path class="cls-32" d="M93.39,92.82c0,6.14-4.97,11.11-11.11,11.11-5.19,0-10.16-3.56-11.56-8.37v-22.37c0-2.23-.2-4.41-.58-6.53-2.24-12.56-10.81-23-22.26-27.88-1.2-.51-2.44-.97-3.71-1.35-3.59-2.04-6.01-5.9-6.01-10.33,0-6.56,5.32-11.88,11.88-11.88s11.8,5.24,11.87,11.73c1.77-1.26,3.94-2,6.28-2,6,0,10.86,4.86,10.86,10.86,0,1.92-.5,3.73-1.38,5.3,5.64.39,10.09,5.09,10.09,10.83,0,4.67-2.95,8.65-7.09,10.18,5.23.78,9.24,5.29,9.24,10.74,0,3.84-1.99,7.22-5,9.15,4.87,1.18,8.48,5.57,8.48,10.8Z"/>
          <g class="cls-40">
            <path class="cls-16" d="M78.84,98.43c-1.35-.98-2.51-2.22-3.33-3.65-.68-1.17-1.01-2.52-1.01-3.87v-20.67c0-2.21-.19-4.38-.56-6.48-2.19-12.46-10.56-22.83-21.75-27.66-.88-.38-1.78-.73-2.7-1.04s-1.75-.78-2.49-1.39c-1.31-1.08-2.39-2.45-3.14-4"/>
          </g>
          <path class="cls-8" d="M93.39,92.82c0,6.14-4.97,11.11-11.11,11.11-5.19,0-10.16-3.56-11.56-8.37v-22.37c0-2.23-.2-4.41-.58-6.53-2.24-12.56-10.81-23-22.26-27.88-1.2-.51-2.44-.97-3.71-1.35-3.59-2.04-6.01-5.9-6.01-10.33,0-6.56,5.32-11.88,11.88-11.88s11.8,5.24,11.87,11.73c1.77-1.26,3.94-2,6.28-2,6,0,10.86,4.86,10.86,10.86,0,1.92-.5,3.73-1.38,5.3,5.64.39,10.09,5.09,10.09,10.83,0,4.67-2.95,8.65-7.09,10.18,5.23.78,9.24,5.29,9.24,10.74,0,3.84-1.99,7.22-5,9.15,4.87,1.18,8.48,5.57,8.48,10.8Z"/>
        </g>
        <g>
          <circle class="cls-1" cx="50.13" cy="27.18" r="6.7"/>
          <circle class="cls-18" cx="50.13" cy="27.18" r="3.46"/>
        </g>
        <g>
          <circle class="cls-1" cx="68.46" cy="36.45" r="5.93"/>
          <circle class="cls-18" cx="68.46" cy="36.45" r="3.06"/>
        </g>
        <g>
          <circle class="cls-1" cx="78.78" cy="52.04" r="5.4"/>
          <circle class="cls-18" cx="78.78" cy="52.04" r="2.79"/>
        </g>
        <g>
          <path class="cls-21" d="M56.82,27.11c0,3.61-2.93,6.54-6.54,6.54s-6.54-2.93-6.54-6.54,2.93-6.54,6.54-6.54,6.54,2.93,6.54,6.54Z"/>
          <path class="cls-1" d="M56.82,27.11c0,3.61-2.93,6.54-6.54,6.54s-6.54-2.93-6.54-6.54,2.93-6.54,6.54-6.54,6.54,2.93,6.54,6.54Z"/>
          <circle class="cls-18" cx="50.28" cy="27.11" r="3.38"/>
        </g>
        <g>
          <path class="cls-21" d="M73.84,36.95c0,3.61-2.93,6.54-6.54,6.54s-6.54-2.93-6.54-6.54,2.93-6.54,6.54-6.54,6.54,2.93,6.54,6.54Z"/>
          <path class="cls-1" d="M73.84,36.95c0,3.61-2.93,6.54-6.54,6.54s-6.54-2.93-6.54-6.54,2.93-6.54,6.54-6.54,6.54,2.93,6.54,6.54Z"/>
          <circle class="cls-18" cx="67.29" cy="36.95" r="3.38"/>
        </g>
        <g>
          <circle class="cls-21" cx="77.41" cy="52.77" r="6.54"/>
          <circle class="cls-1" cx="77.41" cy="52.77" r="6.54"/>
          <circle class="cls-18" cx="77.41" cy="52.77" r="3.38"/>
        </g>
        <g>
          <circle class="cls-1" cx="82.45" cy="93.2" r="6.45"/>
          <circle class="cls-18" cx="82.45" cy="93.2" r="3.33"/>
        </g>
        <ellipse class="cls-16" cx="80.05" cy="73.16" rx="5.55" ry="5.4" transform="translate(-28.29 78.03) rotate(-45)"/>
        <g>
          <path class="cls-21" d="M88.11,93.2c0,3.61-2.93,6.54-6.54,6.54s-6.54-2.93-6.54-6.54,2.93-6.54,6.54-6.54,6.54,2.93,6.54,6.54Z"/>
          <path class="cls-1" d="M88.11,93.2c0,3.61-2.93,6.54-6.54,6.54s-6.54-2.93-6.54-6.54,2.93-6.54,6.54-6.54,6.54,2.93,6.54,6.54Z"/>
          <circle class="cls-18" cx="81.57" cy="93.2" r="3.38"/>
        </g>
        <line class="cls-24" x1="121.44" y1="183.01" x2="121.44" y2="188.67"/>
        <rect class="cls-25" x="111.02" y="184.49" width="10.42" height="2.7"/>
        <g>
          <circle class="cls-42" cx="106.51" cy="185.84" r="6.72"/>
          <g class="cls-39">
            <circle class="cls-33" cx="106.2" cy="185.53" r="6.41"/>
          </g>
          <circle class="cls-24" cx="106.51" cy="185.84" r="6.72"/>
        </g>
      </g>
    </g>
  </g>
</svg>