<?xml version="1.0" encoding="UTF-8"?>
<svg id="Layer_2" data-name="Layer 2" xmlns="http://www.w3.org/2000/svg" viewBox="0 0 292.75 267.49">
  <defs>
    <style>
      .cls-1 {
        fill: #81a2df;
      }

      .cls-1, .cls-2, .cls-3, .cls-4, .cls-5, .cls-6, .cls-7, .cls-8, .cls-9, .cls-10, .cls-11, .cls-12, .cls-13, .cls-14, .cls-15, .cls-16, .cls-17, .cls-18, .cls-19, .cls-20, .cls-21, .cls-22, .cls-23, .cls-24, .cls-25, .cls-26, .cls-27, .cls-28, .cls-29 {
        stroke: #250532;
      }

      .cls-1, .cls-2, .cls-3, .cls-4, .cls-5, .cls-6, .cls-7, .cls-8, .cls-9, .cls-10, .cls-11, .cls-13, .cls-14, .cls-15, .cls-30, .cls-16, .cls-17, .cls-18, .cls-19, .cls-20, .cls-21, .cls-22, .cls-23, .cls-24, .cls-25, .cls-31, .cls-27, .cls-32, .cls-28, .cls-29 {
        stroke-width: 2px;
      }

      .cls-1, .cls-3, .cls-4, .cls-5, .cls-6, .cls-8, .cls-9, .cls-10, .cls-11, .cls-13, .cls-14, .cls-15, .cls-30, .cls-16, .cls-17, .cls-18, .cls-19, .cls-20, .cls-21, .cls-22, .cls-23, .cls-24, .cls-25, .cls-27, .cls-28, .cls-29 {
        stroke-linejoin: round;
      }

      .cls-2 {
        fill: #d96b61;
      }

      .cls-2, .cls-7, .cls-12, .cls-31, .cls-26, .cls-32 {
        stroke-miterlimit: 10;
      }

      .cls-3 {
        fill: #e2715b;
      }

      .cls-4 {
        fill: #fdb44d;
      }

      .cls-5 {
        fill: #e4a6b5;
      }

      .cls-6 {
        fill: #e39c4a;
      }

      .cls-7 {
        fill: #f5b64c;
      }

      .cls-8 {
        fill: #472b3d;
      }

      .cls-9 {
        fill: #8b6f6d;
      }

      .cls-10 {
        fill: #82a1de;
      }

      .cls-11 {
        fill: #dc6c63;
      }

      .cls-12 {
        stroke-width: 9px;
      }

      .cls-12, .cls-26 {
        fill: none;
      }

      .cls-13 {
        fill: #886e6f;
      }

      .cls-14 {
        fill: #dc6c62;
      }

      .cls-15 {
        fill: #f9ba58;
      }

      .cls-30 {
        fill: #f4ba52;
      }

      .cls-30, .cls-31, .cls-32 {
        stroke: #19072e;
      }

      .cls-16 {
        fill: #82a3df;
      }

      .cls-17 {
        fill: #929fa9;
      }

      .cls-18 {
        fill: #b7b7cb;
      }

      .cls-19 {
        fill: #df99aa;
      }

      .cls-20 {
        fill: #faba55;
      }

      .cls-21 {
        fill: #889fda;
      }

      .cls-22 {
        fill: #a4ca29;
      }

      .cls-33 {
        fill: #250532;
      }

      .cls-23 {
        fill: #fefffe;
      }

      .cls-24 {
        fill: #fbbc55;
      }

      .cls-25 {
        fill: #de6c62;
      }

      .cls-31 {
        fill: #fffffe;
      }

      .cls-26 {
        stroke-linecap: round;
        stroke-width: 3px;
      }

      .cls-34 {
        fill: #19072e;
      }

      .cls-27 {
        fill: #f3d9c3;
      }

      .cls-32 {
        fill: #886e6e;
      }

      .cls-28 {
        fill: #886b6b;
      }

      .cls-29 {
        fill: #f9b958;
      }
    </style>
  </defs>
  <g id="Layer_136" data-name="Layer 136">
    <g id="Bulby">
      <path class="cls-29" d="M242.39,63.06h29.34c7.52,0,13.62,6.1,13.62,13.62h-42.96v-13.62h0Z"/>
      <path class="cls-4" d="M268.56,50.36h-26.17v16.93h27.5c8.45,0,11.86,6.11,12.63,10.82.47,2.86,2.82,5,5.65,5.3l2.58.53,1,.26c-.98-3.16-1-7.2-.8-11.44,0-12.37-10.03-22.4-22.4-22.4Z"/>
      <g>
        <path class="cls-11" d="M251.68,54.15c0-16.56-13.43-29.99-29.99-29.99h0c-15.07,0-27.54,11.12-29.67,25.61-.21,1.45-1.43,2.54-2.9,2.54h0c-5.86,5.86-9.14,9.14-15,15v75.43h30.13v-3.69h47.43V54.15Z"/>
        <circle class="cls-23" cx="223.54" cy="60.71" r="6.59"/>
      </g>
      <g>
        <path class="cls-15" d="M88.09,28.52c.27,8.44-3.15,16.08-8.76,21.44-2.23,2.13-3.51,5.07-3.51,8.15v18.93h-31.94v-18.56c0-3.09-1.26-6.07-3.53-8.17-5.62-5.19-9.13-12.63-9.13-20.87C31.22,13.13,44.93.04,61.46,1.06c14.51.89,26.17,12.94,26.63,27.47Z"/>
        <path class="cls-23" d="M68.56,41.67l-1.8,1.8c-1.92,1.92-3,4.52-3,7.23v16.56c0,1.48-1.2,2.67-2.67,2.67h-2.85c-1.48,0-2.67-1.2-2.67-2.67v-16.56c0-2.71-1.08-5.31-3-7.23l-1.8-1.8c-1.6-1.6-1.6-4.2,0-5.8h0c1.6-1.6,4.2-1.6,5.8,0l3.1,3.1,3.1-3.1c1.6-1.6,4.2-1.6,5.8,0h0c1.6,1.6,1.6,4.2,0,5.8Z"/>
      </g>
      <rect class="cls-34" x="42.09" y="68.76" width="35.14" height="58.16"/>
      <rect class="cls-14" x="41.46" y="77.04" width="36.4" height="27.59"/>
      <rect class="cls-22" x="39.38" y="65.25" width="40.56" height="13.8"/>
      <g>
        <path class="cls-32" d="M41.93,166.27v17.72H11.2c-3.8,0-6.88-3-6.88-6.69v-46.68h18.8v28.53c0,3.93,3.27,7.11,7.31,7.11h11.5Z"/>
        <rect class="cls-30" x="1" y="130.06" width="25.12" height="6.62"/>
      </g>
      <path class="cls-6" d="M251.68,120.9h-79.33c0,19.4-15.72,35.12-35.12,35.12h-44.85v-27.12c0-4.42-3.58-8-8-8h-45.11c-3.87,0-7,3.13-7,7v127.61c0,3.87,3.13,7,7,7h144.45c37.53,0,67.96-30.43,67.96-67.96v-73.65Z"/>
      <g>
        <rect class="cls-2" x="61.61" y="145.75" width="8.2" height="39.77"/>
        <rect class="cls-27" x="56.26" y="178.46" width="19.92" height="17.16"/>
        <path class="cls-25" d="M56.94,201.36h18.56v55.85c0,5.12-4.16,9.28-9.28,9.28h0c-5.12,0-9.28-4.16-9.28-9.28v-55.85h0Z"/>
        <rect class="cls-13" x="52.18" y="187.63" width="28.07" height="24.04"/>
        <rect class="cls-7" x="54.17" y="176.74" width="24.09" height="5.68"/>
        <path class="cls-34" d="M61.61,145.75v6.08c2.05,3.33,4.81,4.36,8.2,3.27v-9.35h-8.2Z"/>
        <path class="cls-31" d="M65.72,147.74c-6.1,0-11.06-4.96-11.06-11.06s4.96-11.06,11.06-11.06,11.06,4.96,11.06,11.06-4.96,11.06-11.06,11.06ZM65.72,130.63c-3.34,0-6.06,2.72-6.06,6.06s2.72,6.06,6.06,6.06,6.06-2.72,6.06-6.06-2.72-6.06-6.06-6.06Z"/>
      </g>
      <rect class="cls-21" x="174.13" y="109.16" width="77.56" height="8.69"/>
      <rect class="cls-4" x="171.95" y="121.04" width="79.11" height="4.5"/>
      <circle class="cls-33" cx="260.64" cy="57.55" r="2.34"/>
      <path class="cls-33" d="M226.71,58.41c.09.21.14.44.14.68,0,.93-.76,1.69-1.69,1.69s-1.69-.76-1.69-1.69.76-1.69,1.69-1.69c.24,0,.47.05.68.14-.65-.47-1.44-.76-2.3-.76-2.17,0-3.93,1.76-3.93,3.93s1.76,3.93,3.93,3.93,3.93-1.76,3.93-3.93c0-.86-.29-1.65-.76-2.3Z"/>
      <g>
        <path class="cls-1" d="M150.52,175.38l25.21-9.82c.61,1.56,1.07,3.18,1.38,4.82s.47,3.32.47,5h-27.05Z"/>
        <path class="cls-3" d="M150.52,175.38l10.88-24.77c1.53.67,3,1.49,4.39,2.44s2.68,2.02,3.86,3.2l-19.13,19.13Z"/>
        <path class="cls-19" d="M150.52,175.38l19.49-18.76c1.16,1.21,2.21,2.52,3.13,3.92s1.71,2.89,2.35,4.43l-24.97,10.4Z"/>
        <path class="cls-17" d="M150.52,175.38l.52-27.05c1.68.03,3.35.22,4.99.56s3.25.83,4.8,1.47l-10.3,25.01Z"/>
        <path class="cls-28" d="M150.52,175.38l-9.53-25.32c1.57-.59,3.19-1.03,4.84-1.32s3.33-.43,5-.41l-.31,27.05Z"/>
        <path class="cls-24" d="M150.52,175.38l-24.64-11.16c.69-1.53,1.52-2.99,2.49-4.36s2.05-2.65,3.25-3.82l18.91,19.35Z"/>
        <path class="cls-16" d="M150.52,175.38l-18.53-19.71c1.22-1.15,2.55-2.18,3.96-3.08s2.91-1.67,4.46-2.3l10.12,25.09Z"/>
        <path class="cls-17" d="M150.52,175.38l-27.04-.83c.05-1.68.26-3.34.62-4.98s.87-3.24,1.53-4.78l24.89,10.59Z"/>
        <path class="cls-18" d="M150.95,174.82l-25.21,9.82c-.61-1.56-1.07-3.18-1.38-4.82s-.47-3.32-.47-5h27.05Z"/>
        <path class="cls-3" d="M150.95,174.82l-10.88,24.77c-1.53-.67-3-1.49-4.39-2.44s-2.68-2.02-3.86-3.2l19.13-19.13Z"/>
        <path class="cls-20" d="M150.95,174.82l-19.49,18.76c-1.16-1.21-2.21-2.52-3.13-3.92s-1.71-2.89-2.35-4.43l24.97-10.4Z"/>
        <path class="cls-9" d="M150.95,174.82l-.52,27.05c-1.68-.03-3.35-.22-4.99-.56s-3.25-.83-4.8-1.47l10.3-25.01Z"/>
        <path class="cls-5" d="M150.95,174.82l9.53,25.32c-1.57.59-3.19,1.03-4.84,1.32s-3.33.43-5,.41l.31-27.05Z"/>
        <path class="cls-24" d="M150.95,174.82l24.64,11.16c-.69,1.53-1.52,2.99-2.49,4.36s-2.05,2.65-3.25,3.82l-18.91-19.35Z"/>
        <path class="cls-16" d="M150.95,174.82l18.53,19.71c-1.22,1.15-2.55,2.18-3.96,3.08s-2.91,1.67-4.46,2.3l-10.12-25.09Z"/>
        <path class="cls-17" d="M150.95,174.82l27.04.83c-.05,1.68-.26,3.34-.62,4.98s-.87,3.24-1.53,4.78l-24.89-10.59Z"/>
      </g>
      <circle class="cls-12" cx="150.52" cy="175.38" r="31.06"/>
      <path class="cls-20" d="M150.95,174.82l-19.49,18.76c-7.41,4.86-12.89-3.5-5.48-8.36l24.97-10.4Z"/>
      <circle class="cls-10" cx="150.52" cy="175.38" r="16.54"/>
      <circle class="cls-8" cx="150.52" cy="175.38" r="6.52"/>
      <path class="cls-26" d="M193.29,175.38c0,23.62-19.15,42.77-42.77,42.77-4.18,0-8.23-.6-12.05-1.72"/>
    </g>
  </g>
</svg>