<?xml version="1.0" encoding="UTF-8"?>
<svg id="Layer_2" data-name="Layer 2" xmlns="http://www.w3.org/2000/svg" viewBox="0 0 761.46 761.46">
  <defs>
    <style>
      .cls-1 {
        fill: none;
      }

      .cls-2 {
        fill: #6e86c2;
      }

      .cls-2, .cls-3, .cls-4, .cls-5, .cls-6, .cls-7, .cls-8, .cls-9, .cls-10, .cls-11, .cls-12, .cls-13 {
        stroke: #000;
        stroke-miterlimit: 10;
        stroke-width: 3.82px;
      }

      .cls-3 {
        fill: #efab96;
      }

      .cls-14 {
        fill: #fff8ff;
      }

      .cls-4 {
        fill: #386834;
      }

      .cls-5 {
        fill: #eb784b;
      }

      .cls-6 {
        fill: #56b57f;
      }

      .cls-7 {
        fill: #5d4884;
      }

      .cls-8 {
        fill: #e7bd3d;
      }

      .cls-9 {
        fill: #e5b337;
      }

      .cls-10 {
        fill: #6598ac;
      }

      .cls-11 {
        fill: #e5d7aa;
      }

      .cls-12 {
        fill: #ecd167;
      }

      .cls-13 {
        fill: #d5757f;
      }
    </style>
  </defs>
  <g id="Layer_75" data-name="Layer 75">
    <g>
      <g>
        <g>
          <circle class="cls-14" cx="380.73" cy="380.73" r="374.23"/>
          <path d="M380.73,761.46c-51.4,0-101.26-10.07-148.2-29.92-45.34-19.18-86.05-46.63-121.02-81.59-34.96-34.96-62.42-75.68-81.59-121.02C10.07,481.99,0,432.13,0,380.73s10.07-101.26,29.92-148.2c19.18-45.34,46.63-86.05,81.59-121.02,34.96-34.96,75.68-62.41,121.02-81.59C279.47,10.07,329.33,0,380.73,0s101.26,10.07,148.2,29.92c45.34,19.18,86.05,46.63,121.02,81.59,34.96,34.96,62.42,75.68,81.59,121.02,19.85,46.94,29.92,96.8,29.92,148.2s-10.07,101.26-29.92,148.2c-19.18,45.34-46.63,86.05-81.59,121.02-34.96,34.96-75.68,62.41-121.02,81.59-46.94,19.85-96.8,29.92-148.2,29.92ZM380.73,13c-49.65,0-97.8,9.72-143.13,28.9-43.79,18.52-83.12,45.04-116.89,78.81-33.77,33.77-60.29,73.1-78.81,116.89-19.17,45.33-28.9,93.49-28.9,143.14s9.72,97.8,28.9,143.14c18.52,43.79,45.04,83.12,78.81,116.89,33.77,33.77,73.1,60.29,116.89,78.81,45.33,19.17,93.49,28.9,143.13,28.9s97.8-9.72,143.13-28.9c43.79-18.52,83.12-45.04,116.89-78.81,33.77-33.77,60.29-73.1,78.81-116.89,19.17-45.33,28.9-93.49,28.9-143.14s-9.72-97.8-28.9-143.14c-18.52-43.79-45.04-83.12-78.81-116.89-33.77-33.77-73.1-60.29-116.89-78.81-45.33-19.17-93.49-28.9-143.13-28.9Z"/>
        </g>
        <g>
          <circle class="cls-1" cx="380.73" cy="382.14" r="296.31"/>
          <rect class="cls-7" x="525.65" y="82.58" width="15.81" height="91.33" rx="7.91" ry="7.91" transform="translate(142.91 -257.15) rotate(31.1)"/>
          <rect class="cls-5" x="631.62" y="192.06" width="15.81" height="91.33" rx="7.91" ry="7.91" transform="translate(534.89 -436.49) rotate(60.79)"/>
          <rect class="cls-13" x="669.11" y="339.86" width="15.81" height="91.33" rx="7.91" ry="7.91" transform="translate(1069.82 -287.3) rotate(90.62)"/>
          <rect class="cls-8" x="628.26" y="486.73" width="15.81" height="91.33" rx="7.91" ry="7.91" transform="translate(1417.85 254.7) rotate(120.52)"/>
          <rect class="cls-2" x="519.85" y="593.8" width="15.81" height="91.33" rx="7.91" ry="7.91" transform="translate(1303.49 932.18) rotate(150.21)"/>
          <rect class="cls-6" x="372.44" y="632.79" width="15.81" height="91.33" rx="7.91" ry="7.91" transform="translate(760.12 1357.22) rotate(-179.95)"/>
          <rect class="cls-10" x="225.17" y="593.43" width="15.81" height="91.33" rx="7.91" ry="7.91" transform="translate(116.1 1309.22) rotate(-150.06)"/>
          <rect class="cls-9" x="117.01" y="486.1" width="15.81" height="91.33" rx="7.91" ry="7.91" transform="translate(-270.7 908.43) rotate(-120.38)"/>
          <rect class="cls-12" x="76.53" y="339.09" width="15.81" height="91.33" rx="7.91" ry="7.91" transform="translate(-299.54 472.7) rotate(-90.52)"/>
          <rect class="cls-4" x="114.39" y="191.43" width="15.81" height="91.33" rx="7.91" ry="7.91" transform="translate(-144.3 227.44) rotate(-60.64)"/>
          <rect class="cls-3" x="220.62" y="82.19" width="15.81" height="91.33" rx="7.91" ry="7.91" transform="translate(-33.22 135.76) rotate(-30.96)"/>
          <rect class="cls-11" x="367.17" y="40.23" width="15.81" height="91.33" rx="7.91" ry="7.91" transform="translate(-1.58 7.21) rotate(-1.1)"/>
        </g>
      </g>
      <circle cx="380.73" cy="382.15" r="16.43"/>
    </g>
  </g>
</svg>