<?xml version="1.0" encoding="UTF-8"?>
<svg id="Layer_2" data-name="Layer 2" xmlns="http://www.w3.org/2000/svg" viewBox="0 0 201.94 292.27">
  <defs>
    <style>
      .cls-1 {
        fill: none;
        stroke-linecap: round;
        stroke-width: 3px;
      }

      .cls-1, .cls-2, .cls-3, .cls-4, .cls-5, .cls-6, .cls-7, .cls-8, .cls-9, .cls-10 {
        stroke: #000;
      }

      .cls-1, .cls-2, .cls-3, .cls-4, .cls-5, .cls-8, .cls-9, .cls-10 {
        stroke-linejoin: round;
      }

      .cls-2 {
        fill: #ea6656;
      }

      .cls-2, .cls-3, .cls-4, .cls-5, .cls-6, .cls-7, .cls-8, .cls-9, .cls-10 {
        stroke-width: 2px;
      }

      .cls-3 {
        fill: #feefd3;
      }

      .cls-4 {
        fill: #44846f;
      }

      .cls-5 {
        fill: #fdb34c;
      }

      .cls-6, .cls-7 {
        stroke-miterlimit: 10;
      }

      .cls-6, .cls-8 {
        fill: #6f7fcd;
      }

      .cls-7 {
        fill: #6b5cea;
      }

      .cls-9 {
        fill: #6f7fcc;
      }

      .cls-10 {
        fill: #6f7ecc;
      }
    </style>
  </defs>
  <g id="Layer_136" data-name="Layer 136">
    <g id="Double_Tank" data-name="Double Tank">
      <path class="cls-5" d="M44.76,288.26h21.92v-69.42h-21.92c-8.39,0-9.34,69.42,0,69.42Z"/>
      <path class="cls-5" d="M160.58,288.26h-21.92v-69.42h21.92c8.39,0,9.34,69.42,0,69.42Z"/>
      <path class="cls-9" d="M197.35,285.87H3.72c-3.62,0-3.62-61.54,0-61.54h193.63c4.79,0,4.79,61.54,0,61.54Z"/>
      <path class="cls-9" d="M3.72,285.87h73.53s0-61.54,0-61.54H3.72c3.67,0,3.67,61.54,0,61.54Z"/>
      <path d="M45.27,285.87h-7.81s0-61.54,0-61.54h7.81c4.23,0,4.23,61.54,0,61.54Z"/>
      <path class="cls-7" d="M38.11,285.87h-7.15c2.6,0,2.6-61.54,0-61.54h7.15c3.16,0,3.16,61.54,0,61.54Z"/>
      <path class="cls-9" d="M123.82,285.87h73.53c-4.21,0-4.21-61.54,0-61.54h-73.53s0,61.54,0,61.54Z"/>
      <path d="M160.58,285.87h7.81s0-61.54,0-61.54h-7.81c-3.82,0-3.82,61.54,0,61.54Z"/>
      <path class="cls-7" d="M167.75,285.87h7.15c-4.57,0-4.57-61.54,0-61.54h-7.15c-6.26,0-6.26,61.54,0,61.54Z"/>
      <g>
        <line class="cls-1" x1="95.28" y1="166.54" x2="95.28" y2="183.99"/>
        <line class="cls-1" x1="106.47" y1="166.54" x2="106.47" y2="183.99"/>
      </g>
      <g>
        <rect class="cls-2" x="123.31" y="28.11" width="46.33" height="14.03"/>
        <path d="M169.57,38.74h0c-1.39.79-3.19.74-4.62-.35-.58-.44-1.03-1.05-1.28-1.74-1.07-2.89,1.1-5.66,3.87-5.66.85,0,1.69.26,2.38.75h0c-1.46,2.07-1.59,4.79-.35,7Z"/>
      </g>
      <path class="cls-5" d="M67.19,288.26h-21.92c4.23,0,4.23-69.42,0-69.42h21.92v69.42Z"/>
      <path class="cls-5" d="M160.58,288.26h-21.92v-69.42h21.92c-4.67,20.22-3.84,43.88,0,69.42Z"/>
      <rect class="cls-5" x="79.29" y="192.4" width="43.18" height="5.32"/>
      <path class="cls-5" d="M122.47,41.3v1.97c-2.15,2.82-4.85,5.19-7.95,6.95-3.83,2.18-8.27,3.43-12.99,3.43-.1,0-.2,0-.3,0,4.89-.11,9.44-1.61,13.29-4.14,3.21-2.09,5.92-4.9,7.95-8.2Z"/>
      <path class="cls-5" d="M122.47,41.3v1.97c-2.15,2.82-4.85,5.19-7.95,6.95-3.83,2.18-8.27,3.43-12.99,3.43-.1,0-.2,0-.3,0,4.89-.11,9.44-1.61,13.29-4.14,3.21-2.09,5.92-4.9,7.95-8.2Z"/>
      <path class="cls-5" d="M102.43,1.02h-1.8c.3-.01.6-.02.9-.02s.6.01.9.02Z"/>
      <path class="cls-5" d="M114.52,49.5v.72c-3.83,2.18-8.27,3.43-12.99,3.43-.1,0-.2,0-.3,0,4.89-.11,9.44-1.61,13.29-4.14Z"/>
      <path class="cls-5" d="M122.47,76.81c-14.4,2.09-29.22,1.98-44.39,0h0c0-5.33,4.32-9.65,9.65-9.65h25.09c.58,0,1.15.05,1.7.15,1.99.35,3.76,1.31,5.12,2.68,1.75,1.74,2.83,4.15,2.83,6.82Z"/>
      <path class="cls-5" d="M143.93,169.22v119.04c0,4.01-83.58,4.01-83.58,0V38.07C60.35,17.61,76.58,1.02,96.6,1.02h3.17c-13.82.47-24.89,12.06-24.89,26.3,0,3.6.71,7.03,2,10.16h.35c-1.31-3.13-2.03-6.56-2.03-10.16,0-14.24,11.31-25.83,25.43-26.3h1.8c9.03.3,16.9,5.14,21.4,12.32,2.55,4.05,4.02,8.84,4.02,13.98s-1.47,9.93-4.02,13.98c-.42.68-.88,1.34-1.36,1.97,0,0-8.65,10.38-21.24,10.37.1,0,.2,0,.3,0,4.72,0,9.16-1.25,12.99-3.43v17.09c-.55-.1-1.12-.15-1.7-.15h-25.09c-5.33,0-9.65,4.32-9.65,9.65h0s1.21,0,1.21,0v120.91h43.18v-42.58h7.38c7.78,0,14.08,6.3,14.08,14.08Z"/>
      <rect class="cls-5" x="79.29" y="192.4" width="43.18" height="5.32"/>
      <circle class="cls-4" cx="100.88" cy="27.43" r="14.72"/>
      <circle class="cls-3" cx="100.88" cy="27.43" r="6.99"/>
      <path d="M102.59,24.68c-.95,0-1.72-.77-1.72-1.72,0-.69.41-1.28,1-1.55-.32-.1-.65-.16-1-.16-1.9,0-3.44,1.54-3.44,3.44s1.54,3.44,3.44,3.44,3.44-1.54,3.44-3.44c0-.35-.07-.68-.16-1-.27.59-.86,1-1.55,1Z"/>
      <g>
        <rect class="cls-8" x="91.45" y="147.75" width="18.85" height="11.83"/>
        <path class="cls-6" d="M116.85,92.6v54.89c0,2.72-2.2,4.92-4.92,4.92h-22.11c-2.72,0-4.92-2.2-4.92-4.92v-54.89c0-2.71,2.2-4.91,4.92-4.91h2.49v19.47c0,4.73,3.84,8.56,8.57,8.56s8.56-3.83,8.56-8.56v-19.47h2.49c2.72,0,4.92,2.2,4.92,4.91Z"/>
        <rect class="cls-8" x="92.31" y="81.9" width="17.12" height="11.83"/>
        <path d="M97.24,81.9h7.81v19.76c0,.55-.45,1-1,1h-5.81c-.55,0-1-.45-1-1v-19.76h0Z"/>
        <g>
          <path class="cls-8" d="M88.57,159.58h24.62c4.04,0,7.32,3.28,7.32,7.32v2.62h-39.25v-2.62c0-4.04,3.28-7.32,7.32-7.32Z"/>
          <rect class="cls-10" x="90.1" y="159.58" width="22.93" height="9.94"/>
          <line class="cls-10" x1="101.56" y1="160.28" x2="101.56" y2="169.52"/>
        </g>
      </g>
      <path d="M97.24,42.15h7.81v24.01c0,.55-.45,1-1,1h-5.81c-.55,0-1-.45-1-1v-24.01h0Z"/>
    </g>
  </g>
</svg>