<?xml version="1.0" encoding="UTF-8"?>
<svg id="Layer_2" data-name="Layer 2" xmlns="http://www.w3.org/2000/svg" xmlns:xlink="http://www.w3.org/1999/xlink" viewBox="0 0 271.88 141.73">
  <defs>
    <style>
      .cls-1 {
        fill: #fbffff;
      }

      .cls-1, .cls-2, .cls-3, .cls-4, .cls-5, .cls-6 {
        stroke: #000;
        stroke-miterlimit: 10;
        stroke-width: 2px;
      }

      .cls-2, .cls-7 {
        fill: #e4e6e7;
      }

      .cls-3 {
        fill: #393428;
      }

      .cls-4 {
        fill: #f84b00;
      }

      .cls-5 {
        fill: none;
      }

      .cls-6 {
        fill: #96a2d6;
      }

      .cls-8 {
        clip-path: url(#clippath);
      }
    </style>
    <clipPath id="clippath">
      <path class="cls-2" d="M261.48,69.35c-.06.07-.11.15-.16.23l-.09.1-.16.21-.66.83-2.66,3.27c-28.28,35.03-70.25,57.9-115.63,58.68-27.51.48-55.63-10.47-80.57-21.46-10.25-4.76-20.38-9.91-29.85-15.79-.68-.42-1.47-.65-2.27-.66h0c-2.38-.02-9.25-.03-11.49-.05-4.18.34-8.3-2.84-8.14-7.18,0-3.57,3.16-6.72,6.73-6.73h1.77l3.83.02c.51,0,1.21.01,2,.02,4.89.04,9.53-2.18,12.54-6.04,12.55-16.13,26.85-30.94,44.36-41.39,18.45-11.19,39.75-17.47,61.25-18.7,44.39-1.26,85.79,22.35,118.64,50.69,1.13.95,1.37,2.72.56,3.95Z"/>
    </clipPath>
  </defs>
  <g id="Layer_31" data-name="Layer 31">
    <g>
      <path class="cls-4" d="M266.93,58.7C232.56,28.36,189.35-.03,141.76,1.03c-23.93.96-47.64,8.46-67.38,22.08-18.91,12.78-33.68,30.55-46.91,48.68-3.05.03-7.44.06-9.17.06-13.82-.94-22.44,14.39-13.9,25.42,3.24,4.09,8.4,6.26,13.54,6.05,1.68.01,7.53-.03,10.35-.04,19.77,11.69,40.52,20.8,62.22,28.12,16.6,5.36,34.13,9.79,51.83,9.29,17.61-.45,35.18-3.71,51.69-9.93,28.96-10.78,54.06-30.47,73.3-54.46l.68-.85.17-.21.09-.1c3.98-4.77,3.32-12.38-1.34-16.44ZM261.48,69.35c-.06.07-.11.15-.16.23l-.09.1-.16.21-.66.83-2.66,3.27c-28.28,35.03-70.25,57.9-115.63,58.68-27.51.48-55.63-10.47-80.57-21.46-10.25-4.76-20.38-9.91-29.85-15.79-.68-.42-1.47-.65-2.27-.66h0c-2.38-.02-9.25-.03-11.49-.05-4.18.34-8.3-2.84-8.14-7.18,0-3.57,3.16-6.72,6.73-6.73h1.77l3.83.02c.51,0,1.21.01,2,.02,4.89.04,9.53-2.18,12.54-6.04,12.55-16.13,26.85-30.94,44.36-41.39,18.45-11.19,39.75-17.47,61.25-18.7,44.39-1.26,85.79,22.35,118.64,50.69,1.13.95,1.37,2.72.56,3.95Z"/>
      <g>
        <path class="cls-7" d="M261.48,69.35c-.06.07-.11.15-.16.23l-.09.1-.16.21-.66.83-2.66,3.27c-28.28,35.03-70.25,57.9-115.63,58.68-27.51.48-55.63-10.47-80.57-21.46-10.25-4.76-20.38-9.91-29.85-15.79-.68-.42-1.47-.65-2.27-.66h0c-2.38-.02-9.25-.03-11.49-.05-4.18.34-8.3-2.84-8.14-7.18,0-3.57,3.16-6.72,6.73-6.73h1.77l3.83.02c.51,0,1.21.01,2,.02,4.89.04,9.53-2.18,12.54-6.04,12.55-16.13,26.85-30.94,44.36-41.39,18.45-11.19,39.75-17.47,61.25-18.7,44.39-1.26,85.79,22.35,118.64,50.69,1.13.95,1.37,2.72.56,3.95Z"/>
        <g class="cls-8">
          <g>
            <circle class="cls-6" cx="135.94" cy="61.46" r="59.52"/>
            <path class="cls-1" d="M135.94,61.46l38.35-45.51c3.41,2.87,6.48,6.11,9.16,9.67s4.96,7.4,6.78,11.47l-54.3,24.38Z"/>
            <circle class="cls-3" cx="135.94" cy="61.46" r="25.72"/>
          </g>
        </g>
        <path class="cls-5" d="M261.48,69.35c-.06.07-.11.15-.16.23l-.09.1-.16.21-.66.83-2.66,3.27c-28.28,35.03-70.25,57.9-115.63,58.68-27.51.48-55.63-10.47-80.57-21.46-10.25-4.76-20.38-9.91-29.85-15.79-.68-.42-1.47-.65-2.27-.66h0c-2.38-.02-9.25-.03-11.49-.05-4.18.34-8.3-2.84-8.14-7.18,0-3.57,3.16-6.72,6.73-6.73h1.77l3.83.02c.51,0,1.21.01,2,.02,4.89.04,9.53-2.18,12.54-6.04,12.55-16.13,26.85-30.94,44.36-41.39,18.45-11.19,39.75-17.47,61.25-18.7,44.39-1.26,85.79,22.35,118.64,50.69,1.13.95,1.37,2.72.56,3.95Z"/>
      </g>
    </g>
  </g>
</svg>