<?xml version="1.0" encoding="UTF-8"?>
<svg xmlns="http://www.w3.org/2000/svg" xmlns:xlink="http://www.w3.org/1999/xlink" viewBox="0 0 132.29 144.45">
  <defs>
    <style>
      .cls-1 {
        fill: #efba3b;
      }

      .cls-1, .cls-2, .cls-3, .cls-4, .cls-5, .cls-6, .cls-7, .cls-8 {
        stroke-width: 1.26px;
      }

      .cls-1, .cls-3, .cls-9 {
        stroke-miterlimit: 10;
      }

      .cls-1, .cls-3, .cls-9, .cls-5, .cls-10 {
        stroke: #161415;
      }

      .cls-2 {
        fill: #2f1b40;
      }

      .cls-2, .cls-4, .cls-5, .cls-6, .cls-11, .cls-10, .cls-7, .cls-8 {
        stroke-linejoin: round;
      }

      .cls-2, .cls-6 {
        stroke: #010101;
      }

      .cls-3, .cls-10 {
        fill: #efbb39;
      }

      .cls-9 {
        fill: url(#linear-gradient);
        stroke-width: .95px;
      }

      .cls-4 {
        stroke: #ef519d;
      }

      .cls-4, .cls-12, .cls-7, .cls-8 {
        fill: #ebafb0;
      }

      .cls-13 {
        fill: #f05b58;
      }

      .cls-14, .cls-15 {
        mix-blend-mode: color-dodge;
        opacity: .3;
      }

      .cls-16 {
        isolation: isolate;
      }

      .cls-5, .cls-6, .cls-11 {
        fill: none;
      }

      .cls-5, .cls-11 {
        stroke-linecap: round;
      }

      .cls-12 {
        mix-blend-mode: color-burn;
      }

      .cls-17 {
        fill: #e04d44;
      }

      .cls-18 {
        fill: #fff;
      }

      .cls-11 {
        stroke: #fff;
        stroke-width: 9.45px;
      }

      .cls-10 {
        stroke-width: .85px;
      }

      .cls-7 {
        stroke: #d76caa;
      }

      .cls-15 {
        fill: #f48281;
      }

      .cls-8 {
        stroke: #c44e9d;
      }
    </style>
    <linearGradient id="linear-gradient" x1="66.15" y1="33.3" x2="66.15" y2="136.51" gradientUnits="userSpaceOnUse">
      <stop offset="0" stop-color="#efbb39"/>
      <stop offset=".68" stop-color="#f0c259"/>
    </linearGradient>
  </defs>
  <g class="cls-16">
    <g id="Layer_2" data-name="Layer 2">
      <g id="_3" data-name="3">
        <g id="Flower_2" data-name="Flower 2">
          <g>
            <g>
              <path class="cls-15" d="M130.54,101.2c-3.26-2.97-7.86-4.13-12.15-4.19-2.83-.03-5.51.16-8.09.53,6.78-12.4,12.27-25.56,16.33-38.18.36-1.1.61-2.24.69-3.4.49-7.46-5.3-9.55-12.66-4.36-10.18,6.68-20.1,16.46-29.56,24.3-1.5-6.38-6.21-11.51-12.33-13.61v-19.44c5.25-2.28,8.93-7.16,8.93-12.78h-15.56l-15.55.05c.02,5.59,3.69,10.45,8.93,12.72v19.44c-6.12,2.1-10.83,7.23-12.33,13.61-9.45-7.84-19.38-17.62-29.56-24.3-7.36-5.19-13.15-3.09-12.66,4.36.08,1.16.33,2.29.69,3.4,4.06,12.61,9.55,25.77,16.33,38.18-2.58-.38-5.26-.56-8.09-.53-4.29.06-8.88,1.22-12.15,4.19-3.64,4.66,2.41,12.42,5.76,15.87,5.78,5.48,11.9,9.72,18.99,13.36,5.9,3.11,11.93,5.82,18.17,7.9,2.17.72,4.34,1.45,6.47,2.28,4.25,1.65,8.06,2.65,11.78,3.01.9.12,1.81.21,2.75.21h.91c1.02,0,2.02-.1,2.99-.24,3.66-.4,7.43-1.4,11.62-3.02,2.06-.8,4.16-1.49,6.26-2.19,6.28-2.08,12.36-4.81,18.29-7.94,7.09-3.64,13.22-7.88,18.99-13.36,3.36-3.45,9.41-11.21,5.77-15.87Z"/>
              <path class="cls-15" d="M75.3,26.5s0,0,0,0h5.9l-.02-.09s.05,0,.08,0L75.23.64l-.03.09-.02.07h0s.01-.07.01-.07l-.02.03-.03-.14-9.02,12.66c-2.98-4.18-5.94-8.38-8.93-12.55l.05.23h0s-.05-.23-.05-.23l-.1-.07-.02.07-.08-.11-1.7,7.25h0l-1.1,4.69h0l-3.26,13.93h24.35Z"/>
            </g>
            <g>
              <path class="cls-18" d="M130.54,101.2c-3.26-2.97-7.86-4.13-12.15-4.19-2.83-.03-5.51.16-8.09.53,6.78-12.4,12.27-25.56,16.33-38.18.36-1.1.61-2.24.69-3.4.49-7.46-5.3-9.55-12.66-4.36-10.18,6.68-20.1,16.46-29.56,24.3-1.5-6.38-6.21-11.51-12.33-13.61v-19.44c5.25-2.28,8.93-7.16,8.93-12.78h-15.56l-15.55.05c.02,5.59,3.69,10.45,8.93,12.72v19.44c-6.12,2.1-10.83,7.23-12.33,13.61-9.45-7.84-19.38-17.62-29.56-24.3-7.36-5.19-13.15-3.09-12.66,4.36.08,1.16.33,2.29.69,3.4,4.06,12.61,9.55,25.77,16.33,38.18-2.58-.38-5.26-.56-8.09-.53-4.29.06-8.88,1.22-12.15,4.19-3.64,4.66,2.41,12.42,5.76,15.87,5.78,5.48,11.9,9.72,18.99,13.36,5.9,3.11,11.93,5.82,18.17,7.9,2.17.72,4.34,1.45,6.47,2.28,4.25,1.65,8.06,2.65,11.78,3.01.9.12,1.81.21,2.75.21h.91c1.02,0,2.02-.1,2.99-.24,3.66-.4,7.43-1.4,11.62-3.02,2.06-.8,4.16-1.49,6.26-2.19,6.28-2.08,12.36-4.81,18.29-7.94,7.09-3.64,13.22-7.88,18.99-13.36,3.36-3.45,9.41-11.21,5.77-15.87Z"/>
              <path class="cls-18" d="M75.3,26.5s0,0,0,0h5.9l-.02-.09s.05,0,.08,0L75.23.64l-.03.09-.02.07h0s.01-.07.01-.07l-.02.03-.03-.14-9.02,12.66c-2.98-4.18-5.94-8.38-8.93-12.55l.05.23h0s-.05-.23-.05-.23l-.1-.07-.02.07-.08-.11-1.7,7.25h0l-1.1,4.69h0l-3.26,13.93h24.35Z"/>
            </g>
            <g>
              <path class="cls-11" d="M130.54,101.2c-3.26-2.97-7.86-4.13-12.15-4.19-2.83-.03-5.51.16-8.09.53,6.78-12.4,12.27-25.56,16.33-38.18.36-1.1.61-2.24.69-3.4.49-7.46-5.3-9.55-12.66-4.36-10.18,6.68-20.1,16.46-29.56,24.3-1.5-6.38-6.21-11.51-12.33-13.61v-19.44c5.25-2.28,8.93-7.16,8.93-12.78h-15.56l-15.55.05c.02,5.59,3.69,10.45,8.93,12.72v19.44c-6.12,2.1-10.83,7.23-12.33,13.61-9.45-7.84-19.38-17.62-29.56-24.3-7.36-5.19-13.15-3.09-12.66,4.36.08,1.16.33,2.29.69,3.4,4.06,12.61,9.55,25.77,16.33,38.18-2.58-.38-5.26-.56-8.09-.53-4.29.06-8.88,1.22-12.15,4.19-3.64,4.66,2.41,12.42,5.76,15.87,5.78,5.48,11.9,9.72,18.99,13.36,5.9,3.11,11.93,5.82,18.17,7.9,2.17.72,4.34,1.45,6.47,2.28,4.25,1.65,8.06,2.65,11.78,3.01.9.12,1.81.21,2.75.21h.91c1.02,0,2.02-.1,2.99-.24,3.66-.4,7.43-1.4,11.62-3.02,2.06-.8,4.16-1.49,6.26-2.19,6.28-2.08,12.36-4.81,18.29-7.94,7.09-3.64,13.22-7.88,18.99-13.36,3.36-3.45,9.41-11.21,5.77-15.87Z"/>
              <path class="cls-11" d="M75.3,26.5s0,0,0,0h5.9l-.02-.09s.05,0,.08,0L75.23.64l-.03.09-.02.07h0s.01-.07.01-.07l-.02.03-.03-.14-9.02,12.66c-2.98-4.18-5.94-8.38-8.93-12.55l.05.23h0s-.05-.23-.05-.23l-.1-.07-.02.07-.08-.11-1.7,7.25h0l-1.1,4.69h0l-3.26,13.93h24.35Z"/>
            </g>
          </g>
          <g>
            <polygon class="cls-7" points="50.95 26.5 81.2 26.5 75.15 .63 66.07 13.37 57 .63 50.95 26.5"/>
            <g>
              <path class="cls-3" d="M83.26,77.42c10-8.06,20.56-18.69,31.4-25.81,7.36-5.19,13.15-3.09,12.66,4.36-.08,1.16-.33,2.29-.69,3.4-7.2,22.35-18.88,46.43-34.3,64.95-3.03,3.64-6.28,7.24-10.56,9.65-4.27,2.4-9.79,3.44-14.41,1.63-4.25-1.67-7.73-7.24-9.37-11.16-8.48-20.31,10.36-35,25.26-47.01Z"/>
              <path class="cls-3" d="M49.03,77.42c-10-8.06-20.56-18.69-31.4-25.81-7.36-5.19-13.15-3.09-12.66,4.36.08,1.16.33,2.29.69,3.4,7.2,22.35,18.88,46.43,34.3,64.95,3.03,3.64,6.28,7.24,10.56,9.65,4.27,2.4,9.79,3.44,14.41,1.63,4.25-1.67,7.73-7.24,9.37-11.16,8.48-20.31-10.36-35-25.26-47.01Z"/>
            </g>
            <rect class="cls-1" x="46.66" y="61.26" width="38.97" height="82.56" rx="19.03" ry="19.03"/>
            <rect class="cls-9" x="59.52" y="33.3" width="13.26" height="103.21" rx="6.63" ry="6.63"/>
            <g>
              <path class="cls-3" d="M124.77,117.07c-5.78,5.48-11.9,9.72-18.99,13.36-5.93,3.13-12.01,5.86-18.29,7.94-2.1.69-4.2,1.39-6.26,2.19-11.02,4.25-19.09,4.31-30.06.05-2.13-.83-4.3-1.56-6.47-2.28-6.24-2.07-12.28-4.79-18.17-7.9-7.09-3.64-13.21-7.88-18.99-13.36-3.35-3.45-9.41-11.21-5.76-15.87,3.26-2.97,7.86-4.13,12.15-4.19,12.61-.14,22.53,3.86,32.04,11.33.97.76,1.93,1.55,2.89,2.38,6.7,5.78,12.41,11.6,17.31,18.31,4.9-6.71,10.61-12.53,17.32-18.31.48-.42.96-.83,1.45-1.22,9.95-8.22,20.22-12.64,33.48-12.49,4.29.06,8.88,1.22,12.15,4.19,3.64,4.66-2.41,12.42-5.77,15.87Z"/>
              <polyline class="cls-5" points="27.93 111.24 66.15 137.47 103.83 111.24"/>
            </g>
            <path class="cls-2" d="M66.15,30.09h15.55c0,7.77-7.02,14.16-15.55,14.16s-15.52-6.36-15.55-14.11l15.55-.05Z"/>
            <path class="cls-8" d="M81.2,26.5h-30.25l4.36-18.62c.66-2.82,4.34-3.54,6.02-1.19l4.75,6.67,4.75-6.67c1.68-2.36,5.36-1.63,6.02,1.19l4.36,18.62Z"/>
            <path class="cls-4" d="M81.2,26.5h-30.25l3.26-13.93c1.09-4.64,7.14-5.84,9.91-1.95l1.96,2.75,1.96-2.75c2.77-3.88,8.82-2.69,9.91,1.95l3.26,13.93Z"/>
            <g>
              <polygon class="cls-12" points="81.2 26.5 50.95 26.5 57 .63 66.07 13.37 75.15 .63 81.2 26.5"/>
              <polygon class="cls-6" points="81.2 26.5 50.95 26.5 57 .63 66.07 13.37 75.15 .63 81.2 26.5"/>
            </g>
            <path class="cls-10" d="M85.58,108.13c4.35-13.5,12.32-25.81,22.84-35.32-8.38,13.73-16.78,27.51-26.92,39.99"/>
            <path class="cls-10" d="M46.86,108.13c-4.35-13.5-12.32-25.81-22.84-35.32,8.38,13.73,16.78,27.51,26.92,39.99"/>
            <g class="cls-14">
              <path class="cls-13" d="M71.05,20.18l-1.11,6.12,1.15-5.88c.16-.08,1.49,1.88,2.04,2.67-.54-.84-1.92-2.99-2.09-2.92Z"/>
              <path class="cls-13" d="M72.91,26.48c-3.5.01-7.01,0-10.5,0L57.19.74c3.02,4.2,6,8.44,9,12.65l4.85,6.79-1.11,6.12h0l-.03.17h3Z"/>
              <path class="cls-17" d="M75.32,26.48c.06-.04.03-.08,0-.15-.13-.36-1.29-1.95-1.81-2.68-.03-.04-.06-.09-.09-.13-.03-.04-.06-.08-.08-.11-.03-.04-.08-.12-.15-.23-.01-.03-.03-.05-.05-.08-.54-.84-1.92-2.99-2.09-2.92L75.2.74l.03-.09,6.02,25.76c-1.97.04-3.95.06-5.93.08Z"/>
              <polygon class="cls-13" points="70.01 25.96 69.94 26.3 69.94 26.3 70.01 25.96"/>
              <path class="cls-17" d="M75.32,26.48c-.81,0-1.61,0-2.41,0h-3s.03-.18.03-.18l.06-.34,1.04-5.78c.16-.08,1.54,2.08,2.09,2.92.02.03.04.05.05.08.07.11.13.19.15.23.03.03.05.07.08.11.03.04.06.09.09.13.53.74,1.69,2.32,1.81,2.68.03.07.06.11,0,.15Z"/>
              <path class="cls-17" d="M75.32,26.48s-.01.01-.03.02h-2.39c.81-.01,1.61-.01,2.41-.02Z"/>
              <path class="cls-15" d="M57.19.74l5.22,25.74c-3.79,0-7.58.06-11.37-.07L57.09.66l.1.07Z"/>
              <polygon class="cls-15" points="66.2 13.39 75.2 .74 71.04 20.18 66.2 13.39"/>
            </g>
          </g>
        </g>
      </g>
    </g>
  </g>
</svg>