<?xml version="1.0" encoding="UTF-8"?>
<svg id="Layer_2" data-name="Layer 2" xmlns="http://www.w3.org/2000/svg" viewBox="0 0 139.52 113.4">
  <defs>
    <style>
      .cls-1 {
        fill: #6a6e99;
        stroke: #010101;
      }

      .cls-1, .cls-2, .cls-3, .cls-4 {
        stroke-width: 1.26px;
      }

      .cls-1, .cls-5 {
        stroke-linecap: round;
      }

      .cls-1, .cls-6 {
        stroke-miterlimit: 10;
      }

      .cls-2 {
        fill: #fffffa;
      }

      .cls-2, .cls-3, .cls-5, .cls-4 {
        stroke-linejoin: round;
      }

      .cls-2, .cls-3, .cls-4 {
        stroke: #030303;
      }

      .cls-3 {
        fill: #e1682b;
      }

      .cls-7, .cls-6 {
        fill: #fff;
      }

      .cls-5 {
        fill: none;
        stroke-width: 9.45px;
      }

      .cls-5, .cls-6 {
        stroke: #fff;
      }

      .cls-6 {
        stroke-width: 6px;
      }

      .cls-4 {
        fill: #f09f7f;
      }
    </style>
  </defs>
  <g id="_3" data-name="3">
    <g>
      <g>
        <path class="cls-6" d="M135.93,50l-18,23.42-16.18-21.05-14.26,18.56v-19.41c0-1.5-.13-2.98-.37-4.44,5.08-4.64,8.26-11.31,8.26-18.73,0-14.01-11.35-25.36-25.36-25.36s-25.36,11.35-25.36,25.36c0,7.42,3.19,14.09,8.26,18.73-.24,1.46-.37,2.94-.37,4.44v21.02l-15.5-20.17-16.18,21.04L3,50.17v31.48c0,9.52,7.72,17.24,17.24,17.24h.64v11.51h97.05v-11.51h1.36c9.52,0,17.24-7.72,17.24-17.24v-31.65h-.59Z"/>
        <path class="cls-7" d="M135.93,50l-18,23.42-16.18-21.05-14.26,18.56v-19.41c0-1.5-.13-2.98-.37-4.44,5.08-4.64,8.26-11.31,8.26-18.73,0-14.01-11.35-25.36-25.36-25.36s-25.36,11.35-25.36,25.36c0,7.42,3.19,14.09,8.26,18.73-.24,1.46-.37,2.94-.37,4.44v21.02l-15.5-20.17-16.18,21.04L3,50.17v31.48c0,9.52,7.72,17.24,17.24,17.24h.64v11.51h97.05v-11.51h1.36c9.52,0,17.24-7.72,17.24-17.24v-31.65h-.59Z"/>
        <path class="cls-5" d="M135.93,50l-18,23.42-16.18-21.05-14.26,18.56v-19.41c0-1.5-.13-2.98-.37-4.44,5.08-4.64,8.26-11.31,8.26-18.73,0-14.01-11.35-25.36-25.36-25.36s-25.36,11.35-25.36,25.36c0,7.42,3.19,14.09,8.26,18.73-.24,1.46-.37,2.94-.37,4.44v21.02l-15.5-20.17-16.18,21.04L3,50.17v31.48c0,9.52,7.72,17.24,17.24,17.24h.64v11.51h97.05v-11.51h1.36c9.52,0,17.24-7.72,17.24-17.24v-31.65h-.59Z"/>
      </g>
      <g id="Flower_1" data-name="Flower 1">
        <circle class="cls-1" cx="70.02" cy="28.36" r="25.36"/>
        <path class="cls-4" d="M80.24,32.89l-10.23-11.19-10.23,11.19c-4.66,5.09-7.24,11.74-7.24,18.64v50.06h34.93v-50.06c0-6.9-2.58-13.55-7.24-18.64Z"/>
        <rect class="cls-2" x="20.87" y="92.07" width="97.05" height="18.33"/>
        <path class="cls-3" d="M136.52,50v31.65c0,9.52-7.72,17.24-17.24,17.24H20.24c-9.52,0-17.24-7.72-17.24-17.24v-31.48l17.87,23.26,16.18-21.04,16.17,21.04,16.17-21.05,16.17,21.05,16.17-21.05,16.18,21.05,18-23.42h.59Z"/>
      </g>
    </g>
  </g>
</svg>