<?xml version="1.0" encoding="UTF-8"?>
<svg xmlns="http://www.w3.org/2000/svg" viewBox="0 0 488.22 422.47">
  <defs>
    <style>
      .cls-1 {
        fill: #0a2b3f;
        mix-blend-mode: multiply;
      }

      .cls-1, .cls-2, .cls-3, .cls-4, .cls-5, .cls-6, .cls-7, .cls-8, .cls-9, .cls-10, .cls-11 {
        stroke-width: 0px;
      }

      .cls-12 {
        isolation: isolate;
      }

      .cls-2 {
        fill: #7996ae;
      }

      .cls-3 {
        fill: #5fffb9;
      }

      .cls-4 {
        fill: #415d73;
      }

      .cls-5 {
        fill: #133246;
      }

      .cls-6 {
        fill: #140c0c;
      }

      .cls-7 {
        fill: #e17a3a;
      }

      .cls-8 {
        fill: #b1a89f;
      }

      .cls-9 {
        fill: #671307;
      }

      .cls-10 {
        fill: #e5382e;
      }

      .cls-11 {
        fill: #00c47e;
      }
    </style>
  </defs>
  <g class="cls-12">
    <g id="Layer_2" data-name="Layer 2">
      <g id="Layer_1-2" data-name="Layer 1">
        <g>
          <path class="cls-6" d="m296.53,61.28c.03.21.15.32.36.34.16,0,.2.08.11.21-.17.26-.45.43-.85.5-20.04-2.67-40.18-3.37-60.42-2.1-1.7.11-2.63.7-2.79,1.77-1.01,6.95-.84,13.86.5,20.73.1.48.49.84.97.9,6.48.83,13.07,1.11,17.93,6.16.24.25.53.38.87.39l11.75.3,13.7.05c.22,0,.41.08.57.24l.37.37c.1.1.03.27-.11.26-.3-.01-.57.02-.8.1l-23.22-.06c-.88,0-1.47.41-1.76,1.24l-2.42,6.84c-.21.59.23,1.21.86,1.21l37.59-.31c.26.32.39.52.39.6-.01.15-.13.32-.37.53l-39.7.59c-.66.01-1.3.24-1.81.66-5.48,4.45-11.74,7.5-18.78,9.14-9.61,2.24-19.14,3.98-28.56,7.01-2.97.95-5.36,2.63-7.15,5.04.17.5.16,1.08-.01,1.74-7.74,1.47-18.86,21.8-22.05,28.57l-.78.5c-.22.14-.38.09-.49-.16-.17-.41-.64-.83-1.41-1.28-16.98,5.56-32.7,13.76-47.17,24.59-6.3,4.71-10.71,8.23-13.22,10.56-9.76,9.01-16.59,17.61-21.64,28.77-.04.74-.45.14-1.23-1.81,1.42-5.94,1.59-11.76,2.55-17.77.16-1.03.29-2.07.4-3.12.26-2.59,1.07-5.12,1.41-7.72.25-1.93.5-3.47.76-4.64.77-3.45,1.46-6.97,2.06-10.56,0-.01.01-.02.02-.02s.02.01.02.02v.29c-.01.35.03.36.1.01l2.29-10.44c.79-1.6,1.14-3.34,1.07-5.22,2.55-9.18,5.09-18.42,8.54-27.31,1.41-3.62,2.66-7.64,3.95-10.91,4.9-12.39,10.44-24.69,16.61-36.91.51-1.02.19-2.26-.75-2.9-7.47-5.06-14.01-11.53-19.62-19.42-1.18-1.67-3.3-1.53-5.22-.84-11.68,4.2-23.68-2.95-18.61-16.49,4.23-11.3,18.63-12.65,26.06-3.9.61.71,1.08.63,1.42-.24l1.68-4.27c.31-.8.12-1.7-.48-2.31-3.85-3.89-7.39-7.29-10.62-10.2-4.15-3.73,1.11-11.01,5.31-6.72,2.97,3.03,6.1,6.76,9.37,11.17.32.44.95.49,1.34.12l3.54-3.39c.44-.42.5-.89.17-1.4l-6.63-10.64c-1.63-2.6-1.13-4.69,1.5-6.28l1.15-.69c1.67-1.01,3.84-.36,4.69,1.4l6.46,13.43c.19.4.61.64,1.05.62,1.77-.07,3.47-.44,5.11-1.11.45-.18.7-.65.61-1.12l-2.23-11.15c-.49-2.44,1.34-4.74,3.83-4.82l.38-.02c2.82-.09,4.29,1.28,4.42,4.09l.6,13.43c.02.38.21.62.58.72,11.59,3.16,19.14,13.47,21.35,24.83.09.43.52.71.95.62,10.1-2.18,18.87-2.39,29.28-1.92,5.04.22,9.65,1.62,13.83,4.2.48.3,1.12.08,1.32-.45,3.43-8.94,14.51-11.63,21.74-5.32,5.07,4.43,6.66,10.28,4.77,17.53-.16.64.34,1.25,1,1.22,16.82-.83,33.43-.56,49.83.8,3.97.33,7.9.84,11.81,1.53ZM132.07,4.62l2.33,11.82c.07.36.28.58.63.66l2.93.71c.45.11.66-.07.65-.53l-.48-13c-.07-1.87-1.03-2.8-2.89-2.8h-.59c-2.13,0-2.99,1.05-2.58,3.14Zm-11.74,3.35c-1.24-2.78-3.99-6.1-6.67-2.62-.37.48-.51,1.09-.4,1.68.87,4.43,4.75,9.65,7.59,13.12.27.33.58.39.95.19l2.72-1.44c.33-.17.48-.56.35-.91-1.25-3.49-3-6.58-4.54-10.02Zm-20.72,7.43c-1,2.19.36,4.39,2.16,5.98,2.79,2.47,5.64,5.12,8.54,7.97.63.61,1.64.57,2.21-.09l.35-.42c.85-1,.9-2.03.13-3.1-2.66-3.68-5.37-7.04-8.13-10.07-1.49-1.64-4.04-2.97-5.26-.27Zm21.16,24.72c.87-4.66,3.45-7.66,7.71-9.45,12.29-5.15,20.97,6,23.71,16.57.11.42.59.63.98.43l3.8-1.95c.47-.25.67-.63.6-1.16-.84-5.85-3.3-10.85-7.37-15.01-20.03-20.44-48.37,6.19-31.49,27.99,3.54,4.57,7.89,8.05,13.04,10.46.43.2.95.04,1.19-.38l1.72-3.05c.49-.87.25-1.97-.57-2.55-7.93-5.55-15.39-10.88-13.32-21.9Zm-33.92,16.78c4.61,1.94,8.76,1.39,13.33-.22,2.38-.84,4.7-.82,6.1,1.3,4.25,6.43,10.22,12.56,17.93,18.38,1.41,1.05,2.7.93,3.87-.38l.29-.33c.92-1.03.71-2.64-.45-3.4-7.66-5.02-17.01-13.76-18.34-22.1-.8-4.96-.9-11.31-5.66-14.33-7.7-4.88-14.29-4-19.77,2.64-4.14,5.01-4.35,15.47,2.7,18.44Zm60.54-6.59c.26-.23.39-.58.33-.92-.54-3.34-1.03-6.29-3.36-8.94-1.45-1.64-2.82-2.94-4.13-3.9-6.65-4.88-15.64.5-14.66,8.62.87,7.15,6.63,9.01,11.22,13.26.35.32.88.33,1.24.02l9.36-8.14Zm61.73.68c1.14,3.68,1.7,6.04,2.52,9.09.21.79.91,1.36,1.73,1.4,5.38.25,10.66-.2,15.85-1.33,2.19-.47,3.51-1.94,3.98-4.39,1.16-6.09-.35-10.98-4.52-14.69-3.19-2.83-6.91-3.79-11.17-2.87-6.32,1.36-10.38,6.43-8.39,12.79Zm-1.77-1.09c-1.41-4.07-9.4-6.21-13.31-6.63-8.18-.87-16.37-.67-24.57.59-12.88,1.97-26.55,9.01-33.12,20.8-2.53,4.55-3.85,10-3.95,16.36-.2,12.76,4.2,27.89,15.14,35.73,12.63,9.06,25.91,9.44,40.98,5.49,5.58-1.46,8.82-3.74,12.06-8.08,1.77-2.36,3.07-4.11,3.9-5.26,8.14-11.13,7.82-27,7.06-40.01-.39-6.76-2.02-12.73-4.19-18.99Zm23.87,33.05c.39-.35.55-.75.47-1.2-1.08-6.44-1.68-13.09-.31-19.55.1-.48-.3-.91-.78-.85l-17.37,2.19c-.51.07-.87.53-.81,1.04.53,4.51.81,9.16.86,13.95.03,2.27,1.26,3.52,3.7,3.74,4.69.43,9.17.75,13.45.96.29.01.57-.09.79-.28Zm-136.43,90.61c-.07-.06-.16-.08-.26-.05-.14.04-.22.13-.25.27l-1.47,9.83c-.02.12-.07.24-.15.34-.17.21-.28.4-.31.57-.6,2.76-.85,5.54-.76,8.35.04,1.35-.44,2.42-.93,3.61-.11.27-.14.56-.09.85.3,1.65-.1,3.1-1.2,4.35-.22.23-.31.55-.27.87.13.98-.14,1.81-.81,2.5-.26.27-.4.59-.42.96-.07.94.03,1.87.29,2.79.1.35.57.4.73.08.31-.58.72-.78,1.23-.61.59.2,1.2-.21,1.25-.83.02-.36.2-.63.53-.82.21-.12.39-.26.56-.43.85-.83,1.48-1.81,1.89-2.94.11-.32.32-.57.61-.75.19-.13.35-.3.47-.51,1.58-2.94,3.43-5.7,5.55-8.28.62-.75,1.36-1.48,2.22-2.19,1.5-1.24,2.77-2.14,4.12-3.78,1.43-1.75,3.56-2.74,5.11-4.39,2.35-2.51,4.93-4.73,7.75-6.68.11-.08.22-.19.31-.33.09-.15.19-.29.3-.43.19-.24.43-.39.72-.46,1.81-.43,3.32-1.33,4.53-2.7.22-.25.48-.43.78-.56,1.3-.56,2.45-1.48,3.8-1.87,1.43-.41,2.64-.71,3.95-1.51,2.03-1.23,4.09-2.43,6.16-3.6.72-.41,1.64-1.07,2.75-1.99,1.6-1.32,3.12-1.38,4.61-2.39.84-.56,1.31-.86,1.41-.91,5.5-2.47,10.98-4.96,16.45-7.49,1.42-.66,3.47-1.02,5.09-1.95.31-.18.49-.45.53-.82.05-.54.3-.99.74-1.35.24-.2.43-.44.57-.72.9-1.85,1.84-3.68,2.81-5.5.85-1.58,2.29-2.78,3.19-4.47.79-1.49,1.55-2.59,2.26-3.31,1.67-1.69,3.26-3.44,4.75-5.24.3-.35.79-.47,1.21-.3.49.21.74.08.75-.38.01-.17.06-.33.17-.47l1.85-2.38c1.09-1.39.76-1.94-.98-1.64-2.25.39-4.44.87-6.55,1.45-1.41.38-3.03.34-4.5.75-1.55.44-2.65.68-3.3.73-5.62.45-10.14.15-13.57-.9-2.96-.91-5.92-1.83-8.88-2.74-1.28-.4-2.44-2.18-3.99-2.93-1.25-.61-2.42-1.35-3.51-2.22-1.24-1-1.61-2.59-3-3.7-.27-.22-.48-.51-.6-.84-.69-1.94-1.86-3.51-3.53-4.71-.25-.18-.44-.45-.52-.75-.49-1.81-1.4-3.37-2.74-4.7-.22-.21-.36-.5-.4-.81l-.52-4.03c-.03-.27-.15-.53-.34-.73-.32-.35-.55-.76-.69-1.22-.09-.29-.13-.59-.12-.9.01-.97-.15-2.02-.5-3.13-.32-1.01-.77-2.91-1.36-5.68-.58-2.77-.05-4.62.59-7.32.18-.75.06-1.51-.37-2.26-.18-.32-.4-.35-.66-.1-.92.89-1.18,2.07-1.93,3.05-.92,1.18-1.48,2.3-1.51,3.89-.01.51-.1,1.07-.27,1.68-1.07,3.87-2.64,7.28-4.73,10.23-.2.29-.29.62-.27.97.02.31-.07.58-.28.81-.12.13-.22.27-.29.43l-6.06,12.72c-.07.14-.11.28-.12.43-.03.33-.21.59-.52.78-.3.18-.49.5-.49.85v.66c0,.2-.14.38-.34.43-.65.19-.96.69-.95,1.5.01.29-.09.54-.29.75-.37.38-.51.85-.42,1.42.05.31,0,.63-.15.91-1.41,2.65-2.55,5.41-3.42,8.27-.69,2.3-1.24,4-1.64,5.09-.61,1.67-1.18,3.36-1.72,5.06-.32,1.02-.96,1.45-1.15,2.63-.19,1.21-.31,1.89-.36,2.04-2.01,6.08-3.23,12.51-5.49,18.46-.41,1.07-.13,2.22-.92,3.32-.22.3-.35.96-.4,1.98-.08,1.85-.97,2.98-.74,5.03.04.35.02.71-.07,1.06l-.49,1.9s0,.06-.02.05Zm157.1-81.16c.01-2.45-4.03-4.77-6-5.56-2.34-.95-5.98-1.54-10.91-1.78-6.89-.34-13.68-.81-20.37-1.42-.61-.06-1.14.4-1.18,1.01-.44,7.38-1.97,16.19-5.73,22.7-1.66,2.88-3.89,5.28-5.54,8.16-.24.43.13.94.61.84,9.1-1.9,18.12-3.87,27.07-5.9,7.54-1.71,21.99-8.66,22.05-18.05Z"/>
          <path class="cls-4" d="m134.4,16.44l-2.33-11.82c-.41-2.09.45-3.14,2.58-3.14h.59c1.86,0,2.82.93,2.89,2.8l.48,13c.01.46-.2.64-.65.53l-2.93-.71c-.35-.08-.56-.3-.63-.66Z"/>
          <path class="cls-4" d="m120.33,7.97c1.54,3.44,3.29,6.53,4.54,10.02.13.35-.02.74-.35.91l-2.72,1.44c-.37.2-.68.14-.95-.19-2.84-3.47-6.72-8.69-7.59-13.12-.11-.59.03-1.2.4-1.68,2.68-3.48,5.43-.16,6.67,2.62Z"/>
          <path class="cls-4" d="m99.61,15.4c1.22-2.7,3.77-1.37,5.26.27,2.76,3.03,5.47,6.39,8.13,10.07.77,1.07.72,2.1-.13,3.1l-.35.42c-.57.66-1.58.7-2.21.09-2.9-2.85-5.75-5.5-8.54-7.97-1.8-1.59-3.16-3.79-2.16-5.98Z"/>
          <path class="cls-8" d="m120.77,40.12c-2.07,11.02,5.39,16.35,13.32,21.9.82.58,1.06,1.68.57,2.55l-1.72,3.05c-.24.42-.76.58-1.19.38-5.15-2.41-9.5-5.89-13.04-10.46-16.88-21.8,11.46-48.43,31.49-27.99,4.07,4.16,6.53,9.16,7.37,15.01.07.53-.13.91-.6,1.16l-3.8,1.95c-.39.2-.87,0-.98-.43-2.74-10.57-11.42-21.72-23.71-16.57-4.26,1.79-6.84,4.79-7.71,9.45Z"/>
          <path class="cls-11" d="m100.18,56.68c-4.57,1.61-8.72,2.16-13.33.22-7.05-2.97-6.84-13.43-2.7-18.44,5.48-6.64,12.07-7.52,19.77-2.64,4.76,3.02,4.86,9.37,5.66,14.33,1.33,8.34,10.68,17.08,18.34,22.1,1.16.76,1.37,2.37.45,3.4l-.29.33c-1.17,1.31-2.46,1.43-3.87.38-7.71-5.82-13.68-11.95-17.93-18.38-1.4-2.12-3.72-2.14-6.1-1.3Zm-.04-12.21c-.72-3.02-3.87-4.86-7.04-4.11-3.17.76-5.16,3.82-4.43,6.84.72,3.02,3.87,4.86,7.04,4.11,3.17-.76,5.16-3.82,4.43-6.84Z"/>
          <path class="cls-4" d="m147.39,50.31l-9.36,8.14c-.36.31-.89.3-1.24-.02-4.59-4.25-10.35-6.11-11.22-13.26-.98-8.12,8.01-13.5,14.66-8.62,1.31.96,2.68,2.26,4.13,3.9,2.33,2.65,2.82,5.6,3.36,8.94.06.34-.07.69-.33.92Z"/>
          <path class="cls-3" d="m209.12,50.99c-1.99-6.36,2.07-11.43,8.39-12.79,4.26-.92,7.98.04,11.17,2.87,4.17,3.71,5.68,8.6,4.52,14.69-.47,2.45-1.79,3.92-3.98,4.39-5.19,1.13-10.47,1.58-15.85,1.33-.82-.04-1.52-.61-1.73-1.4-.82-3.05-1.38-5.41-2.52-9.09Zm16.77.7c0-3.7-3-6.7-6.7-6.7s-6.7,3-6.7,6.7,3,6.7,6.7,6.7,6.7-3,6.7-6.7Z"/>
          <path class="cls-6" d="m100.14,44.48c.72,3.03-1.27,6.09-4.43,6.84-3.17.75-6.32-1.09-7.04-4.11-.72-3.03,1.27-6.09,4.43-6.84,3.17-.75,6.32,1.09,7.04,4.11Zm-1.15.16c-.6-2.28-3.09-3.6-5.57-2.95-2.47.66-3.97,3.04-3.36,5.32.6,2.28,3.09,3.6,5.57,2.95,2.47-.66,3.97-3.04,3.36-5.32Z"/>
          <path class="cls-2" d="m98.98,44.64c.61,2.29-.89,4.67-3.36,5.32-2.47.65-4.96-.67-5.57-2.95-.61-2.29.89-4.67,3.36-5.32,2.47-.65,4.96.67,5.57,2.95Z"/>
          <path class="cls-4" d="m194.04,43.27c3.91.42,11.9,2.56,13.31,6.63,2.17,6.26,3.8,12.23,4.19,18.99.76,13.01,1.08,28.88-7.06,40.01-.83,1.15-2.13,2.9-3.9,5.26-3.24,4.34-6.48,6.62-12.06,8.08-15.07,3.95-28.35,3.57-40.98-5.49-10.94-7.84-15.34-22.97-15.14-35.73.1-6.36,1.42-11.81,3.95-16.36,6.57-11.79,20.24-18.83,33.12-20.8,8.2-1.26,16.39-1.46,24.57-.59Zm-16.21,67.65c15.33-2.62,25.59-17.37,22.93-32.94-2.66-15.58-17.25-26.08-32.57-23.46-15.33,2.62-25.59,17.37-22.93,32.94,2.66,15.58,17.25,26.08,32.57,23.46Z"/>
          <path class="cls-6" d="m225.89,51.69c0,3.7-3,6.7-6.7,6.7s-6.7-3-6.7-6.7,3-6.7,6.7-6.7,6.7,3,6.7,6.7Zm-1.1,0c0-3.01-2.44-5.45-5.45-5.45s-5.45,2.44-5.45,5.45,2.44,5.45,5.45,5.45,5.45-2.44,5.45-5.45Z"/>
          <path class="cls-2" d="m224.79,51.7c0,3.01-2.44,5.45-5.45,5.45s-5.45-2.44-5.45-5.45,2.44-5.45,5.45-5.45,5.45,2.44,5.45,5.45Z"/>
          <path class="cls-9" d="m177.83,110.93c-15.32,2.62-29.91-7.88-32.57-23.46-2.66-15.57,7.6-30.32,22.93-32.94,15.32-2.62,29.91,7.88,32.57,23.46,2.66,15.57-7.6,30.32-22.93,32.94Zm-27.92-15.47c5.83,12.13,19.78,17.12,32.12,12.78,12.79-4.5,19.41-18.01,16.92-31.25-2.63-13.99-15.77-22.98-29.73-20.78-5.88.93-12.03,3.48-16,8.02-7.46,8.53-7.82,21.86-3.31,31.23Z"/>
          <path class="cls-10" d="m182.03,108.23c-12.34,4.34-26.29-.65-32.12-12.78-4.51-9.37-4.15-22.7,3.31-31.23,3.97-4.54,10.12-7.09,16-8.02,13.96-2.2,27.1,6.79,29.73,20.78,2.49,13.24-4.13,26.75-16.92,31.25Zm11.11-25.81c-.09-10.72-9.2-19.33-20.34-19.23-11.14.1-20.09,8.87-20,19.59.09,10.72,9.2,19.33,20.34,19.23,11.14-.1,20.09-8.87,20-19.59Z"/>
          <path class="cls-8" d="m296.15,62.33c8.25,1.54,16.64,2.7,24.76,4.51,21.03,4.67,45.09,10.82,61.81,25.32.96.83.8,1.28-.47,1.33-18.33.73-36.92.08-55.77-1.96-5.95-.65-16.78-.97-32.49-.98-7.55,0-19.33-.48-29.03-.07l-11.75-.3c-.34-.01-.63-.14-.87-.39-4.86-5.05-11.45-5.33-17.93-6.16-.48-.06-.87-.42-.97-.9-1.34-6.87-1.51-13.78-.5-20.73.16-1.07,1.09-1.66,2.79-1.77,20.24-1.27,40.38-.57,60.42,2.1Zm65.04,25.23c-5.68-2.99-12.91-5.48-18.4-7.1-.35-.1-.72.06-.86.39l-1.88,4.2c-.18.4-.06.68.35.85,6.56,2.57,13.53,2.24,20.28,2.93.24.03.43-.01.56-.1.15-.11.25-.24.29-.41.08-.34-.03-.59-.34-.76Z"/>
          <path class="cls-4" d="m231.22,82.95c-.22.19-.5.29-.79.28-4.28-.21-8.76-.53-13.45-.96-2.44-.22-3.67-1.47-3.7-3.74-.05-4.79-.33-9.44-.86-13.95-.06-.51.3-.97.81-1.04l17.37-2.19c.48-.06.88.37.78.85-1.37,6.46-.77,13.11.31,19.55.08.45-.08.85-.47,1.2Z"/>
          <path class="cls-9" d="m296.53,61.28c24.78,3.49,48.24,8.37,70.65,19.31,12.08,5.9,42.75,26.48,10.12,35.75-11.6,3.3-26.06,3.81-39.07,4.6-8.17.51-22.68.43-43.51-.23-15.19-.48-29.31-.22-43.99.12-2.47.05-4.96.15-7.3,1-16.72,6.1-23.42,20.41-23.69,37.45-.18,11.34,1.22,23.21,4.19,35.6,3.44,14.31,6.31,25.55,8.6,33.71,6.71,23.85,11.18,39.99,13.4,48.43.68,2.6,1.38,3.87,4.05,4.85,6.43,2.36,13.01,4.16,19.73,5.39,3.75.69,7.52,1.28,11.3,1.77,10.93,1.41,21.89,2.23,32.89,2.45,22.26.44,47.44,3.6,68.57-3.74,10.66-3.71,16.98-11.44,18.97-23.2.05-.28.03-.56-.04-.84-.22-.8.12-1.6.09-2.23-.03-.87-.18-1.72-.43-2.56-.79-2.63-1.57-5.19-2.34-7.68-.22-.71-.93-1.15-1.66-1.03-3.58.6-.41,4.49.1,6.07.1.3.06.64-.11.92-2.36,3.82-6.88,2.7-10.07.83-1.56-.91-2.65-2.19-3.28-3.82-1.49-3.86-.89-7.57,1.8-11.14.22-.29.03-.71-.33-.74-5.71-.46-10.4,2.13-16.31.68-.34-.09-.54-.3-.59-.64-.39-2.36-.59-6.54-3.79-6.53-5.17.01-10.33.12-15.5.31-5.9.22-7.2-2.55-6.71-7.88.32-3.44,7.56-3.36,9.96-3.36,15.87-.01,31.68-.08,47.41-.23.57-.01,1.02-.5.97-1.07-.7-8.59-1.19-17.16-1.47-25.71-.05-1.65,0-2.96.16-3.93.07-.39.29-.65.67-.76,3.51-1.08,8.42-.57,12.31-.83,1.08-.07,2.01.75,2.08,1.83l1.71,29.51c.04.66.39.99,1.05.98,12.56-.15,25.18-.34,37.86-.57,1.93-.03,3.43.08,4.5.33,4.75,1.1,4.51,7.69.81,9.76-1.17.65-3.1.99-5.8,1.02-6.09.06-12.17.13-18.26.22-1.67.03-3.25.16-4.74.39-.71.11-1.22.74-1.16,1.45l1.39,17.74c.11,1.37.57,1.5,1.38.39,3.4-4.65,11.24-10.23,16.51-4.52,7.28,7.87-9.3,20.47-14.84,23.92-1.08.67-1.6,1.74-1.57,3.2.24,10.04,1.19,19.81.71,29.99-.52,11.07-5.43,17.99-12.81,24.92-.24.23-.1.64.23.67,5.25.49,10.55.86,15.9,1.11,3.28.15,8.5,1.1,10.19,4.38,2.54,4.96,2.21,12.79.17,17.81-4.62,11.37-18.32,17.34-30.1,17.21-8.99-.1-17.99-.23-26.98-.38.85.03,1.43-.1,1.73-.39.33-.31.27-.46-.18-.45-.59.01-1.06-.1-1.41-.33,9.96-.25,19.9-.45,29.82-.6,6.93-.11,13.12-2.21,18.57-6.3,1.06-.8,1.79-1.77,2.2-2.9.91-2.5-1.54-9.08-2.36-11.76-.24-.77-.76-1.15-1.57-1.15l-74.79.39,3.29-.1c.25-.01.45-.2.47-.45l.02-.27c.01-.12-.05-.18-.18-.19l-2.11-.16,71.99-.87c1.43-.02,1.97-.72,1.64-2.11l-.74-3.02c-.37-1.49-1.32-2.29-2.85-2.39-5.91-.38-12.58.05-17.38-.04-24.79-.5-49.57-.52-74.36-.05-4.18.08-9.4.06-15.66-.05-11.9-.21-25.47.33-35.67.22-34.74-.38-69.42,1.21-104.17,1.14-12.92-.03-26.66.67-39.33.76-17.6.13-36.85.06-57.76-.21-13.86-.18-28.72.42-43.12.35-4.81-.03-9.36.06-13.66.26-.87.04-1.32.5-1.36,1.37l-.14,3.02c-.05.94.4,1.44,1.34,1.51,9.55.69,20.54-.16,27.59-.26,32.47-.43,65.2-1.15,97.65-.03l-4.07-.06c-.17,0-.32.11-.37.27l-.1.33c-.04.13.01.21.14.22l3.07.35c-13.49.18-28.55-.13-40.46-.04-27.84.23-55.57.47-83.4,1.29-.92.03-1.62.84-1.51,1.76,1.06,8.8,6.85,15.07,15.35,17.91-.25-.05-.48-.05-.7,0-.21.04-.33.14-.36.3-.03.15,0,.33.08.56-13.26-4.08-18.36-16.53-15.46-29.53.47-2.12,1.62-3.53,3.44-4.24,12.42-4.83,24.94-7.58,37.57-8.26,1.63-.09,2.5-.84,2.6-2.26.63-9.26,1.26-18.51,1.88-27.75.23-3.32.95-7.75,1.17-11.68,1.07-18.99,3.11-37.43,6.1-55.32,1.41-8.38,2.33-14.06,2.77-17.05.78,1.95,1.19,2.55,1.23,1.81-6.73,36.35-10.15,73.24-11.52,110.25-.04.96.71,1.76,1.67,1.78,9.37.27,19.84-.1,28.13.02,13.4.19,26.4.21,40.21.67,17.39.57,34.91.8,52.58.69,1.15-.01,1.61-.57,1.37-1.7-3.43-16.22-8.18-32.43-12.79-48.61-.26-.94-1.11-1.58-2.08-1.59-9.2-.04-17.72-.1-24.51-7.41-4.89-5.27-7.41-11.56-7.55-18.85-.3-15.88,11.69-22.76,25.45-25.34.26-.05.37-.36.19-.56-14.43-15.97-19.14-36.96-13.32-57.68.94-3.33,1.92-6.65,2.93-9.96.58-1.92,2.62-3.71,1.27-5.63.77.45,1.24.87,1.41,1.28.11.25.27.3.49.16l.78-.5c-2.88,6.39-5.09,12.92-6.63,19.57-3.82,16.54.33,33.28,9.96,46.86,2.08,2.93,4.56,6.15,7.68,6.24,5.43.16,10.85.44,16.27.83,7.73.55,21.09.73,22.18,8.47.53,3.81.56,7.23.07,10.24-.33,2.09.24,5.92,1.71,11.49,2.79,10.59,11.21,17.81,21.23,21.34.37.13.73-.2.63-.58-4.98-19.22-10.21-38.38-15.7-57.47-2.42-8.41-4.36-16.98-6.47-25.49-3.21-12.99-4.55-26.16-4.04-39.53.54-14.17,7.45-27.94,20.62-34.24.31-.15.31-.6-.01-.74-.46-.21-.95-.3-1.47-.28-14.7.5-29.74.43-43.98,4.72.17-.66.18-1.24.01-1.74,6.37-1.76,12.36-2.8,17.97-3.12,26.83-1.53,54.31-2.01,82.43-1.46,3.73.07,8.94.09,15.65.04,18.16-.12,36.64.56,55.7-2.14,7.77-1.1,12.63-2.4,18.47-5.07,2.04-.93,6.37-4.19,6.33-6.66-.01-.85-.45-1.29-1.31-1.32l-99.24-2.71c.24-.21.36-.38.37-.53,0-.08-.13-.28-.39-.6,12.11-.25,20.61-.25,25.49-.02,24.24,1.13,48.49,1.84,72.75,2.11.55.01,1.02-.07,1.42-.23.39-.16.56-.6.39-.98-1.28-2.77-3.31-6.58-6.81-6.44-17.94.73-35.83.16-53.68-1.73-5.33-.57-11.18-.82-16.32-.91-11.37-.2-22.75-.37-34.13-.5-.08,0-.13-.04-.14-.11-.01-.04-.01-.08-.02-.11.23-.08.5-.11.8-.1.14.01.21-.16.11-.26l-.37-.37c-.16-.16-.35-.24-.57-.24l-13.7-.05c9.7-.41,21.48.07,29.03.07,15.71.01,26.54.33,32.49.98,18.85,2.04,37.44,2.69,55.77,1.96,1.27-.05,1.43-.5.47-1.33-16.72-14.5-40.78-20.65-61.81-25.32-8.12-1.81-16.51-2.97-24.76-4.51.4-.07.68-.24.85-.5.09-.13.05-.2-.11-.21-.21-.02-.33-.13-.36-.34Zm109.97,132.44l-5.5.58c-.51.05-.88.49-.85,1l1.6,27.81c.05.76.67,1.37,1.43,1.39l6.36.19,4.67-.19c.5-.02.88-.44.86-.94l-1.29-28.79c-.05-1.05-.98-1.83-2.02-1.7l-5.26.65Zm-62.97,34.64l.03,4.5c0,1.07.88,1.94,1.95,1.93l110.62-.77c3.1-.03,5.61-1.73,5.59-3.81v-.84c-.02-2.08-2.55-3.75-5.65-3.73l-110.62.77c-1.07.01-1.93.88-1.92,1.95Zm-154.25,7.74c2.19,1.77,3.65,2.77,4.39,3.01,6.36,2.07,10.16,6.22,11.39,12.45.83,4.21,1.91,8.58,3.13,11.99,10.7,29.8,41.42,32.79,68.33,36.74,4.21.62,8.24,1.04,12.07,1.25,31.36,1.73,61.64,2.14,91.83-1.62,2.73-.34,5.2-1.03,7.4-2.08,7.7-3.65,13.85-8.08,18.46-13.29,8.18-9.27,9.76-21.79,8.63-33.53-.1-1.08-.48-2.52-1.15-4.31-4.16-5.45-9.74-7.82-16.73-7.11-7.13.73-15.45,4.79-12.1,13.81,1.27,3.42,4.11,4.94,8.51,4.56,1.14-.09,1.87-1.27,1.44-2.33-.95-2.36-2.89-3.52-.38-6.1,2.47-2.55,5.07-2.72,7.81-.53.28.22.22.66-.11.8-2.23.94-1.77,2.68-.98,4.62,3.44,8.41.79,18.24-4.68,25.14-5.57,7.03-16.22,11.02-25.06,12.5-18.78,3.14-38.35,1.22-57.58.85-20.35-.38-39.31-1.94-58.68-7.71-3.31-.98-6.67-2.52-10.27-3.89-16.77-6.41-25.83-18.58-25.05-36.94.19-4.41.19-6.99,0-7.73-.77-3.11-2.92-5.01-6.43-5.68-8.19-1.57-18.35-2.39-30.5-2.44-.41,0-.63.19-.66.58-.02.21.06.41.21.56l6.75,6.43Zm-34.02,8.71c-2.73,7.67-.42,18.26,4.8,24.39,7.57,8.88,18.4,8.32,28.97,7.09.5-.06.53-.21.09-.45-4.81-2.67-9.97-4.82-13.08-9.85-7.28-11.8,1.06-23.78,13-26.51.58-.14.75-.89.27-1.25-3.37-2.55-6.42-5.36-9.15-8.42-.71-.79-1.68-1.06-2.92-.81-3.71.76-6.82,1.65-9.33,2.66-6.2,2.51-10.42,6.89-12.65,13.15Zm222.19-9.09l-7.76.06c-.65,0-1.18.53-1.17,1.19v1.84c.02,2.01,1.75,3.62,3.87,3.61l2.44-.02c2.12-.01,3.83-1.66,3.82-3.67l-.02-1.84c0-.65-.53-1.17-1.18-1.17Zm13.08,4.13c3.2-1.11,6.85-1.57,10.95-1.38.54.02.99-.43.96-.97v-.37c-.06-.95-.56-1.42-1.51-1.42l-20.17.12c-.38.01-.7.29-.74.67l-.43,3.74c-.05.36.11.57.47.63,3.39.56,6.88.22,10.47-1.02Zm41.71,45.66c-.46-4.99-.24-10.31-.66-15.49-.49-6.17-.98-12.33-1.46-18.49-.38-4.94-.73-9.84-1.43-14.57-.09-.59-.59-1.03-1.18-1.05-7.28-.26-14.46-.18-21.53.23-.72.04-1.23.31-1.53.8-.38.64-.13,1.47.55,1.79,5.08,2.34,9.39,4.51,10.82,10.78,1.6,7.03.5,15.41-1.24,22.33-2.99,11.9-13.78,21.08-24.33,26.02-1.24.58-1.18.99.17,1.24,10.2,1.83,16.46,7.39,17.64,18.16.69,6.24-1.49,11.13-6.52,14.66-1.45,1.03-1.29,1.55.48,1.56,4.18.04,8.75-.03,13.7-.2,1.45-.05,2.86-.57,4.22-1.58,7.69-5.67,11.93-13.23,12.73-22.68.55-6.52.4-14.36-.43-23.51Zm-250.14-15.86c6.81,4.77,20.63,9.17,27.83,3.27.58-.47.72-1.29.35-1.94l-2.34-4.03c-.38-.66-1.24-.85-1.86-.41-6.03,4.21-11.63,7.49-18.61,3.47-10.99-6.36-5.6-21.26,6.37-21.78,2.7-.11,5.67.96,8.56,1.36.48.07.83-.43.61-.86-3.37-6.53-8.52-8.84-15.45-6.95-12.99,3.56-17.36,19.52-5.46,27.87Zm24.21-6.14c.08-.09.11-.19.08-.31-.75-2.85-1.49-5.74-2.24-8.68-.31-1.21-.8-2.02-1.47-2.43-6.6-4.02-18.34-2.96-19.26,6.68-.39,4.17,1.07,7.31,4.4,9.41,6.42,4.06,13.91.51,18.49-4.67Zm226.99,7.08c.11,1.26.8,1.8,2.05,1.61,5.3-.8,19.98-16.3,12.47-21.02-6.05-3.8-10.64,2.09-14.49,6.08-.71.73-1.03,1.48-.98,2.25.28,3.61.6,7.3.95,11.08Zm-245.06,10.12l13.08,48.99c.17.67.61,1,1.3,1.01l11.25.08c.14,0,.24-.14.18-.27-8.31-17.02,2.37-34.13,20.33-36.87.41-.06.56-.57.26-.84-.17-.15-.4-.31-.71-.48-8.6-4.87-15.8-9.27-21.73-17.44-.28-.38-.8-.5-1.22-.28-2.04,1.05-4.3,1.71-6.78,1.98-4.99.54-9.87,1.22-14.63,2.03-.97.17-1.59,1.14-1.33,2.09Zm46.37,41.68c2.72,6.01,7.26,9.03,13.61,9.07,9.5.07,19,.23,28.51.48,25.27.68,50.54.34,75.82.99,6.53.17,13.07.25,19.63.24.65,0,.78-.26.38-.78-4.7-6.07-7.34-10.22-5.39-18.24.29-1.24.49-2.5.59-3.78.03-.34-.07-.64-.29-.91-3.21-3.98-7.46-5.89-12.74-5.74-22.09.63-44.17.38-66.24-.74-8.72-.44-15.83-1.67-23.78-2.88-2.91-.44-5.41-.61-7.48-.52-11.52.52-29.62,7.4-22.62,22.81Zm172.11-3.67c.32-10.41-8.26-17.38-18.01-18.2-5.39-.46-12.94,5.16-16.85,8.53-5.83,5.04-4.83,14.73-.15,19.99,2.06,2.32,3.52,4.07,6.27,4.25,6.18.4,12.35.28,18.51-.37.79-.09,1.71-.47,2.74-1.14,4.95-3.25,7.31-7.09,7.49-13.06Zm-28.15-16.21c.26-.18.12-.59-.2-.57l-16,1.14c-.3.03-.4.41-.15.57l7.3,4.77c.1.07.24.06.34-.01l8.71-5.9Zm-243.22,28.56c-13.29-.14-26.58-.24-39.87-.3-3.25-.01-9.59-.06-19-.14-13.59-.11-27.48,2.65-41.68,8.29-.77.31-1.44.74-2.02,1.31-.42.41-.15,1.13.44,1.17,13.02.84,26.46.13,39.51-.1,23.39-.42,46.84-.04,70.25-.03,18.86.02,42.62-.67,56.75-.62,18.79.06,31.63-.07,38.5-.39,21.31-.98,38.97-.71,58.5-.64,8.14.03,17.99-.42,27-.36,31.2.21,62.38-.35,93.58-.02,5.13.06,11.86-.43,17.85-.13.33.02.63.13.88.34,1.09.89,1.79,1.95,2.11,3.19,1.5,5.83,3.07,11.55,4.7,17.16.21.71,1.11.92,1.6.37,3.8-4.22,5.52-17.36,1.1-21.56-1.33-1.27-3.11-1.99-5.32-2.16-17.69-1.33-34.31-1.93-50.77-1.47-4.16.11-9.24,0-15.23-.31-12.23-.65-38.65-.96-79.25-.95-13.93,0-29.72-.76-41.75-1.03-2.87-.06-6.16.29-9.32.04-7.54-.6-17.2-.31-22.54-.38-20.56-.28-41.12-.48-61.68-.61-7.56-.05-16.22-.58-24.34-.67Z"/>
          <path class="cls-9" d="m193.14,82.43c.09,10.72-8.86,19.49-20,19.59-11.14.1-20.25-8.51-20.34-19.23-.09-10.72,8.86-19.49,20-19.59,11.14-.1,20.25,8.51,20.34,19.23Zm-1.37-.92c-.63-10.03-9.55-17.63-19.93-16.97-10.38.65-18.28,9.31-17.65,19.34.63,10.03,9.55,17.63,19.93,16.97,10.38-.65,18.28-9.31,17.65-19.34Z"/>
          <path class="cls-3" d="m191.77,81.51c.63,10.02-7.27,18.68-17.65,19.34-10.38.66-19.3-6.94-19.93-16.97-.63-10.02,7.27-18.68,17.65-19.34,10.38-.66,19.3,6.94,19.93,16.97Zm-10.84.69c0-4.56-3.7-8.26-8.26-8.26s-8.26,3.7-8.26,8.26,3.7,8.26,8.26,8.26,8.26-3.7,8.26-8.26Z"/>
          <path class="cls-5" d="m180.93,82.2c0,4.56-3.7,8.26-8.26,8.26s-8.26-3.7-8.26-8.26,3.7-8.26,8.26-8.26,8.26,3.7,8.26,8.26Z"/>
          <path class="cls-5" d="m94.81,173.51l.49-1.9c.09-.35.11-.71.07-1.06-.23-2.05.66-3.18.74-5.03.05-1.02.18-1.68.4-1.98.79-1.1.51-2.25.92-3.32,2.26-5.95,3.48-12.38,5.49-18.46.05-.15.17-.83.36-2.04.19-1.18.83-1.61,1.15-2.63.54-1.7,1.11-3.39,1.72-5.06.4-1.09.95-2.79,1.64-5.09.87-2.86,2.01-5.62,3.42-8.27.15-.28.2-.6.15-.91-.09-.57.05-1.04.42-1.42.2-.21.3-.46.29-.75-.01-.81.3-1.31.95-1.5.2-.05.34-.23.34-.43v-.66c0-.35.19-.67.49-.85.31-.19.49-.45.52-.78,0-.15.05-.29.12-.43l6.06-12.72c.07-.16.17-.3.29-.43.21-.23.3-.5.28-.81-.02-.35.07-.68.27-.97,2.09-2.95,3.66-6.36,4.73-10.23.17-.61.26-1.17.27-1.68.03-1.59.59-2.71,1.51-3.89.75-.98,1.01-2.16,1.93-3.05.26-.25.48-.22.66.1.43.75.55,1.51.37,2.26-.64,2.7-1.17,4.55-.59,7.32.59,2.77,1.04,4.67,1.36,5.68.35,1.11.51,2.16.5,3.13,0,.31.03.61.12.9.14.46.37.87.69,1.22.19.2.31.46.34.73l.52,4.03c.04.31.18.6.4.81,1.34,1.33,2.25,2.89,2.74,4.7.08.3.27.57.52.75,1.67,1.2,2.84,2.77,3.53,4.71.12.33.33.62.6.84,1.39,1.11,1.76,2.7,3,3.7,1.09.87,2.26,1.61,3.51,2.22,1.55.75,2.71,2.53,3.99,2.93,2.96.91,5.92,1.83,8.88,2.74,3.43,1.05,7.95,1.35,13.57.9.65-.05,1.75-.29,3.3-.73,1.47-.41,3.09-.37,4.5-.75,2.11-.58,4.3-1.06,6.55-1.45,1.74-.3,2.07.25.98,1.64l-1.85,2.38c-.11.14-.16.3-.17.47-.01.46-.26.59-.75.38-.42-.17-.91-.05-1.21.3-1.49,1.8-3.08,3.55-4.75,5.24-.71.72-1.47,1.82-2.26,3.31-.9,1.69-2.34,2.89-3.19,4.47-.97,1.82-1.91,3.65-2.81,5.5-.14.28-.33.52-.57.72-.44.36-.69.81-.74,1.35-.04.37-.22.64-.53.82-1.62.93-3.67,1.29-5.09,1.95-5.47,2.53-10.95,5.02-16.45,7.49-.1.05-.57.35-1.41.91-1.49,1.01-3.01,1.07-4.61,2.39-1.11.92-2.03,1.58-2.75,1.99-2.07,1.17-4.13,2.37-6.16,3.6-1.31.8-2.52,1.1-3.95,1.51-1.35.39-2.5,1.31-3.8,1.87-.3.13-.56.31-.78.56-1.21,1.37-2.72,2.27-4.53,2.7-.29.07-.53.22-.72.46-.11.14-.21.28-.3.43-.09.14-.2.25-.31.33-2.82,1.95-5.4,4.17-7.75,6.68-1.55,1.65-3.68,2.64-5.11,4.39-1.35,1.64-2.62,2.54-4.12,3.78-.86.71-1.6,1.44-2.22,2.19-2.12,2.58-3.97,5.34-5.55,8.28-.12.21-.28.38-.47.51-.29.18-.5.43-.61.75-.41,1.13-1.04,2.11-1.89,2.94-.17.17-.35.31-.56.43-.33.19-.51.46-.53.82-.05.62-.66,1.03-1.25.83-.51-.17-.92.03-1.23.61-.16.32-.63.27-.73-.08-.26-.92-.36-1.85-.29-2.79.02-.37.16-.69.42-.96.67-.69.94-1.52.81-2.5-.04-.32.05-.64.27-.87,1.1-1.25,1.5-2.7,1.2-4.35-.05-.29-.02-.58.09-.85.49-1.19.97-2.26.93-3.61-.09-2.81.16-5.59.76-8.35.03-.17.14-.36.31-.57.08-.1.13-.22.15-.34l1.47-9.83c.03-.14.11-.23.25-.27.1-.03.19-.01.26.05.01.01.01,0,.02-.05Z"/>
          <path class="cls-6" d="m342.79,80.46c5.49,1.62,12.72,4.11,18.4,7.1.31.17.42.42.34.76-.04.17-.14.3-.29.41-.13.09-.32.13-.56.1-6.75-.69-13.72-.36-20.28-2.93-.41-.17-.53-.45-.35-.85l1.88-4.2c.14-.33.51-.49.86-.39Z"/>
          <path class="cls-10" d="m251.89,92.4c-.06,9.39-14.51,16.34-22.05,18.05-8.95,2.03-17.97,4-27.07,5.9-.48.1-.85-.41-.61-.84,1.65-2.88,3.88-5.28,5.54-8.16,3.76-6.51,5.29-15.32,5.73-22.7.04-.61.57-1.07,1.18-1.01,6.69.61,13.48,1.08,20.37,1.42,4.93.24,8.57.83,10.91,1.78,1.97.79,6.01,3.11,6,5.56Z"/>
          <path class="cls-10" d="m278.69,91.5s0,.07.02.11c.01.07.06.11.14.11,11.38.13,22.76.3,34.13.5,5.14.09,10.99.34,16.32.91,17.85,1.89,35.74,2.46,53.68,1.73,3.5-.14,5.53,3.67,6.81,6.44.17.38,0,.82-.39.98-.4.16-.87.24-1.42.23-24.26-.27-48.51-.98-72.75-2.11-4.88-.23-13.38-.23-25.49.02l-37.59.31c-.63,0-1.07-.62-.86-1.21l2.42-6.84c.29-.83.88-1.24,1.76-1.24l23.22.06Z"/>
          <path class="cls-3" d="m289.76,101.55l99.24,2.71c.86.03,1.3.47,1.31,1.32.04,2.47-4.29,5.73-6.33,6.66-5.84,2.67-10.7,3.97-18.47,5.07-19.06,2.7-37.54,2.02-55.7,2.14-6.71.05-11.92.03-15.65-.04-28.12-.55-55.6-.07-82.43,1.46-5.61.32-11.6,1.36-17.97,3.12,1.79-2.41,4.18-4.09,7.15-5.04,9.42-3.03,18.95-4.77,28.56-7.01,7.04-1.64,13.3-4.69,18.78-9.14.51-.42,1.15-.65,1.81-.66l39.7-.59Z"/>
          <path class="cls-3" d="m171.7,154.3c3.19-6.77,14.31-27.1,22.05-28.57,14.24-4.29,29.28-4.22,43.98-4.72.52-.02,1.01.07,1.47.28.32.14.32.59.01.74-13.17,6.3-20.08,20.07-20.62,34.24-.51,13.37.83,26.54,4.04,39.53,2.11,8.51,4.05,17.08,6.47,25.49,5.49,19.09,10.72,38.25,15.7,57.47.1.38-.26.71-.63.58-10.02-3.53-18.44-10.75-21.23-21.34-1.47-5.57-2.04-9.4-1.71-11.49.49-3.01.46-6.43-.07-10.24-1.09-7.74-14.45-7.92-22.18-8.47-5.42-.39-10.84-.67-16.27-.83-3.12-.09-5.6-3.31-7.68-6.24-9.63-13.58-13.78-30.32-9.96-46.86,1.54-6.65,3.75-13.18,6.63-19.57Z"/>
          <path class="cls-3" d="m169.02,153.36c1.35,1.92-.69,3.71-1.27,5.63-1.01,3.31-1.99,6.63-2.93,9.96-5.82,20.72-1.11,41.71,13.32,57.68.18.2.07.51-.19.56-13.76,2.58-25.75,9.46-25.45,25.34.14,7.29,2.66,13.58,7.55,18.85,6.79,7.31,15.31,7.37,24.51,7.41.97.01,1.82.65,2.08,1.59,4.61,16.18,9.36,32.39,12.79,48.61.24,1.13-.22,1.69-1.37,1.7-17.67.11-35.19-.12-52.58-.69-13.81-.46-26.81-.48-40.21-.67-8.29-.12-18.76.25-28.13-.02-.96-.02-1.71-.82-1.67-1.78,1.37-37.01,4.79-73.9,11.52-110.25,5.05-11.16,11.88-19.76,21.64-28.77,2.51-2.33,6.92-5.85,13.22-10.56,14.47-10.83,30.19-19.03,47.17-24.59Z"/>
          <path class="cls-2" d="m96.44,156.3c.07,1.88-.28,3.62-1.07,5.22-.03-1.71.33-3.45,1.07-5.22Z"/>
          <path class="cls-11" d="m409.54,224.69l-1.22-30.44c-.01-.29-.16-.47-.45-.53-.4-.09-.86-.09-1.37,0l5.26-.65c1.04-.13,1.97.65,2.02,1.7l1.29,28.79c.02.5-.36.92-.86.94l-4.67.19Z"/>
          <path class="cls-3" d="m406.5,193.72c.51-.09.97-.09,1.37,0,.29.06.44.24.45.53l1.22,30.44-6.36-.19c-.76-.02-1.38-.63-1.43-1.39l-1.6-27.81c-.03-.51.34-.95.85-1l5.5-.58Z"/>
          <path class="cls-10" d="m343.53,228.36c-.01-1.07.85-1.94,1.92-1.95l110.62-.77c3.1-.02,5.63,1.65,5.65,3.73v.84c.02,2.08-2.49,3.78-5.59,3.81l-110.62.77c-1.07.01-1.95-.86-1.95-1.93l-.03-4.5Z"/>
          <path class="cls-3" d="m413.76,246.71c-.76.89-2.13,1.47-4.12,1.74-.38.05-.57.26-.57.65.02,4.73.03,9.45.02,14.17-.03,13.92-10.42,24.54-23.09,29.15-1.29.47-2.01,1.16-2.92,1.49-7.62,2.79-14.65,4.2-21.1,4.22-4.79.01-9.59.02-14.39.01-.08,0-.15.01-.22.04-.08.03-.16.07-.23.1-.11.06-.23.09-.34.09-18.5.25-32.95-1.01-49.48-1.44-1.57-.04-3.29-.18-5.15-.42-4.05-.52-7.31-.14-10.9-.81-2.93-.55-5.43-.63-8.19-1.07-.31-.05-.59-.18-.84-.39-.19-.15-.44-.26-.77-.33-2.19-.45-4.12-.74-5.77-.89-2.48-.22-4.65-1.26-7.21-1.47-.18-.01-.36-.08-.5-.18-.69-.49-1.47-.63-2.34-.42-.26.06-.53.03-.77-.09-1.93-.99-4.28-1.24-6.04-2.26-.85-.49-1.47-.81-1.86-.95-3.11-1.08-6.94-2.58-11.51-4.49-2.05-.87-3.44-2.48-4.88-3.45-8.2-5.51-13.44-13.15-15.73-22.94-.77-3.28-.31-7.07-1.56-10.23-1.68-4.26-4.27-7.8-8.74-9.48-4.88-1.83-9.97-2.15-15.28-.96l-6.75-6.43c-.15-.15-.23-.35-.21-.56.03-.39.25-.58.66-.58,12.15.05,22.31.87,30.5,2.44,3.51.67,5.66,2.57,6.43,5.68.18.74.18,3.32,0,7.73-.78,18.36,8.28,30.53,25.05,36.94,3.6,1.37,6.96,2.91,10.27,3.89,19.37,5.77,38.33,7.33,58.68,7.71,19.23.37,38.8,2.29,57.58-.85,8.84-1.48,19.49-5.47,25.06-12.5,5.47-6.9,8.12-16.73,4.68-25.14-.79-1.94-1.25-3.68.98-4.62.33-.14.39-.58.11-.8-2.74-2.19-5.34-2.02-7.81.53-2.51,2.58-.57,3.74.38,6.1.43,1.06-.3,2.24-1.44,2.33-4.4.38-7.24-1.14-8.51-4.56-3.35-9.02,4.97-13.08,12.1-13.81,6.99-.71,12.57,1.66,16.73,7.11Z"/>
          <path class="cls-4" d="m160.06,269.2c-5.22-6.13-7.53-16.72-4.8-24.39,2.23-6.26,6.45-10.64,12.65-13.15,2.51-1.01,5.62-1.9,9.33-2.66,1.24-.25,2.21.02,2.92.81,2.73,3.06,5.78,5.87,9.15,8.42.48.36.31,1.11-.27,1.25-11.94,2.73-20.28,14.71-13,26.51,3.11,5.03,8.27,7.18,13.08,9.85.44.24.41.39-.09.45-10.57,1.23-21.4,1.79-28.97-7.09Z"/>
          <path class="cls-11" d="m413.76,246.71c.67,1.79,1.05,3.23,1.15,4.31,1.13,11.74-.45,24.26-8.63,33.53-4.61,5.21-10.76,9.64-18.46,13.29-2.2,1.05-4.67,1.74-7.4,2.08-30.19,3.76-60.47,3.35-91.83,1.62-3.83-.21-7.86-.63-12.07-1.25-26.91-3.95-57.63-6.94-68.33-36.74-1.22-3.41-2.3-7.78-3.13-11.99-1.23-6.23-5.03-10.38-11.39-12.45-.74-.24-2.2-1.24-4.39-3.01,5.31-1.19,10.4-.87,15.28.96,4.47,1.68,7.06,5.22,8.74,9.48,1.25,3.16.79,6.95,1.56,10.23,2.29,9.79,7.53,17.43,15.73,22.94,1.44.97,2.83,2.58,4.88,3.45,4.57,1.91,8.4,3.41,11.51,4.49.39.14,1.01.46,1.86.95,1.76,1.02,4.11,1.27,6.04,2.26.24.12.51.15.77.09.87-.21,1.65-.07,2.34.42.14.1.32.17.5.18,2.56.21,4.73,1.25,7.21,1.47,1.65.15,3.58.44,5.77.89.33.07.58.18.77.33.25.21.53.34.84.39,2.76.44,5.26.52,8.19,1.07,3.59.67,6.85.29,10.9.81,1.86.24,3.58.38,5.15.42,16.53.43,30.98,1.69,49.48,1.44.11,0,.23-.03.34-.09.07-.03.15-.07.23-.1.07-.03.14-.04.22-.04,4.8.01,9.6,0,14.39-.01,6.45-.02,13.48-1.43,21.1-4.22.91-.33,1.63-1.02,2.92-1.49,12.67-4.61,23.06-15.23,23.09-29.15.01-4.72,0-9.44-.02-14.17,0-.39.19-.6.57-.65,1.99-.27,3.36-.85,4.12-1.74Z"/>
          <path class="cls-8" d="m377.45,235.72c.65,0,1.18.52,1.18,1.17l.02,1.84c.01,2.01-1.7,3.66-3.82,3.67l-2.44.02c-2.12,0-3.85-1.6-3.86-3.61v-1.84c-.02-.66.51-1.19,1.16-1.19l7.76-.06Z"/>
          <path class="cls-11" d="m390.53,239.85c-3.59,1.24-7.08,1.58-10.47,1.02-.36-.06-.52-.27-.47-.63l.43-3.74c.04-.38.36-.66.74-.67l20.17-.12c.95,0,1.45.47,1.5,1.42v.37c.04.54-.41.99-.95.97-4.1-.19-7.75.27-10.95,1.38Z"/>
          <path class="cls-10" d="m432.24,285.51c.83,9.15.98,16.99.43,23.51-.8,9.45-5.04,17.01-12.73,22.68-1.36,1.01-2.77,1.53-4.22,1.58-4.95.17-9.52.24-13.7.2-1.77-.01-1.93-.53-.48-1.56,5.03-3.53,7.21-8.42,6.52-14.66-1.18-10.77-7.44-16.33-17.64-18.16-1.35-.25-1.41-.66-.17-1.24,10.55-4.94,21.34-14.12,24.33-26.02,1.74-6.92,2.84-15.3,1.24-22.33-1.43-6.27-5.74-8.44-10.82-10.78-.68-.32-.93-1.15-.55-1.79.3-.49.81-.76,1.53-.8,7.07-.41,14.25-.49,21.53-.23.59.02,1.09.46,1.18,1.05.7,4.73,1.05,9.63,1.43,14.57.48,6.16.97,12.32,1.46,18.49.42,5.18.2,10.5.66,15.49Z"/>
          <path class="cls-7" d="m182.1,269.65c-11.9-8.35-7.53-24.31,5.46-27.87,6.93-1.89,12.08.42,15.45,6.95.22.43-.13.93-.61.86-2.89-.4-5.86-1.47-8.56-1.36-11.97.52-17.36,15.42-6.37,21.78,6.98,4.02,12.58.74,18.61-3.47.62-.44,1.48-.25,1.86.41l2.34,4.03c.37.65.23,1.47-.35,1.94-7.2,5.9-21.02,1.5-27.83-3.27Z"/>
          <path class="cls-4" d="m206.31,263.51c-4.58,5.18-12.07,8.73-18.49,4.67-3.33-2.1-4.79-5.24-4.4-9.41.92-9.64,12.66-10.7,19.26-6.68.67.41,1.16,1.22,1.47,2.43.75,2.94,1.49,5.83,2.24,8.68.03.12,0,.22-.08.31Z"/>
          <path class="cls-4" d="m433.3,270.59c-.35-3.78-.67-7.47-.95-11.08-.05-.77.27-1.52.98-2.25,3.85-3.99,8.44-9.88,14.49-6.08,7.51,4.72-7.17,20.22-12.47,21.02-1.25.19-1.94-.35-2.05-1.61Z"/>
          <path class="cls-10" d="m188.24,280.71c-.26-.95.36-1.92,1.33-2.09,4.76-.81,9.64-1.49,14.63-2.03,2.48-.27,4.74-.93,6.78-1.98.42-.22.94-.1,1.22.28,5.93,8.17,13.13,12.57,21.73,17.44.31.17.54.33.71.48.3.27.15.78-.26.84-17.96,2.74-28.64,19.85-20.33,36.87.06.13-.04.27-.18.27l-11.25-.08c-.69-.01-1.13-.34-1.3-1.01l-13.08-48.99Z"/>
          <path class="cls-7" d="m234.61,322.39c-7-15.41,11.1-22.29,22.62-22.81,2.07-.09,4.57.08,7.48.52,7.95,1.21,15.06,2.44,23.78,2.88,22.07,1.12,44.15,1.37,66.24.74,5.28-.15,9.53,1.76,12.74,5.74.22.27.32.57.29.91-.1,1.28-.3,2.54-.59,3.78-1.95,8.02.69,12.17,5.39,18.24.4.52.27.78-.38.78-6.56,0-13.1-.07-19.63-.24-25.28-.65-50.55-.31-75.82-.99-9.51-.25-19.01-.41-28.51-.48-6.35-.04-10.89-3.06-13.61-9.07Z"/>
          <path class="cls-4" d="m388.71,300.52c9.75.82,18.33,7.79,18.01,18.2-.18,5.97-2.54,9.81-7.49,13.06-1.03.67-1.95,1.05-2.74,1.14-6.16.65-12.33.77-18.51.37-2.75-.18-4.21-1.93-6.27-4.25-4.68-5.26-5.68-14.95.15-19.99,3.91-3.37,11.46-8.99,16.85-8.53Z"/>
          <path class="cls-4" d="m378.57,302.51l-8.71,5.9c-.1.07-.24.08-.34.01l-7.3-4.77c-.25-.16-.15-.54.15-.57l16-1.14c.32-.02.46.39.2.57Z"/>
          <path class="cls-3" d="m135.35,331.07c8.12.09,16.78.62,24.34.67,20.56.13,41.12.33,61.68.61,5.34.07,15-.22,22.54.38,3.16.25,6.45-.1,9.32-.04,12.03.27,27.82,1.03,41.75,1.03,40.6-.01,67.02.3,79.25.95,5.99.32,11.07.42,15.23.31,16.46-.46,33.08.14,50.77,1.47,2.21.17,3.99.89,5.32,2.16,4.42,4.2,2.7,17.34-1.1,21.56-.49.55-1.39.34-1.6-.37-1.63-5.61-3.2-11.33-4.7-17.16-.32-1.24-1.02-2.3-2.11-3.19-.25-.21-.55-.32-.88-.34-5.99-.3-12.72.19-17.85.13-31.2-.33-62.38.23-93.58.02-9.01-.06-18.86.39-27,.36-19.53-.07-37.19-.34-58.5.64-6.87.32-19.71.45-38.5.39-14.13-.05-37.89.64-56.75.62-23.41-.01-46.86-.39-70.25.03-13.05.23-26.49.94-39.51.1-.59-.04-.86-.76-.44-1.17.58-.57,1.25-1,2.02-1.31,14.2-5.64,28.09-8.4,41.68-8.29,9.41.08,15.75.13,19,.14,13.29.06,26.58.16,39.87.3Z"/>
          <path class="cls-2" d="m364.01,349.07l-205.99-.4c-32.45-1.12-65.18-.4-97.65.03-7.05.1-18.04.95-27.59.26-.94-.07-1.39-.57-1.34-1.51l.14-3.02c.04-.87.49-1.33,1.36-1.37,4.3-.2,8.85-.29,13.66-.26,14.4.07,29.26-.53,43.12-.35,20.91.27,40.16.34,57.76.21,12.67-.09,26.41-.79,39.33-.76,34.75.07,69.43-1.52,104.17-1.14,10.2.11,23.77-.43,35.67-.22,6.26.11,11.48.13,15.66.05,24.79-.47,49.57-.45,74.36.05,4.8.09,11.47-.34,17.38.04,1.53.1,2.48.9,2.85,2.39l.74,3.02c.33,1.39-.21,2.09-1.64,2.11l-71.99.87Z"/>
          <path class="cls-6" d="m364.01,349.07l2.11.16c.13,0,.19.07.18.19l-.02.27c-.02.25-.22.44-.47.45l-3.29.1c-28.19-.09-56.35.6-84.54.12-5.14-.09-11.8-.15-19.99-.18-32.18-.12-57.6-.48-101.3-.4l-3.07-.35c-.13,0-.18-.09-.14-.22l.1-.33c.05-.16.2-.27.37-.27l4.07.06,205.99.4Z"/>
          <path class="cls-10" d="m156.69,349.78c43.7-.08,69.12.28,101.3.4,8.19.03,14.85.09,19.99.18,28.19.48,56.35-.21,84.54-.12l74.79-.39c.81,0,1.33.38,1.57,1.15.82,2.68,3.27,9.26,2.36,11.76-.41,1.13-1.14,2.1-2.2,2.9-5.45,4.09-11.64,6.19-18.57,6.3-9.92.15-19.86.35-29.82.6-10.79-.27-21.6-.24-32.42.08-37.84,1.12-77.78-1.12-113.48-.26-12.99.31-23.97.45-32.94.42-10.7-.04-22.49.66-32.33.23-32.79-1.43-63.56-.18-92.63-.62-4.23-.07-9.47-.01-15.73.16-8.55.23-16.5.44-24.45-1.87-8.5-2.84-14.29-9.11-15.35-17.91-.11-.92.59-1.73,1.51-1.76,27.83-.82,55.56-1.06,83.4-1.29,11.91-.09,26.97.22,40.46.04Z"/>
          <path class="cls-6" d="m46.67,370.7c7.95,2.31,15.9,2.1,24.45,1.87,6.26-.17,11.5-.23,15.73-.16,29.07.44,59.84-.81,92.63.62,9.84.43,21.63-.27,32.33-.23,8.97.03,19.95-.11,32.94-.42,35.7-.86,75.64,1.38,113.48.26,10.82-.32,21.63-.35,32.42-.08.35.23.82.34,1.41.33.45-.01.51.14.18.45-.3.29-.88.42-1.73.39-8.36-.09-16.56-.28-25.04-.06-39.28,1.06-85.47-1.26-115.49-.37-33.1.97-64.32,1.23-99.25-.01-11.07-.39-24,.51-34.33.47-9.23-.04-18.45-.08-27.67-.13-9.62-.04-18.5.22-29,.08-5.11-.06-9.79-.78-14.04-2.15-.08-.23-.11-.41-.08-.56.03-.16.15-.26.36-.3.22-.05.45-.05.7,0Z"/>
          <path class="cls-1" d="m94.23,420.94c-31.36-.65-62.57-1.54-93.77-4.9-.47-.05-.58-.28-.33-.68l.15-.22c.05-.09.13-.13.23-.14,4.99-.31,9.98-.64,14.99-1.01,26.04-1.89,52.12-3.12,78.23-3.69,97.17-2.11,194.33-2.19,291.5-.22,22.18.45,44.35,1.23,66.51,2.33,12.17.61,23.85,1.61,35.03,3,1.93.24,1.93.46,0,.65-43.48,4.33-87.37,4.69-131.03,5.42-87.17,1.47-174.34,1.29-261.5-.54Z"/>
        </g>
      </g>
    </g>
  </g>
</svg>