<?xml version="1.0" encoding="UTF-8"?>
<svg id="Layer_2" data-name="Layer 2" xmlns="http://www.w3.org/2000/svg" viewBox="0 0 231.8 321.09">
  <defs>
    <style>
      .cls-1, .cls-2, .cls-3, .cls-4, .cls-5, .cls-6, .cls-7, .cls-8, .cls-9, .cls-10, .cls-11, .cls-12, .cls-13, .cls-14, .cls-15, .cls-16 {
        stroke-width: 2px;
      }

      .cls-1, .cls-2, .cls-3, .cls-4, .cls-5, .cls-6, .cls-7, .cls-9, .cls-12, .cls-16 {
        stroke: #250532;
      }

      .cls-1, .cls-3, .cls-4, .cls-8, .cls-10, .cls-11, .cls-13, .cls-14, .cls-16 {
        stroke-linejoin: round;
      }

      .cls-1, .cls-12 {
        fill: #fdb44d;
      }

      .cls-2 {
        fill: #5b9abe;
      }

      .cls-2, .cls-5, .cls-6, .cls-7, .cls-9, .cls-12, .cls-15 {
        stroke-miterlimit: 10;
      }

      .cls-3 {
        fill: #6770c3;
      }

      .cls-4, .cls-13 {
        fill: #3f856c;
      }

      .cls-5 {
        fill: #fcb44d;
      }

      .cls-6 {
        fill: #6f7fcd;
      }

      .cls-7 {
        fill: #e9635c;
      }

      .cls-8 {
        fill: #eb6559;
      }

      .cls-8, .cls-10, .cls-11, .cls-13, .cls-14 {
        stroke: #000;
      }

      .cls-9 {
        fill: #fdcea2;
      }

      .cls-10 {
        fill: #3e95b1;
      }

      .cls-11 {
        fill: #feb44e;
      }

      .cls-14 {
        fill: #fdb34d;
      }

      .cls-15 {
        fill: #f8a953;
        stroke: #24032f;
      }

      .cls-16 {
        fill: #ea635b;
      }
    </style>
  </defs>
  <g id="Layer_136" data-name="Layer 136">
    <g id="Green_Tank" data-name="Green Tank">
      <path class="cls-9" d="M180.67,49.44h20.9c1.66,0,3,1.34,3,3v49.48h-26.9v-49.48c0-1.66,1.34-3,3-3Z"/>
      <path class="cls-6" d="M145.71,176h-31v-51.98c0-8.84-7.19-16.03-16.03-16.03h-51.64C21.66,107.99,1,87.34,1,61.95S21.66,15.91,47.04,15.91h126.69v31H47.04c-8.3,0-15.04,6.75-15.04,15.04s6.75,15.04,15.04,15.04h51.64c25.93,0,47.03,21.1,47.03,47.03v51.98Z"/>
      <path class="cls-5" d="M230.28,12.96v35.91c0,1.66-1.34,3-3,3h-19.71c-1.66,0-3,1.34-3,3v28.52h-26.9v-28.52c0-1.66-1.34-3-3-3h-22.7V9.96h75.31c1.66,0,3,1.34,3,3Z"/>
      <path class="cls-15" d="M174.32,264.23h-15.64v-15h15.64c5.24,0,9.51-4.55,9.51-10.14v-20.98h15v20.98c0,13.86-11,25.14-24.51,25.14Z"/>
      <rect class="cls-1" x="135.74" y="235.42" width="32.44" height="38.77" rx="3" ry="3"/>
      <rect class="cls-2" x="177.67" y="106" width="26.9" height="119.92"/>
      <rect class="cls-1" x="172.43" y="101.92" width="37.39" height="13.77" rx="3" ry="3"/>
      <rect class="cls-1" x="172.43" y="221.01" width="37.39" height="13.77" rx="3" ry="3"/>
      <rect class="cls-11" x="108.46" y="167.53" width="43.5" height="30.94" rx="3" ry="3"/>
      <path class="cls-13" d="M90.57,177.98h61.99v142.11H16.5v-68.04c0-40.88,33.19-74.07,74.07-74.07Z"/>
      <g>
        <circle class="cls-8" cx="85.01" cy="249.37" r="33.17"/>
        <circle class="cls-10" cx="85.01" cy="249.37" r="23.45"/>
        <circle class="cls-14" cx="85.01" cy="249.37" r="16.58"/>
      </g>
      <rect class="cls-5" x="150.77" y="1" width="16.76" height="59.84" rx="3" ry="3"/>
      <path class="cls-7" d="M218.82,10.46h8.46c1.66,0,3,1.34,3,3v34.91c0,1.66-1.34,3-3,3h-8.46V10.46h0Z"/>
      <path class="cls-12" d="M177.67,119.68s-7.73,4.07-7.73,13.66,7.73,12.59,7.73,12.59l23.25,9.42c2.21.89,3.65,3.04,3.65,5.42v15.24s8.16-6.24,8.16-14.63c0-8.99-8.16-13.53-8.16-13.53l-23.63-11.56c-2-.98-3.28-3.02-3.28-5.25v-11.35Z"/>
      <path class="cls-12" d="M177.67,164.68s-7.73,4.07-7.73,13.66,7.73,12.59,7.73,12.59l23.25,9.42c2.21.89,3.65,3.04,3.65,5.42v15.24s8.16-6.24,8.16-14.63c0-8.99-8.16-13.53-8.16-13.53l-23.63-11.56c-2-.98-3.28-3.02-3.28-5.25v-11.35Z"/>
      <g>
        <path class="cls-16" d="M213.07,280.52c0-2.05-25.4-2.05-25.4,0v6.18h25.4v-6.18Z"/>
        <path class="cls-1" d="M182.04,306.75h36.65v-20.61c0-3.1-2.52-5.62-5.62-5.62,0,2.41-25.4,2.41-25.4,0-3.1,0-5.62,2.52-5.62,5.62v20.61Z"/>
        <g>
          <path class="cls-3" d="M230.8,304.12v15.97h-60.86v-15.97c0-.13,0-.25.01-.38.2-4.83,4.18-8.7,9.07-8.7h42.71c4.88,0,8.86,3.87,9.06,8.7.01.13.01.25.01.38Z"/>
          <path class="cls-4" d="M230.79,303.74h-60.84c.2-4.83,4.18-8.7,9.07-8.7h42.71c4.88,0,8.86,3.87,9.06,8.7Z"/>
        </g>
      </g>
    </g>
  </g>
</svg>