<?xml version="1.0" encoding="UTF-8"?>
<svg id="Layer_2" data-name="Layer 2" xmlns="http://www.w3.org/2000/svg" xmlns:xlink="http://www.w3.org/1999/xlink" viewBox="0 0 441.21 818.38">
  <defs>
    <style>
      .cls-1 {
        fill: #f56e57;
      }

      .cls-1, .cls-2, .cls-3, .cls-4, .cls-5, .cls-6, .cls-7, .cls-8, .cls-9, .cls-10, .cls-11, .cls-12, .cls-13, .cls-14, .cls-15 {
        stroke: #191c26;
        stroke-miterlimit: 10;
      }

      .cls-1, .cls-2, .cls-3, .cls-16, .cls-8, .cls-10, .cls-17, .cls-11, .cls-12, .cls-13, .cls-14, .cls-15 {
        stroke-width: 2px;
      }

      .cls-2, .cls-7 {
        fill: #c2a030;
      }

      .cls-3, .cls-4 {
        fill: #1f1a1e;
      }

      .cls-4 {
        stroke-width: 2.15px;
      }

      .cls-5 {
        fill: #b2cbae;
        stroke-width: 1.96px;
      }

      .cls-6 {
        fill: #f2c03d;
        stroke-width: 2.38px;
      }

      .cls-18 {
        fill: #e88249;
        stroke-width: 1.64px;
      }

      .cls-18, .cls-16, .cls-17 {
        stroke: #241f1a;
        stroke-linejoin: round;
      }

      .cls-7 {
        stroke-width: 1.99px;
      }

      .cls-16, .cls-11 {
        fill: #f7c538;
      }

      .cls-8, .cls-19 {
        fill: #ffbb69;
      }

      .cls-20 {
        fill: #191c26;
      }

      .cls-9 {
        fill: #263635;
        stroke-width: 1.34px;
      }

      .cls-21, .cls-15 {
        fill: #e2873f;
      }

      .cls-10 {
        fill: #352b33;
      }

      .cls-17 {
        fill: #417a50;
      }

      .cls-12 {
        fill: #f46f57;
      }

      .cls-13 {
        fill: #47714e;
      }

      .cls-14 {
        fill: none;
      }

      .cls-22 {
        clip-path: url(#clippath);
      }
    </style>
    <clipPath id="clippath">
      <path class="cls-15" d="M139.99,5.89h0c27.52,0,49.86,22.34,49.86,49.86v61.47h-99.72v-61.47c0-27.52,22.34-49.86,49.86-49.86Z"/>
    </clipPath>
  </defs>
  <g id="Layer_40" data-name="Layer 40">
    <g>
      <g>
        <path class="cls-21" d="M139.99,5.89h0c27.52,0,49.86,22.34,49.86,49.86v61.47h-99.72v-61.47c0-27.52,22.34-49.86,49.86-49.86Z"/>
        <g class="cls-22">
          <g>
            <rect class="cls-19" x="92.44" width="4.17" height="120.68"/>
            <rect class="cls-19" x="101.53" width="4.17" height="120.68"/>
            <rect class="cls-19" x="110.62" width="4.17" height="120.68"/>
            <rect class="cls-19" x="119.71" width="4.17" height="120.68"/>
            <rect class="cls-19" x="128.81" width="4.17" height="120.68"/>
            <rect class="cls-19" x="137.9" width="4.17" height="120.68"/>
            <rect class="cls-19" x="146.99" width="4.17" height="120.68"/>
            <rect class="cls-19" x="156.08" width="4.17" height="120.68"/>
            <rect class="cls-19" x="165.18" width="4.17" height="120.68"/>
            <rect class="cls-19" x="174.27" width="4.17" height="120.68"/>
            <rect class="cls-19" x="183.36" width="4.17" height="120.68"/>
          </g>
        </g>
        <path class="cls-14" d="M139.99,5.89h0c27.52,0,49.86,22.34,49.86,49.86v61.47h-99.72v-61.47c0-27.52,22.34-49.86,49.86-49.86Z"/>
      </g>
      <polygon class="cls-4" points="64.03 769.51 143.24 716.92 338.95 716.92 407.73 766.18 64.03 769.51"/>
      <circle class="cls-3" cx="376.29" cy="675.17" r="31.44"/>
      <circle class="cls-3" cx="98.27" cy="672.85" r="31.44"/>
      <ellipse class="cls-4" cx="235.39" cy="785.87" rx="36.39" ry="31.44"/>
      <path class="cls-12" d="M439.54,749.91c-.14,5.01-1.23,10.04-3.21,14.64-5.99,14.02-20.13,23.74-35.41,24.07-103.14.14-235.77.02-338.77.06-.5,0-1.16,0-1.95-.01-24.62-.14-44.59-20.8-42.95-45.37.23-3.38.86-6.59,2.05-9.48.56-1.36,27.55-75.42,37.15-99.62,2.88-6.75,9.98-11.31,17.32-11.15,26.03,0,77.37.2,103.93.2v22l-7.28-.26c-11.32-.3-25-.48-36.39-.53-16.64-.02-34.54.17-51.47.54-2.67.06-5.03,1.75-5.94,4.26-10.98,30.46-21.03,63.26-31.45,93.78-.77,2.02-.91,4.3-.24,6.31.75,2.37,2.74,4.45,4.99,5.34.18.04.3.2.5.19.18.03.35.07.52.13l.25.09c.64.06,1.28.1,1.96.12,42.9-.23,97.24-.65,140.01-.28,54.57.23,150.66,1.68,205.6,2.32,2.92.15,5.89-.43,8.39-2,4.03-2.58,6.41-7.11,6.31-11.9,0-.62.09-8.15.1-9.1.08-19.26.93-197.82.93-197.82-9.49-.06-18.44-1.74-27.47-1.55-4.51.19-10.17.24-14.56.51v-22c9.12.11,36.46-3.17,45.41-3.09h4.55c5.58-.13,11.15,2.6,14.4,7.14,1.95,2.65,3.13,5.93,3.31,9.21.42,52.72-.95,154.4-.59,207.46,0,2.62.1,13.21,0,15.79Z"/>
      <path class="cls-17" d="M88.28,94.87h105.38c46.26,0,83.82,37.56,83.82,83.82v282.09H77.9V105.25c0-5.73,4.65-10.38,10.38-10.38Z"/>
      <path class="cls-18" d="M397.17,513.83v105.29c0,78.6-63.17,142.31-141.08,142.31h-37.09c-77.92,0-141.08-63.72-141.08-142.31v-168.14h197.86v9.8h68.81c29.05,0,52.59,23.75,52.59,53.05Z"/>
      <path class="cls-16" d="M335.35,606.21h-49.55c-45.38,0-82.17-36.79-82.17-82.17v-7.54c0-33.81,27.41-61.22,61.22-61.22h86.39c35.15,0,63.64,28.49,63.64,63.64,5.63,29.32-20.82,56.28-61.82,82.17-5.3,3.35-11.44,5.12-17.71,5.12Z"/>
      <g>
        <circle class="cls-6" cx="159.39" cy="674.46" r="28.04"/>
        <circle class="cls-10" cx="159.39" cy="674.46" r="13.62"/>
      </g>
      <path class="cls-1" d="M13.99,253.27c-3.02,0-6.05-1.04-8.51-3.18-5.43-4.7-6.01-12.91-1.31-18.34l30.69-35.43c7.57-8.74,18.55-13.75,30.11-13.75h66.25c7.18,0,13,5.82,13,13s-5.82,13-13,13h-66.25c-4.02,0-7.83,1.74-10.46,4.78l-30.69,35.43c-2.57,2.97-6.19,4.49-9.83,4.49Z"/>
      <g>
        <circle class="cls-7" cx="331.27" cy="508.41" r="32.42"/>
        <circle class="cls-2" cx="331.27" cy="508.41" r="18.57"/>
      </g>
      <circle class="cls-11" cx="158.1" cy="182.26" r="39.4"/>
      <circle class="cls-13" cx="158.1" cy="182.26" r="19.84"/>
      <circle class="cls-9" cx="158.1" cy="182.26" r="13.32"/>
      <rect class="cls-8" x="64.32" y="293.81" width="226.14" height="125.57" rx="22.72" ry="22.72"/>
      <rect class="cls-5" x="81.11" y="312.17" width="192.49" height="90.35" rx="13.57" ry="13.57"/>
      <path class="cls-20" d="M139.94,336.92v19.68h-16.12c-4.19,0-7.58-3.39-7.58-7.58v-4.52c0-4.19,3.39-7.58,7.58-7.58h16.12Z"/>
      <path class="cls-20" d="M208.23,319.75v17.17h-19.58v-17.17c0-3.51,19.58-3.51,19.58,0Z"/>
      <path class="cls-20" d="M188.65,336.92v14.47c0,2.88-2.33,5.21-5.21,5.21h-23.93v-19.68h29.14Z"/>
      <path class="cls-20" d="M159.51,319.75v17.17h-19.57v-17.17c0-3.51,19.57-3.51,19.57,0Z"/>
      <rect class="cls-20" x="139.94" y="356.6" width="19.57" height="18.1"/>
      <path class="cls-20" d="M139.94,374.7v18.2h-16.12c-4.19,0-7.58-3.39-7.58-7.58v-3.04c0-4.19,3.39-7.58,7.58-7.58h16.12Z"/>
      <rect class="cls-20" x="159.51" y="374.7" width="29.14" height="18.2" rx="2.5" ry="2.5"/>
      <path class="cls-20" d="M237.54,343.08v7.35c0,3.4-2.76,6.16-6.16,6.16h-23.15v-19.68h23.15c3.4,0,6.16,2.76,6.16,6.16Z"/>
      <path class="cls-20" d="M237.54,380.86v5.87c0,3.4-2.76,6.16-6.16,6.16h-23.15v-18.2h23.15c3.4,0,6.16,2.76,6.16,6.16Z"/>
    </g>
  </g>
</svg>