<?xml version="1.0" encoding="UTF-8"?>
<svg xmlns="http://www.w3.org/2000/svg" viewBox="0 0 286.52 258.06">
  <defs>
    <style>
      .cls-1 {
        fill: #e1682b;
      }

      .cls-1, .cls-2, .cls-3, .cls-4, .cls-5, .cls-6, .cls-7, .cls-8, .cls-9, .cls-10, .cls-11, .cls-12, .cls-13, .cls-14, .cls-15, .cls-16 {
        stroke: #030303;
      }

      .cls-1, .cls-3, .cls-17, .cls-4, .cls-18, .cls-6, .cls-7, .cls-8, .cls-9, .cls-10, .cls-11, .cls-12, .cls-16 {
        stroke-linejoin: round;
      }

      .cls-1, .cls-3, .cls-18, .cls-6, .cls-9, .cls-14, .cls-15, .cls-16 {
        stroke-width: 2px;
      }

      .cls-2 {
        fill: #459243;
      }

      .cls-2, .cls-5, .cls-13, .cls-14, .cls-15 {
        stroke-miterlimit: 10;
      }

      .cls-3 {
        fill: none;
      }

      .cls-17 {
        fill: #fff;
        stroke: #fff;
        stroke-linecap: round;
        stroke-width: 9.45px;
      }

      .cls-4 {
        fill: #292222;
      }

      .cls-5 {
        fill: #4fa847;
      }

      .cls-18 {
        fill: #030303;
        stroke: #282324;
      }

      .cls-6 {
        fill: #fffffa;
      }

      .cls-7, .cls-9 {
        fill: #fffffb;
      }

      .cls-8 {
        fill: #444c90;
      }

      .cls-19 {
        isolation: isolate;
      }

      .cls-10 {
        fill: #262222;
      }

      .cls-11 {
        fill: #74b581;
      }

      .cls-12 {
        fill: #eda920;
      }

      .cls-13 {
        fill: #f0d9aa;
      }

      .cls-20 {
        fill: #f15b40;
        mix-blend-mode: color-burn;
        opacity: .7;
      }

      .cls-14 {
        fill: #e9d4a6;
      }

      .cls-15 {
        fill: #f0b628;
      }

      .cls-16 {
        fill: #f09f7f;
      }
    </style>
  </defs>
  <g class="cls-19">
    <g id="Layer_2" data-name="Layer 2">
      <g id="_3" data-name="3">
        <g>
          <path class="cls-17" d="M272.42,246.9h2.31v-3.66h-2.31v-2.71h2.31v-3.66h-4.9v-11.73c3.33-1.73,5.62-5.21,5.62-9.23,0-5.91-4.93-10.67-10.9-10.39-5.33.25-9.7,4.66-9.9,10-.16,4.18,2.17,7.84,5.61,9.63v11.73h-4.9v3.66h2.31v2.71h-2.31v3.66h2.31v4.43h-10.05c-.93-25.67-24.91-47.32-51.4-47.32h-2.58v-5.78h1.04c7.26,0,13.14-5.88,13.14-13.14v-24.13h-.45l-13.73,17.86-12.34-16.05-10.87,14.15v-14.8c0-5.26-1.97-10.33-5.52-14.22l-7.8-8.53-7.8,8.53c-3.55,3.88-5.52,8.96-5.52,14.22v16.03l-11.82-15.38-12.34,16.04-13.63-17.73v24.01c0,7.26,5.88,13.14,13.14,13.14h.49v5.78h-24.55c-21.36,0-38.68-17.32-38.68-38.68v-63.93c0-12.74,6.54-23.96,16.45-30.47,11.26-7.4,26.1-7.06,36.74,1.2,3.71,2.88,7.1,6.87,9.02,12.38l.72,2.69c2.31,9.44,10.09,18.85,23.12,18.85h114.1c10.96,0,20.17-7.47,22.83-17.59.5.01.78,0,.78-.13-.01-.42-.02-2.57-.01-5.45,0-.14.01-.29.01-.43v-6.5c.01-5.77.02-11.55,0-12.38h0c-17.93-.04-68.7-.04-106.68-.03.97-13.79,12.15-25.36,26.02-27.12l52.37-6.65,6.21-.79,6.77,15.74c3.13,7.27,13.53,5.68,14.31-2.19l1.63-16.44.97-.12-.2-1.83-.31-2.74c-.23-2.1-.94-4.07-2.01-5.83-.56-.94-1.23-1.82-1.98-2.62-3.46-3.7-8.73-5.79-14.11-4.88l-10.29,1.68h-32.68c-2.68,0-5.07,1.25-6.62,3.2-1.15,1.44-1.14,3.36-1.02,5.34l.05.94s0,0,0,0l-.05-.94c-.11-1.99-.13-3.9,1.03-5.34h-65.16c-5.63-5.12-13.11-8.24-21.31-8.24s-15.68,3.12-21.31,8.24h-16.79C42.47,12.96,4.73,50.71,4.73,97.27v72.27c0,40.53,29.74,75.52,68.59,81.79H7.59v2h273.69v-2h-8.86v-4.43Z"/>
          <g>
            <path class="cls-20" d="M275.45,215.9c0-5.91-4.93-10.67-10.9-10.39-5.33.25-9.7,4.66-9.9,10-.16,4.18,2.17,7.84,5.61,9.63v21.67c0,1.25,1.01,2.26,2.26,2.26h5.06c1.25,0,2.26-1.01,2.26-2.26v-21.67c3.33-1.73,5.62-5.21,5.62-9.23Z"/>
            <path class="cls-3" d="M275.45,215.9c0-5.91-4.93-10.67-10.9-10.39-5.33.25-9.7,4.66-9.9,10-.16,4.18,2.17,7.84,5.61,9.63v21.67c0,1.25,1.01,2.26,2.26,2.26h5.06c1.25,0,2.26-1.01,2.26-2.26v-21.67c3.33-1.73,5.62-5.21,5.62-9.23Z"/>
            <g>
              <rect class="cls-14" x="257.68" y="236.86" width="14.75" height="15.47"/>
              <rect class="cls-15" x="255.36" y="236.86" width="19.37" height="3.66"/>
              <rect class="cls-15" x="255.36" y="243.24" width="19.37" height="3.66"/>
            </g>
            <g>
              <path class="cls-16" d="M164.92,147.9l-7.8-8.53-7.8,8.53c-3.55,3.88-5.52,8.96-5.52,14.22v38.17h26.63v-38.17c0-5.26-1.97-10.33-5.52-14.22Z"/>
              <rect class="cls-6" x="119.65" y="193.02" width="74" height="53.88"/>
              <path class="cls-1" d="M207.83,160.95v24.13c0,7.26-5.88,13.14-13.14,13.14h-75.52c-7.26,0-13.14-5.88-13.14-13.14v-24.01l13.63,17.73,12.34-16.04,12.33,16.04,12.33-16.05,12.33,16.05,12.33-16.05,12.34,16.05,13.73-17.86h.45Z"/>
            </g>
            <path class="cls-13" d="M257.08,26.6l24.2-5.19-2.1,21.12c-.78,7.86-11.18,9.46-14.31,2.19l-7.79-18.12Z"/>
            <path class="cls-11" d="M280.18,64.97v17.47c0,13.04-10.57,23.6-23.6,23.6h-114.1c-13.04,0-20.82-9.4-23.12-18.85l-.72-2.69c-1.92-5.51-5.31-9.5-9.02-12.38-10.64-8.26-25.48-8.59-36.74-1.2-9.91,6.51-16.45,17.73-16.45,30.47v63.93c0,21.36,17.32,38.68,38.68,38.68h101.13c26.83,0,51.11,22.22,51.44,48.32H85.79c-44.77,0-81.06-38.02-81.06-82.79v-72.27C4.73,50.71,42.47,12.96,89.03,12.96h124.58c-1.15,1.44-1.14,3.35-1.03,5.34l.05.94-9.65.93c-24.41,3.58-52.42,16.09-64.81,44.79h142.01Z"/>
            <g>
              <path class="cls-12" d="M281.79,25.97l-1.61.2-12.41,1.58-15.88,2.01-52.37,6.65c-14.35,1.83-25.82,14.14-26.08,28.56h-35.27c.26,0,1.83-3.94,2.06-4.39.75-1.47,1.55-2.92,2.39-4.34,1.66-2.78,3.49-5.45,5.51-7.98,3.93-4.94,8.52-9.35,13.62-13.08,11.67-8.54,24.79-13.59,37.78-15.1,6.92-.81,9.86-.43,13.11-.83l-.05-.94c-.11-1.98-.13-3.9,1.02-5.34,1.55-1.95,3.94-3.2,6.62-3.2h32.68l10.29-1.68c5.38-.91,10.65,1.17,14.11,4.88.75.8,1.42,1.68,1.98,2.62,1.07,1.76,1.77,3.73,2.01,5.83l.31,2.74.2,1.83Z"/>
              <circle class="cls-4" cx="265.97" cy="17.58" r="3.83"/>
            </g>
            <path class="cls-5" d="M214.98,231.03c-8.04,0-14.56,6.52-14.56,14.55,0-8.04-6.52-14.55-14.55-14.55-6.34,0-11.72,4.05-13.72,9.7-2-5.65-7.39-9.7-13.72-9.7s-11.95,4.22-13.84,10.06c-1.89-5.84-7.37-10.06-13.84-10.06-8.04,0-14.56,6.52-14.56,14.55,0-8.04-6.52-14.55-14.56-14.55s-14.55,6.52-14.55,14.55v6.75h142.46v-6.75c0-8.04-6.52-14.55-14.55-14.55Z"/>
            <line class="cls-3" x1="281.28" y1="252.33" x2="7.59" y2="252.33"/>
            <path class="cls-2" d="M280.19,63.55c-30.67-.05-157.38,0-151.86-.01-.32,0-.89.09-1.35.14-11.23,1.79-10.97,20.44-.04,22.13,3.18.42,6.9,2.36,9.98,2.7,2.65.28,5.08,1.87,6.6,4.16.38.55.74,1.06,1.21,1.52,2.46,2.36,6.19,3.6,9.38,3.34,7.63-.7,6.74-8.08,13.93-9.01,2.07-.2,4.47-.05,6.64-.09,3.1-.16,6.28,1.38,8.09,4.13.97,1.5,2.15,2.55,3.7,3.38,3.74,2.04,8.48,2.37,11.87-.38.97-.75,1.76-1.71,2.46-2.76,1.52-2.35,3.9-3.95,6.56-4.28,1.89-.19,3.97-.05,5.97-.09,3.75-.34,7.35,1.54,9.38,5,3.49,4.37,11.02,5.6,15.19,2.33.89-.79,1.53-1.82,2.2-2.86,1.5-2.42,4.01-4.11,6.75-4.4,8.03-.21,22.58,0,30.25-.08,1.95-.07,3.08.15,3.08-.11-.05-1.42.04-23.09,0-24.76h0Z"/>
            <g>
              <circle class="cls-8" cx="127.13" cy="36.42" r="31.69"/>
              <circle class="cls-10" cx="127.13" cy="36.42" r="19.57"/>
              <circle class="cls-7" cx="127.13" cy="36.42" r="15.72"/>
              <circle class="cls-7" cx="127.13" cy="36.42" r="15.72"/>
            </g>
            <circle class="cls-9" cx="127.13" cy="36.42" r="8.58"/>
            <circle class="cls-18" cx="127.13" cy="36.42" r="3.61"/>
          </g>
        </g>
      </g>
    </g>
  </g>
</svg>