<?xml version="1.0" encoding="UTF-8"?>
<svg id="Layer_2" data-name="Layer 2" xmlns="http://www.w3.org/2000/svg" viewBox="0 0 237.42 36.55">
  <defs>
    <style>
      .cls-1 {
        fill: #fcac04;
        stroke-width: .45px;
      }

      .cls-1, .cls-2 {
        stroke: #000;
        stroke-linejoin: round;
      }

      .cls-3 {
        fill: #fff;
      }

      .cls-2 {
        stroke-width: 1.35px;
      }
    </style>
  </defs>
  <g id="Sticker_OG_Logo" data-name="Sticker OG Logo">
    <g>
      <path class="cls-3" d="M237.32,30.05l-.44-1.38c-.1-.35-.27-.65-.49-.89-.03-.04-.07-.07-.1-.1.08-.38.07-.77-.06-1.13l-.47-1.48c-.17-.49-.48-.89-.88-1.15-.24-.16-.5-.26-.76-.31-.17-.28-.41-.51-.69-.69-.51-.32-1.09-.4-1.66-.23l-1.54.47s-.05.02-.07.03c.79-1.35,1.21-2.97,1.21-4.82,0-3.51-1.5-5.68-3.73-7.12.04-.05.08-.11.11-.17l3.02-4.88c.62-1,.35-2.32-.61-2.99-2.92-2.05-6.18-3.01-10.25-3.01-.12,0-.23,0-.34,0h-.07s-.18,0-.18,0c-.12,0-.23,0-.35,0-5.24,0-9.06,2.42-10.25,6.24v-3.66c0-1.23-1-2.22-2.22-2.22h-6.7c-.3,0-.59.06-.81.17-.84.34-1.38,1.15-1.38,2.06v12.89c0,.44-.03.83-.1,1.16-.24.78-.62,1.07-1.36,1.08-.36-.02-1.1-.05-1.1-2.25l-.07-12.89c0-1.22-1-2.21-2.22-2.21h-6.62c-.59,0-1.15.23-1.58.66-.41.42-.65.99-.65,1.58l.02,3.77c-2.27-4.04-6.47-6.54-11.73-6.54-3.49,0-6.48,1.17-8.65,3.37-1,1.02-1.8,2.25-2.4,3.65V2.89c0-1.55-1.27-2.8-2.81-2.8h-6.12c-.75,0-1.46.29-2,.83-.53.54-.82,1.25-.81,2l.02,2.41c-1.6-3.22-5.03-5-9.95-5l-11,.07c-1.22,0-2.22,1.01-2.21,2.24l.09,16.7-6.43-17.48h0c-.32-.87-1.16-1.46-2.09-1.46h-7c-.94,0-1.78.59-2.09,1.48l-5.84,16.35c-.4-.37-.93-.6-1.51-.6h-7.74V2.62c0-1.23-1-2.22-2.22-2.22h-7.24c-.88,0-1.64.52-2,1.27-.5-.76-1.36-1.27-2.34-1.27h-6.12c-.75,0-1.46.29-2,.83-.17.17-.3.37-.42.57-.36-.74-1.12-1.26-1.99-1.26h-6.68c-1.11,0-2.01.9-2.01,2.01v3.89l-3.75-5.18c-.42-.58-1.09-.92-1.8-.92h-6.08c-1.23,0-2.22,1-2.22,2.22v17.3l-6.49-17.87c-.32-.88-1.16-1.47-2.09-1.47h-7.24c-.74,0-1.41.47-1.67,1.17l-4.72,13.01c.02-.35.04-.69.04-1.05C24.58,4.93,19.81.32,10.78.32H2.22C1,.32,0,1.31,0,2.54v22.73c0,1.23,1,2.22,2.22,2.22h7.98c4.89,0,8.53-1.23,10.93-3.66l-.21.52c-.27.69-.19,1.46.23,2.07.41.61,1.1.98,1.84.98h7.39c.98,0,1.83-.62,2.12-1.55l.73-2.31h2.91l.74,2.39c.29.94,1.14,1.56,2.12,1.56h7.33c.48,0,.93-.17,1.31-.45.37.28.83.45,1.32.45h6.12c1.23,0,2.22-1,2.22-2.22v-5.27c2.28,3.24,4.6,6.51,4.63,6.55.42.59,1.09.94,1.82.94h5.53c.89,0,1.65-.53,2.01-1.29.45,1.14,1.56,1.96,2.86,1.96l5.44-.02c1.18,0,2.19-.69,2.7-1.68.4.61,1.08,1.02,1.87,1.02h17.21c.3,0,.59-.06.85-.17.17.04.33.07.51.07l7.48.1c.98,0,1.83-.63,2.13-1.57l.74-2.39h3l.74,2.39c.29.94,1.14,1.56,2.12,1.56h7.22c.44,0,.85-.14,1.21-.38.35.24.78.38,1.23.38h6.91c1.23,0,2.22-1,2.22-2.22v-1.97l1.42,2.93c.37.77,1.15,1.26,2,1.26h7.5c.63,0,1.23-.29,1.64-.75.56.68,1.41,1.12,2.36,1.12l5.44-.02c1.68,0,3.05-1.38,3.05-3.07v-4.31c2.01,4.62,6.27,7.39,11.95,7.39s9.62-2.91,11.53-7.63c1.51,4.84,5.57,7.63,11.52,7.63,5.22,0,9.1-2.13,11.09-5.81-.16.85.19,1.75.96,2.26,2.31,1.52,6.22,3.04,9.88,3.44-.09.1-.18.18-.25.3-.19.31-.3.66-.32,1.03-.02.24.02.45.05.57.06.28.1.51.15.7-.08.11-.14.24-.21.36-.29-.19-.61-.31-.96-.33l-1.72-.11c-.56,0-1.1.19-1.5.57-.4.37-.64.86-.68,1.42l-.14,1.88c-.06.58.12,1.15.5,1.58.37.43.87.69,1.47.74l1.62.09c.05,0,.1,0,.15,0,.52,0,1.01-.2,1.42-.58.19-.18.33-.38.45-.61.16.16.31.32.5.45.53.36,1.15.55,1.8.58.31.01.61-.02.9-.11.14.04.28.06.42.06l1.49.06s.1,0,.14,0c.56,0,1.09-.24,1.47-.67.27-.31.44-.69.5-1.11.18.48.5.86.94,1.12.33.2.69.29,1.04.29.22,0,.44-.04.66-.11l1.52-.53c.57-.2,1.01-.63,1.22-1.21.18-.49.18-1.02,0-1.51l-.49-1.35c.13-.1.24-.22.34-.34.35.89.86,1.56,1.53,1.99.4.25.99.5,1.76.5.34,0,.72-.05,1.14-.17.78-.24,1.42-.65,1.93-1.24.24-.29.4-.66.45-1.04.04-.32.02-.64-.08-.96ZM13.24,13.54c0,2.71-.44,3.68-1.81,4.01v-7.16c.73.13,1.25.49,1.64,1.11.12.55.17,1.22.17,2.04ZM149.57,22.19l-2.46-4.69c1.04-.81,1.84-1.82,2.4-2.98l.07,7.67ZM137.75,10.07h1.55c-.03.37-.17.47-1.05.47h-.5v-.47ZM227.99,25.58c.3-.22.58-.46.83-.71-.03.26-.02.53.05.79-.29-.09-.58-.12-.88-.08ZM223.78,27.44s-.01.01-.02.02c0,0-.01,0-.02-.01,0,0,.02,0,.03,0ZM221.92,32.72l-.14-.14-.21.11-.59-.53c.1-.02.2-.04.3-.07.15-.03.29-.07.42-.12.05.05.09.1.13.16.08.13.12.29.11.39,0,.06,0,.13-.03.2ZM220.75,33.09c-.17-.17-.27-.42-.26-.62,0-.08.02-.16.04-.24.15-.02.3-.04.44-.07l.6.53-.79.43s-.02-.02-.04-.03ZM221.11,29.93c.05.1.1.2.12.3-.12,0-.23.01-.33.02l-.02-.04c-.01-.06-.04-.16-.06-.26.1-.02.2-.02.3-.02ZM174.38,13.6c0,1.78-.29,3.93-1.63,4.3-1.24-.42-1.34-3.08-1.34-3.92,0-1.79.29-3.92,1.7-3.92.32,0,.53.08.67.18.29.59.6,1.61.6,3.35ZM207.81,20.84c.6-1.52.92-3.25.92-5.18v-3.73c.32,1.05.83,1.96,1.56,2.73.28.38.59.73.93,1.05-.26.18-.49.41-.66.68l-2.75,4.45Z"/>
      <g>
        <g>
          <path class="cls-2" d="M22.36,13.66c0,8.46-4.18,11.61-12.15,11.61H2.23s0-22.73,0-22.73h8.56c7.07,0,11.57,2.96,11.57,11.12ZM15.96,13.99c0-2.55-1.32-5.88-5.21-5.88h-1.54s0,11.83,0,11.83h1.35c3.89,0,5.4-1.48,5.4-5.95Z"/>
          <path class="cls-2" d="M46.34,25.27h-7.33l-1.22-3.95h-6.18s-1.22,3.86-1.22,3.86h-7.39L31.87,2.77h6.3s8.17,22.51,8.17,22.51ZM36.86,16.37l-.42-1.48c-.8-2.89-1.16-4.12-1.45-5.63-.29,1.51-.64,2.76-1.45,5.63l-.42,1.48h3.73Z"/>
          <path class="cls-2" d="M69.3,25.27h-5.53s-8.29-11.7-8.87-12.7c.16,1,.21,3.99.21,5.82v6.88s-6.12,0-6.12,0V2.57h6.08s4.95,6.85,4.95,6.85c1.03,1.38,3.02,4.37,3.5,5.3-.16-1-.19-3.99-.19-5.82V2.77s5.98,0,5.98,0v22.51Z"/>
          <path class="cls-2" d="M101.38,25.27h-17.21V2.62h7.24v17.22s9.97,0,9.97,0v5.43Z"/>
          <path class="cls-2" d="M126.17,25.27h-7.22l-1.22-3.95h-6.28s-1.22,3.95-1.22,3.95l-7.45-.1,8.06-22.55h7s8.34,22.65,8.34,22.65ZM116.69,16.37l-.42-1.48c-.8-2.89-1.16-4.12-1.45-5.63-.29,1.51-.64,2.76-1.45,5.63l-.42,1.48h3.73Z"/>
          <path class="cls-2" d="M148.68,25.27h-7.5s-3.67-7.59-3.67-7.59h-1.98s0,7.59,0,7.59h-6.91s-.13-22.65-.13-22.65l11-.07c5.27,0,8.74,2.21,8.74,7.54,0,3.38-1.58,5.47-4.05,6.59l4.5,8.58ZM142.02,10.26c0-1.41-.77-2.41-2.73-2.41h-3.76s0,4.92,0,4.92h3.67c2.03,0,2.83-.9,2.83-2.51Z"/>
          <path class="cls-2" d="M158.1,25.62l-5.44.02c-.46,0-.84-.37-.84-.83l-.19-21.9c0-.33.26-.59.59-.59h6.12c.32,0,.58.26.59.58l.02,21.88c0,.46-.37.84-.84.84Z"/>
          <path class="cls-2" d="M183.56,13.99c0,7.49-4.34,11.64-10.45,11.64s-10.91-4.01-11.02-11.5,4-11.9,10.11-11.9c6.11,0,11.36,4.27,11.36,11.76ZM177.1,14.05c0-4.05-1.48-6.21-3.99-6.21s-3.92,2.09-3.92,6.14c0,4.05,1.48,6.21,3.99,6.21s3.92-2.09,3.92-6.14Z"/>
          <path class="cls-2" d="M206.5,15.66c0,7.14-4.69,9.97-10.34,9.97-5.66,0-9.95-2.83-9.95-9.97l-.07-12.89h6.62s.07,12.89.07,12.89c0,2.76,1.09,4.47,3.54,4.47s3.47-1.7,3.47-4.47V2.77s6.67,0,6.67,0v12.89Z"/>
          <path class="cls-2" d="M229.15,18.36c0,5.14-3.89,7.27-9.29,7.27-3.63,0-8.08-1.64-10.42-3.18l3.02-4.89c1.64,1.13,5.44,2.7,7.53,2.7,2.22,0,2.93-.39,2.93-1.45,0-.84-.8-1.35-3.83-2.06-5.43-1.25-8.04-2.73-8.04-7.23,0-4.24,3.44-7.11,8.87-7.11,3.83,0,6.59.93,8.97,2.6l-3.02,4.89c-1.99-1.35-3.99-2.12-6.27-2.12-1.86,0-2.31.58-2.31,1.38s.8,1.22,3.7,1.9c5.66,1.35,8.17,3.09,8.17,7.3Z"/>
        </g>
        <g>
          <path class="cls-1" d="M21.42,13.44c0,8.46-4.18,11.38-12.15,11.38H1.97s0-22.51,0-22.51h7.88c7.07,0,11.57,2.67,11.57,11.12ZM15.02,13.54c0-4.15-1.32-5.88-5.21-5.88h-1.54s0,11.83,0,11.83h1.35c3.89,0,5.4-1.48,5.4-5.95Z"/>
          <path class="cls-1" d="M45.4,24.82h-6.75s-1.22-3.95-1.22-3.95h-6.75s-1.22,3.95-1.22,3.95h-6.69S30.93,2.32,30.93,2.32h6.3s8.17,22.51,8.17,22.51ZM35.92,15.92l-.42-1.48c-.8-2.89-1.16-4.12-1.45-5.63-.29,1.51-.64,2.76-1.45,5.63l-.42,1.48h3.73Z"/>
          <path class="cls-1" d="M67.96,24.82h-4.69s-5.37-7.43-5.37-7.43c-1-1.38-2.93-4.28-3.5-5.27.16,1,.19,3.99.19,5.82v6.55c0,.18-.15.33-.33.33h-5.31c-.18,0-.33-.15-.33-.33V2.83c0-.28.23-.51.51-.51h4.64c.22,0,.43.1.56.28l4.74,6.37c1.03,1.38,3.02,4.37,3.5,5.3-.16-1-.19-3.99-.19-5.82V2.56c0-.13.11-.24.24-.24h5.5c.13,0,.24.11.24.24v21.87c0,.22-.18.39-.39.39Z"/>
          <path class="cls-1" d="M99.99,24.82h-15.29c-.29,0-.53-.24-.53-.53V3c0-.21.17-.38.38-.38h5.55c.21,0,.38.17.38.38v15.87c0,.29.23.52.52.52h9c.25,0,.45.2.45.45v4.54c0,.25-.2.45-.45.45Z"/>
          <path class="cls-1" d="M124.69,24.82h-5.88c-.2,0-.37-.13-.43-.31l-1.12-3.64h-6.75s-1.13,3.64-1.13,3.64c-.06.19-.23.31-.42.31h-5.84c-.25,0-.43-.25-.34-.49l7.83-21.58c.09-.26.34-.43.62-.43h5.38c.28,0,.52.17.62.43l7.83,21.57c.09.25-.09.51-.35.51ZM115.75,15.92l-.42-1.48c-.8-2.89-1.16-4.12-1.45-5.63-.29,1.51-.64,2.76-1.45,5.63l-.42,1.48h3.73Z"/>
          <path class="cls-1" d="M147.08,24.82h-5.93c-.24,0-.45-.14-.56-.35l-3.32-6.87c-.11-.23-.34-.37-.59-.37h-1.6c-.27,0-.49.22-.49.49v6.59c0,.28-.22.5-.5.5h-5.14c-.28,0-.5-.22-.5-.5V2.83c0-.29.23-.52.52-.52h9.54c5.27,0,8.78,1.99,8.78,7.33,0,3.21-1.42,5.26-3.69,6.42-.19.1-.28.33-.18.53l4.01,7.65c.14.26-.05.58-.35.58ZM141.08,9.81c0-1.41-.77-2.41-2.73-2.41h-3.76s0,4.92,0,4.92h3.67c2.03,0,2.83-.9,2.83-2.51Z"/>
          <path class="cls-1" d="M157.2,24.82h-4.78c-.44,0-.79-.35-.79-.79V3.11c0-.44.35-.79.79-.79h4.78c.44,0,.79.35.79.79v20.92c0,.44-.35.79-.79.79Z"/>
          <path class="cls-2" d="M79.6,25.92l-5.44.02c-.46,0-.84-.37-.84-.83l-.19-21.9c0-.33.26-.59.59-.59h6.12c.32,0,.58.26.59.58l.02,21.88c0,.46-.37.84-.84.84Z"/>
          <path class="cls-1" d="M78.64,25.13h-4.78c-.44,0-.79-.35-.79-.79V3.41c0-.44.35-.79.79-.79h4.78c.44,0,.79.35.79.79v20.92c0,.44-.35.79-.79.79Z"/>
          <path class="cls-1" d="M182.62,13.54c0,7.49-4.34,11.64-10.45,11.64-6.11,0-10.38-4.08-10.38-11.57s4.34-11.64,10.45-11.64,10.38,4.08,10.38,11.57ZM176.16,13.6c0-4.05-1.48-6.21-3.99-6.21-2.51,0-3.92,2.09-3.92,6.14,0,4.05,1.48,6.21,3.99,6.21,2.51,0,3.92-2.09,3.92-6.14Z"/>
          <path class="cls-1" d="M205.86,15.21c0,7.14-4.28,9.97-9.93,9.97s-9.81-2.83-9.81-9.97V2.62c0-.17.14-.31.31-.31h5.75c.17,0,.31.14.31.31v12.58c0,2.76,1.09,4.47,3.54,4.47s3.47-1.7,3.47-4.47V2.62c0-.17.14-.31.31-.31h5.75c.17,0,.31.14.31.31v12.58Z"/>
          <path class="cls-1" d="M228.21,17.91c0,5.14-3.89,7.27-9.29,7.27-3.63,0-7.14-1.19-9.48-2.73l3.02-4.89c1.64,1.13,4.5,2.25,6.59,2.25,2.22,0,2.93-.39,2.93-1.45,0-.84-.8-1.35-3.83-2.06-5.43-1.25-8.04-2.73-8.04-7.23,0-4.24,3.44-7.11,8.87-7.11,3.83,0,6.59.93,8.97,2.6l-3.02,4.89c-1.99-1.35-3.99-2.12-6.27-2.12-1.86,0-2.31.58-2.31,1.38s.8,1.22,3.7,1.9c5.66,1.35,8.17,3.09,8.17,7.3Z"/>
        </g>
      </g>
      <g>
        <path d="M214.18,34.71c-.1-.12-.15-.26-.13-.42l.14-1.92c.01-.16.08-.3.2-.4.12-.11.25-.16.4-.16l1.64.1c.15.01.28.08.38.2s.14.26.13.42l-.14,1.91c-.02.16-.08.3-.2.41-.12.11-.25.16-.39.15l-1.65-.09c-.15-.01-.28-.08-.38-.2Z"/>
        <path d="M219.48,34.52c-.29-.2-.52-.46-.67-.8-.15-.34-.22-.73-.21-1.17.01-.39.09-.74.23-1.04s.34-.54.59-.72c-.03-.05-.14-.54-.33-1.47-.02-.08-.03-.13-.02-.16,0-.11.03-.22.09-.32.06-.1.13-.16.23-.2.33-.15.65-.25.96-.3.31-.05.65-.08,1.02-.06.89.04,1.56.35,2,.9.39.48.58,1.18.55,2.1l-.09,3.01c0,.16-.05.29-.15.4s-.21.16-.34.15l-1.54-.06c-.07,0-.12-.02-.16-.05-.03-.03-.06-.08-.09-.14-.04-.06-.05-.09-.06-.1l-.1.06c-.18.1-.34.17-.48.22-.14.05-.28.07-.42.07-.39-.02-.73-.12-1.02-.32ZM220.97,30.57c.3-.06.45-.17.46-.34,0-.08-.03-.15-.09-.21-.06-.06-.13-.09-.21-.09-.2-.01-.41.03-.65.11-.24.08-.47.19-.69.31-.05.03-.08.08-.09.14v.02c0,.05.01.09.04.13.03.04.07.06.12.07.33.02.7-.03,1.11-.13ZM221.87,32.95c.11-.12.17-.27.17-.45,0-.2-.05-.37-.19-.5-.13-.13-.3-.21-.51-.22-.33-.01-.58.07-.76.26-.12.12-.18.27-.19.47,0,.15.03.29.11.42s.19.22.34.27c.09.04.17.06.24.06.32.01.58-.09.78-.31Z"/>
        <path d="M227.09,34.41c-.13-.08-.23-.2-.29-.35l-1.85-5.12c-.06-.15-.06-.3,0-.45.05-.14.15-.24.28-.29l1.52-.52c.14-.06.29-.04.44.06.19-.27.46-.46.82-.58l.12-.04c.13-.04.26-.02.38.06.12.08.21.19.27.34l.69,1.9c.06.16.06.31,0,.45-.05.14-.14.24-.27.28l-.14.04c-.24.08-.4.22-.49.41s-.04.53.13,1.01l.57,1.59c.06.16.06.31,0,.45-.05.14-.15.24-.28.29l-1.52.53c-.13.05-.27.03-.4-.05Z"/>
        <path d="M232.95,31.65c-.46-.29-.8-.79-1.03-1.51l-.49-1.51h-.03c-.13.05-.27.04-.41-.04-.14-.08-.24-.19-.29-.35l-.46-1.45c-.05-.16-.04-.3.03-.45s.18-.24.32-.28h.03s-.24-.74-.24-.74c-.05-.16-.05-.3.02-.43s.16-.22.29-.26l1.52-.46c.13-.04.25-.02.38.06s.22.2.27.35l.22.73.54-.16c.13-.04.26-.02.39.06.13.08.22.2.27.36l.46,1.45c.05.16.05.3-.02.44-.06.14-.16.23-.28.26l-.54.16.35,1.12c.06-.03.15-.09.28-.2.06-.07.13-.11.21-.13.09-.02.17-.02.26.02.08.03.16.08.23.15.07.07.12.16.14.25l.45,1.4c.03.11.04.21.03.31s-.05.19-.11.26c-.3.35-.69.6-1.18.75-.62.18-1.17.13-1.62-.16Z"/>
      </g>
    </g>
  </g>
</svg>