<?xml version="1.0" encoding="UTF-8"?>
<svg id="Layer_2" data-name="Layer 2" xmlns="http://www.w3.org/2000/svg" xmlns:xlink="http://www.w3.org/1999/xlink" viewBox="0 0 292.9 262.72">
  <defs>
    <style>
      .cls-1 {
        fill: #301d32;
      }

      .cls-1, .cls-2, .cls-3, .cls-4, .cls-5, .cls-6, .cls-7, .cls-8, .cls-9, .cls-10, .cls-11, .cls-12, .cls-13, .cls-14, .cls-15, .cls-16, .cls-17, .cls-18, .cls-19, .cls-20, .cls-21 {
        stroke: #1d1b19;
        stroke-width: 1.26px;
      }

      .cls-1, .cls-2, .cls-3, .cls-4, .cls-5, .cls-6, .cls-7, .cls-8, .cls-10, .cls-11, .cls-12, .cls-13, .cls-14, .cls-15, .cls-22, .cls-16, .cls-17, .cls-18, .cls-19, .cls-20, .cls-21 {
        stroke-miterlimit: 10;
      }

      .cls-2 {
        fill: #e59f4c;
      }

      .cls-3 {
        fill: #ecdfbc;
      }

      .cls-23, .cls-16 {
        fill: #80b98a;
      }

      .cls-4 {
        fill: #ded1bb;
      }

      .cls-5 {
        fill: #e99c48;
      }

      .cls-6 {
        fill: #5a68b0;
      }

      .cls-7 {
        fill: #301c30;
      }

      .cls-8 {
        fill: #81ba8c;
      }

      .cls-9 {
        stroke-linejoin: round;
      }

      .cls-9, .cls-21 {
        fill: #e3d2be;
      }

      .cls-10 {
        fill: #ecdcb9;
      }

      .cls-24 {
        fill: #1d1b19;
      }

      .cls-11 {
        fill: #5a6ab1;
      }

      .cls-12 {
        fill: none;
      }

      .cls-13 {
        fill: #e9a0a8;
      }

      .cls-14 {
        fill: #e39b48;
      }

      .cls-15 {
        fill: #f58220;
      }

      .cls-22 {
        fill: #fff;
        stroke: #fff;
        stroke-width: 9.45px;
      }

      .cls-17 {
        fill: #5c50a1;
      }

      .cls-18 {
        fill: #fcc83e;
      }

      .cls-19 {
        fill: #5b69b1;
      }

      .cls-20 {
        fill: #eaa1a9;
      }

      .cls-25 {
        clip-path: url(#clippath);
      }
    </style>
    <clipPath id="clippath">
      <circle class="cls-16" cx="213.84" cy="72.53" r="11"/>
    </clipPath>
  </defs>
  <g id="_3" data-name="3">
    <g id="OTIS">
      <g>
        <path class="cls-22" d="M6.02,230.7l31.87-18.27v-4.84c0-19.37,12.73-35.76,30.27-41.27l3.36-6.54c.97-1.89,2.92-3.08,5.04-3.08h3.71l-.13-3.21c-.17-4.31,3.28-7.89,7.59-7.89s7.76,3.58,7.59,7.89l-.13,3.21h2.58c2.13,0,4.07,1.19,5.04,3.08l3.81,7.42c5.05,2.05,9.69,5.14,13.6,9.06l.93.93c1.27,1.27,2.62,2.44,4.03,3.48h0c13.98,10.35,33.79,9.2,46.47-3.48.02-.02.05-.05.07-.07,3.47-3.51,5.31-8.32,5.31-13.26V54.31c0-9.97,8.08-18.04,18.04-18.04h74.12c10.48,0,18.97,8.49,18.97,18.97v8.14c0,3.04-2.46,5.5-5.5,5.5h-28.24c-2.72.97-4.66,3.57-4.66,6.62v175.18c0,4.04-3.27,7.31-7.31,7.31H33.88c-2.69,0-4.88-2.18-4.88-4.87v-7.6H10.58c-2.45,0-4.45-.97-5.85-2.45v-11.29c.38-.39.81-.75,1.3-1.07Z"/>
        <path class="cls-22" d="M232.76,27.85h-27.21c-.91,0-1.73-.37-2.32-.96-.6-.6-.96-1.42-.96-2.33,0-1.81,1.47-3.29,3.28-3.29h.73c-.25-1.02-.38-2.08-.38-3.17,0-7.39,5.98-13.38,13.37-13.38s13.38,5.99,13.38,13.38c0,1.09-.13,2.15-.38,3.17h.49c.91,0,1.73.37,2.33.96s.96,1.42.96,2.33c0,1.81-1.48,3.29-3.29,3.29Z"/>
      </g>
      <g id="Orbit">
        <g>
          <path class="cls-21" d="M80.63,165.83h14.21l.48-12.35c.17-4.31-3.28-7.89-7.59-7.89h0c-4.31,0-7.76,3.58-7.59,7.89l.48,12.35Z"/>
          <polygon class="cls-9" points="90.55 158.75 87.74 151.21 85.51 158.75 90.55 158.75"/>
        </g>
        <path class="cls-1" d="M63.72,174.96h46.9l-7.8-15.19c-.97-1.89-2.92-3.08-5.04-3.08h-21.21c-2.13,0-4.07,1.19-5.04,3.08l-7.8,15.19Z"/>
        <path class="cls-15" d="M245.92,36.27h42.25v32.61h-28.79c-10.47,0-18.97-8.5-18.97-18.97v-8.14c0-3.04,2.46-5.5,5.5-5.5Z" transform="translate(528.59 105.15) rotate(180)"/>
        <path class="cls-10" d="M177.05,54.31v104.44c0,1.61.46,3.12,1.25,4.38,1.47,2.33,4.07,3.89,7.03,3.89h64.44v-91.53c0-3.41,2.42-6.25,5.62-6.9v-21.81c0-4.04-2.28-7.56-5.62-9.31-1.46-.78-3.13-1.21-4.9-1.21h-49.78c-9.96,0-18.04,8.07-18.04,18.04Z"/>
        <path class="cls-19" d="M37.89,207.59v46.53h27.46v3.87h177.11c4.04,0,7.31-3.27,7.31-7.31v-83.65h-64.44c-2.96,0-5.56-1.56-7.03-3.89-.8-1.27-1.25-2.78-1.25-4.38v5.1c0,4.94-1.84,9.75-5.31,13.26-.02.02-.05.05-.07.07-12.67,12.67-32.49,13.83-46.47,3.48h0c-1.41-1.05-2.76-2.21-4.03-3.48l-.93-.93c-7.14-7.14-16.68-11.56-26.78-11.9-.48-.02-.96-.02-1.45-.02h-10.86c-23.89,0-43.26,19.37-43.26,43.26Z"/>
        <path class="cls-17" d="M29,245.52v7.6c0,2.69,2.18,4.87,4.88,4.87h31.47v-3.87h-27.46v-11.08c-1.85,1.55-4.23,2.48-6.81,2.48h-2.07Z"/>
        <path class="cls-12" d="M29,217.86v27.66h2.07c2.58,0,4.97-.93,6.81-2.48v-30.37l-8.88,5.19Z"/>
        <path class="cls-7" d="M4.73,231.77v11.29c1.41,1.48,3.4,2.45,5.85,2.45h18.43v-27.66l8.88-5.19v-.24l-31.87,18.27c-.48.33-.91.69-1.3,1.07Z"/>
        <path class="cls-20" d="M141.92,198.12h86.29c11.9,0,21.56,9.66,21.56,21.56v4.28c0,11.9-9.66,21.56-21.56,21.56h-86.29v-47.4h0Z" transform="translate(391.69 443.63) rotate(180)"/>
        <path class="cls-2" d="M249.77,210.35h-84.45c-6.33,0-11.46,5.13-11.46,11.46h0c0,6.33,5.13,11.46,11.46,11.46h84.45"/>
        <circle class="cls-3" cx="166.7" cy="221.82" r="5.67"/>
        <circle class="cls-6" cx="236.32" cy="221.82" r="5.67"/>
        <rect class="cls-18" x="59.25" y="199.61" width="55.52" height="45.91" rx="20.88" ry="20.88" transform="translate(174.01 445.13) rotate(180)"/>
        <path class="cls-14" d="M59.25,199.61h6.87c11.53,0,20.88,9.36,20.88,20.88v4.14c0,11.53-9.36,20.88-20.88,20.88h-6.87v-45.91h0Z" transform="translate(146.25 445.13) rotate(-180)"/>
        <circle class="cls-8" cx="213.84" cy="68.88" r="17.15"/>
        <g>
          <line class="cls-12" x1="219.16" y1="24.57" x2="219.16" y2="36.81"/>
          <path class="cls-11" d="M205.9,18.1c0,1.09.13,2.15.38,3.17.62,2.56,1.98,4.83,3.84,6.58h18.31c1.86-1.75,3.22-4.02,3.84-6.58.25-1.02.38-2.08.38-3.17,0-7.39-5.99-13.38-13.38-13.38s-13.37,5.99-13.37,13.38Z"/>
          <polygon class="cls-11" points="226.08 24.57 219.16 6.77 212.7 24.57 226.08 24.57"/>
          <path class="cls-5" d="M202.27,24.57c0,.91.37,1.73.96,2.33.59.6,1.41.96,2.32.96h27.21c1.81,0,3.29-1.47,3.29-3.29,0-.91-.37-1.73-.96-2.33s-1.42-.96-2.33-.96h-27.21c-1.81,0-3.28,1.48-3.28,3.29Z"/>
        </g>
        <g>
          <circle class="cls-23" cx="213.84" cy="72.53" r="11"/>
          <g class="cls-25">
            <circle class="cls-24" cx="213.84" cy="76.99" r="8.12"/>
          </g>
          <circle class="cls-12" cx="213.84" cy="72.53" r="11"/>
        </g>
        <circle class="cls-4" cx="85.51" cy="208.56" r="5.67"/>
        <circle class="cls-13" cx="85.51" cy="237.37" r="5.67"/>
      </g>
    </g>
  </g>
</svg>