<?xml version="1.0" encoding="UTF-8"?>
<svg id="Layer_2" data-name="Layer 2" xmlns="http://www.w3.org/2000/svg" viewBox="0 0 124.18 84.27">
  <defs>
    <style>
      .cls-1 {
        fill: #faf5e4;
      }

      .cls-1, .cls-2, .cls-3, .cls-4, .cls-5, .cls-6, .cls-7, .cls-8, .cls-9, .cls-10, .cls-11, .cls-12, .cls-13, .cls-14, .cls-15, .cls-16, .cls-17, .cls-18, .cls-19, .cls-20, .cls-21, .cls-22, .cls-23, .cls-24, .cls-25, .cls-26, .cls-27, .cls-28, .cls-29 {
        stroke-miterlimit: 10;
      }

      .cls-1, .cls-2, .cls-3, .cls-4, .cls-5, .cls-7, .cls-8, .cls-9, .cls-10, .cls-11, .cls-12, .cls-13, .cls-14, .cls-15, .cls-30, .cls-16, .cls-17, .cls-18, .cls-19, .cls-20, .cls-21, .cls-22, .cls-23, .cls-24, .cls-25, .cls-26, .cls-27, .cls-28, .cls-29 {
        stroke: #201231;
      }

      .cls-2 {
        stroke-width: .83px;
      }

      .cls-2, .cls-3, .cls-4, .cls-5 {
        fill: #f6ef7c;
      }

      .cls-3, .cls-23 {
        stroke-width: .82px;
      }

      .cls-4 {
        stroke-width: .71px;
      }

      .cls-5, .cls-17 {
        stroke-width: .59px;
      }

      .cls-6 {
        fill: #201231;
        stroke: #faf5e3;
        stroke-width: .18px;
      }

      .cls-7 {
        stroke-width: .49px;
      }

      .cls-7, .cls-8, .cls-9, .cls-10, .cls-11, .cls-28 {
        fill: #fece33;
      }

      .cls-8 {
        stroke-width: .52px;
      }

      .cls-9 {
        stroke-width: .49px;
      }

      .cls-10, .cls-15, .cls-29 {
        stroke-width: .5px;
      }

      .cls-11 {
        stroke-width: .5px;
      }

      .cls-12, .cls-24 {
        fill: #f47e64;
      }

      .cls-13, .cls-14, .cls-15 {
        fill: none;
      }

      .cls-14 {
        stroke-width: .49px;
      }

      .cls-30 {
        stroke-linejoin: round;
      }

      .cls-30, .cls-25 {
        fill: #8aad9b;
      }

      .cls-16 {
        fill: #936096;
      }

      .cls-17 {
        fill: #b4dbaf;
      }

      .cls-18, .cls-19, .cls-20, .cls-21 {
        fill: #faf5e3;
      }

      .cls-18, .cls-22 {
        stroke-width: .95px;
      }

      .cls-19 {
        stroke-width: .75px;
      }

      .cls-20 {
        stroke-width: .56px;
      }

      .cls-21 {
        stroke-width: .39px;
      }

      .cls-22, .cls-23 {
        fill: #87ae99;
      }

      .cls-24 {
        stroke-width: .49px;
      }

      .cls-25 {
        stroke-width: .99px;
      }

      .cls-26 {
        fill: #fbf6e2;
        stroke-width: 1.08px;
      }

      .cls-27 {
        fill: #fbf6e5;
      }

      .cls-29 {
        fill: #f07369;
      }
    </style>
  </defs>
  <g id="Layer_9" data-name="Layer 9">
    <rect class="cls-22" x="52.36" y="36.55" width="71.35" height="4.31" rx="2.16" ry="2.16"/>
    <path class="cls-26" d="M19.72,2.24v4.13c-.55-.52-.89-1.26-.89-2.07s.34-1.54.89-2.06Z"/>
    <path class="cls-1" d="M39.2,64.01v19.76h-19.6c-10.74-.71-19.1-9.7-19.1-20.63V21.13C.5,12,6.43,4.25,14.66,1.54v7.21c0,2.19,1.78,3.96,3.96,3.96.38,0,.75-.05,1.1-.16,1.65-.47,2.86-1.99,2.86-3.8v-1.59h.66c1.17,0,2.12.95,2.12,2.12v44.03c0,1.57,1.28,2.85,2.85,2.85h.83c1.58,0,2.86-1.28,2.86-2.85v-1.72c4.36,2.42,7.3,7.08,7.3,12.42Z"/>
    <path class="cls-24" d="M22.58,1.45v5.71h-.9c-.77,0-1.46-.3-1.96-.79-.55-.52-.89-1.26-.89-2.07s.34-1.54.89-2.06c.5-.49,1.19-.79,1.96-.79h.9Z"/>
    <path class="cls-12" d="M120.16,47.35v25.98c0,5.77-4.67,10.44-10.44,10.44H39.2v-19.76c0-5.34-2.94-10-7.3-12.42V9.56c0-4.48-3.64-8.11-8.12-8.11h-2.1c-.77,0-1.46.3-1.96.79-.55.52-.89,1.25-.89,2.06s.34,1.55.89,2.07c.5.49,1.19.79,1.96.79h.9v1.59c0,1.81-1.21,3.33-2.86,3.8-.35.11-.72.16-1.1.16-2.18,0-3.96-1.77-3.96-3.96V1.54c1.61-.53,3.3-.87,5.06-.98v-.06h17.96c11.6,0,21.01,9.41,21.01,21.01v25.84h61.47Z"/>
    <path class="cls-29" d="M31.9,9.56v1.65h-6.54v-1.93c0-1.17-.95-2.12-2.12-2.12h-1.56c-.77,0-1.46-.3-1.96-.79V2.24c.5-.49,1.19-.79,1.96-.79h2.1c4.48,0,8.12,3.63,8.12,8.11Z"/>
    <path class="cls-3" d="M121.15,44.53v12.28c0,1.44-1.17,2.62-2.62,2.62h-35.93c-1.38,0-2.5-1.12-2.5-2.5v-12.39h41.04Z"/>
    <path class="cls-4" d="M90.08,44.53h31.07v13c0,1.04-.84,1.88-1.88,1.88h-29.18v-14.88h0Z"/>
    <path class="cls-4" d="M121.15,44.53v13.01c0,1.04-.84,1.88-1.88,1.88h-18.64v-14.89h20.52Z"/>
    <path class="cls-4" d="M121.15,44.53v13.01c0,1.04-.84,1.88-1.88,1.88h-8.09v-14.89h9.97Z"/>
    <rect class="cls-30" x="79.08" y="32.67" width="43.17" height="10.47"/>
    <rect class="cls-25" x="81.35" y="30.38" width="6.63" height="27.4" rx="3.32" ry="3.32"/>
    <rect class="cls-25" x="91.99" y="30.38" width="6.63" height="27.4" rx="3.32" ry="3.32"/>
    <rect class="cls-25" x="102.64" y="30.38" width="6.63" height="27.4" rx="3.32" ry="3.32"/>
    <rect class="cls-25" x="113.28" y="30.38" width="6.63" height="27.4" rx="3.32" ry="3.32"/>
    <path class="cls-5" d="M84.66,51.42c-1.31,0-2.37,1.06-2.37,2.37s1.06,2.37,2.37,2.37,2.37-1.06,2.37-2.37-1.06-2.37-2.37-2.37ZM84.66,54.98c-.66,0-1.19-.53-1.19-1.19s.53-1.19,1.19-1.19,1.19.53,1.19,1.19-.53,1.19-1.19,1.19Z"/>
    <path class="cls-5" d="M95.31,51.42c-1.31,0-2.37,1.06-2.37,2.37s1.06,2.37,2.37,2.37,2.37-1.06,2.37-2.37-1.06-2.37-2.37-2.37ZM95.31,54.98c-.66,0-1.19-.53-1.19-1.19s.53-1.19,1.19-1.19,1.19.53,1.19,1.19-.53,1.19-1.19,1.19Z"/>
    <path class="cls-5" d="M105.95,51.42c-1.31,0-2.37,1.06-2.37,2.37s1.06,2.37,2.37,2.37,2.37-1.06,2.37-2.37-1.06-2.37-2.37-2.37ZM105.95,54.98c-.66,0-1.19-.53-1.19-1.19s.53-1.19,1.19-1.19,1.19.53,1.19,1.19-.53,1.19-1.19,1.19Z"/>
    <path class="cls-5" d="M116.6,51.42c-1.31,0-2.37,1.06-2.37,2.37s1.06,2.37,2.37,2.37,2.37-1.06,2.37-2.37-1.06-2.37-2.37-2.37ZM116.6,54.98c-.66,0-1.19-.53-1.19-1.19s.53-1.19,1.19-1.19,1.19.53,1.19,1.19-.53,1.19-1.19,1.19Z"/>
    <path class="cls-17" d="M89.21,32.18v10.85c0,.58-.46,1.05-1.04,1.05h-7.02c-.57,0-1.04-.47-1.04-1.05v-10.85c0-.57.47-1.04,1.04-1.04h7.02c.58,0,1.04.47,1.04,1.04Z"/>
    <path class="cls-17" d="M99.86,32.18v10.85c0,.58-.47,1.05-1.04,1.05h-7.02c-.58,0-1.04-.47-1.04-1.05v-10.85c0-.57.46-1.04,1.04-1.04h7.02c.57,0,1.04.47,1.04,1.04Z"/>
    <path class="cls-17" d="M110.51,32.18v10.85c0,.58-.47,1.05-1.05,1.05h-7.02c-.57,0-1.04-.47-1.04-1.05v-10.85c0-.57.47-1.04,1.04-1.04h7.02c.58,0,1.05.47,1.05,1.04Z"/>
    <path class="cls-17" d="M121.15,32.18v10.85c0,.58-.47,1.05-1.04,1.05h-7.02c-.58,0-1.04-.47-1.04-1.05v-10.85c0-.57.46-1.04,1.04-1.04h7.02c.57,0,1.04.47,1.04,1.04Z"/>
    <path class="cls-2" d="M84.66,35.39c-1.83,0-3.32,1.48-3.32,3.32s1.48,3.32,3.32,3.32,3.32-1.48,3.32-3.32-1.48-3.32-3.32-3.32ZM84.66,40.37c-.92,0-1.66-.74-1.66-1.66s.74-1.66,1.66-1.66,1.66.74,1.66,1.66-.74,1.66-1.66,1.66Z"/>
    <path class="cls-2" d="M95.31,35.39c-1.83,0-3.32,1.48-3.32,3.32s1.48,3.32,3.32,3.32,3.32-1.48,3.32-3.32-1.48-3.32-3.32-3.32ZM95.31,40.37c-.92,0-1.66-.74-1.66-1.66s.74-1.66,1.66-1.66,1.66.74,1.66,1.66-.74,1.66-1.66,1.66Z"/>
    <path class="cls-2" d="M105.95,35.39c-1.83,0-3.32,1.48-3.32,3.32s1.48,3.32,3.32,3.32,3.32-1.48,3.32-3.32-1.48-3.32-3.32-3.32ZM105.95,40.37c-.92,0-1.66-.74-1.66-1.66s.74-1.66,1.66-1.66,1.66.74,1.66,1.66-.74,1.66-1.66,1.66Z"/>
    <path class="cls-2" d="M116.6,35.39c-1.83,0-3.32,1.48-3.32,3.32s1.48,3.32,3.32,3.32,3.32-1.48,3.32-3.32-1.48-3.32-3.32-3.32ZM116.6,40.37c-.92,0-1.66-.74-1.66-1.66s.74-1.66,1.66-1.66,1.66.74,1.66,1.66-.74,1.66-1.66,1.66Z"/>
    <path class="cls-23" d="M89.21,32.18v.49h-9.1v-.49c0-.57.47-1.04,1.04-1.04h7.02c.58,0,1.04.47,1.04,1.04Z"/>
    <path class="cls-23" d="M99.86,32.18v.49h-9.1v-.49c0-.57.46-1.04,1.04-1.04h7.02c.57,0,1.04.47,1.04,1.04Z"/>
    <path class="cls-23" d="M110.51,32.18v.49h-9.11v-.49c0-.57.47-1.04,1.04-1.04h7.02c.58,0,1.05.47,1.05,1.04Z"/>
    <path class="cls-23" d="M121.15,32.18v.49h-9.1v-.49c0-.57.46-1.04,1.04-1.04h7.02c.57,0,1.04.47,1.04,1.04Z"/>
    <circle class="cls-18" cx="43.96" cy="23" r="10.59"/>
    <circle class="cls-19" cx="43.96" cy="23" r="8.4"/>
    <circle class="cls-20" cx="43.96" cy="23" r="6.27"/>
    <circle class="cls-21" cx="43.96" cy="23" r="4.36"/>
    <circle class="cls-6" cx="43.96" cy="23" r="2.02"/>
    <path class="cls-28" d="M31.9,9.56v1.65h-6.54v-1.93c0-1.17-.95-2.12-2.12-2.12h-1.56c-.77,0-1.46-.3-1.96-.79-.55-.52-.89-1.26-.89-2.07s.34-1.54.89-2.06c.5-.49,1.19-.79,1.96-.79h2.1c4.48,0,8.12,3.63,8.12,8.11Z"/>
    <path class="cls-16" d="M31.9,11.21v42.1c0,1.57-1.28,2.85-2.86,2.85h-.83c-1.57,0-2.85-1.28-2.85-2.85V11.21h6.54Z"/>
    <rect class="cls-10" x="25.36" y="11.21" width="6.54" height="22.38"/>
    <rect class="cls-7" x="25.36" y="16.73" width="6.54" height="16.86"/>
    <rect class="cls-9" x="25.36" y="20.82" width="6.54" height="12.77"/>
    <rect class="cls-11" x="25.36" y="22.4" width="6.54" height="11.19"/>
    <rect class="cls-8" x="25.36" y="23.77" width="6.54" height="9.82"/>
    <rect class="cls-10" x="25.36" y="26.03" width="6.54" height="7.56"/>
    <rect class="cls-10" x="25.36" y="28.32" width="6.54" height="5.27"/>
    <rect class="cls-10" x="25.36" y="30.79" width="6.54" height="2.8"/>
    <rect class="cls-15" x="25.36" y="11.21" width="6.54" height="22.38"/>
    <rect class="cls-15" x="25.36" y="13.94" width="6.54" height="19.65"/>
    <rect class="cls-14" x="25.36" y="19.13" width="6.54" height="14.46"/>
    <path class="cls-27" d="M39.2,77.96v5.81h-12.73v-2.05c0-2.08,1.69-3.76,3.76-3.76h8.97Z"/>
    <path class="cls-13" d="M25.04,51.42c-13.55,2.37-6.21,17.41-23.03,24.28"/>
  </g>
</svg>