<?xml version="1.0" encoding="UTF-8"?>
<svg id="Layer_2" data-name="Layer 2" xmlns="http://www.w3.org/2000/svg" viewBox="0 0 201.62 312.25">
  <defs>
    <style>
      .cls-1 {
        fill: #e9645d;
      }

      .cls-1, .cls-2, .cls-3, .cls-4, .cls-5, .cls-6, .cls-7, .cls-8, .cls-9, .cls-10, .cls-11, .cls-12, .cls-13, .cls-14, .cls-15, .cls-16, .cls-17 {
        stroke-width: 2px;
      }

      .cls-1, .cls-2, .cls-3, .cls-4, .cls-5, .cls-8, .cls-9, .cls-10, .cls-12, .cls-13, .cls-14, .cls-16, .cls-17 {
        stroke-linejoin: round;
      }

      .cls-1, .cls-2, .cls-3, .cls-5, .cls-10, .cls-12, .cls-13, .cls-14, .cls-16, .cls-17 {
        stroke: #000;
      }

      .cls-2 {
        fill: #fdb64a;
      }

      .cls-3 {
        fill: #fcb748;
      }

      .cls-4, .cls-6, .cls-7, .cls-8, .cls-9, .cls-11, .cls-18, .cls-15 {
        stroke: #270433;
      }

      .cls-4, .cls-18 {
        fill: none;
      }

      .cls-5 {
        fill: #230338;
      }

      .cls-6, .cls-7, .cls-11, .cls-18, .cls-15 {
        stroke-miterlimit: 10;
      }

      .cls-6, .cls-19 {
        fill: #ff9f4b;
      }

      .cls-7 {
        fill: #8398cf;
      }

      .cls-8 {
        fill: #e76458;
      }

      .cls-9 {
        fill: #b0a5c8;
      }

      .cls-10 {
        fill: #fbb44a;
      }

      .cls-11 {
        fill: #fdb44d;
      }

      .cls-18 {
        stroke-width: 8px;
      }

      .cls-12 {
        fill: #5fc4b8;
      }

      .cls-13 {
        fill: #40866f;
      }

      .cls-14 {
        fill: #ea645a;
      }

      .cls-15 {
        fill: #fdcfa2;
      }

      .cls-16 {
        fill: #707dcc;
      }

      .cls-17 {
        fill: #fef0d7;
      }
    </style>
  </defs>
  <g id="Layer_136" data-name="Layer 136">
    <g id="Tank1">
      <rect class="cls-10" x="79.52" y="199.85" width="42.57" height="11.56"/>
      <rect class="cls-3" x="1" y="207.75" width="199.62" height="92.7" rx="46.35" ry="46.35"/>
      <path class="cls-16" d="M8.97,300.45h183.67c4.4,0,7.97,3.57,7.97,7.97v2.83H1v-2.83c0-4.4,3.57-7.97,7.97-7.97Z"/>
      <g>
        <g>
          <path class="cls-12" d="M108.26,112.77h-11.2c-8.39,0-15.19,6.8-15.19,15.19v17.99c1.6,1.6,2.63,2.63,4.01,4.01v39.54c0,5.71,4.63,10.34,10.34,10.34h12.88c5.71,0,10.34-4.63,10.34-10.34v-39.54c1.39-1.39,2.42-2.42,4.01-4.01v-17.99c0-8.39-6.8-15.19-15.19-15.19Z"/>
          <g>
            <circle cx="116.62" cy="132.67" r="2.05"/>
            <circle cx="88.7" cy="132.67" r="2.05"/>
          </g>
          <path class="cls-5" d="M106.41,170.26c0,2.07-1.67,3.74-3.74,3.74s-3.74-1.67-3.74-3.74c0-1.86,3.04-22.79,3.64-26.91.02-.12.19-.12.2,0,.6,4.12,3.64,25.05,3.64,26.91Z"/>
          <path class="cls-19" d="M104.5,164.33c-.04-.62-.4-1.13-.9-1.43-.53-4.65-1.14-11.23-.96-11.25.07,0-.09-.07-.09,0,.04,1.77-.42,7.27-.88,11.28-.47.31-.8.8-.84,1.4l-.36,5.99c-.08,1.27.93,2.33,2.2,2.33s2.27-1.07,2.2-2.33l-.36-5.99Z"/>
        </g>
        <g>
          <g>
            <rect class="cls-6" x="76.96" y="98.49" width="50.98" height="8.52"/>
            <rect class="cls-15" x="90.34" y="98.49" width="24.23" height="8.52"/>
            <g>
              <rect class="cls-7" x="96.92" y="91.06" width="11.06" height="7.42"/>
              <rect class="cls-7" x="96.92" y="83.64" width="11.06" height="7.42"/>
              <rect class="cls-7" x="96.92" y="76.22" width="11.06" height="7.42"/>
            </g>
          </g>
          <g>
            <circle class="cls-11" cx="102.46" cy="58.67" r="19"/>
            <g>
              <path class="cls-8" d="M86.97,47.67c-1.18,1.55-2.07,3.34-2.66,5.35h-30.43v-5.18c0-3.19-2.59-5.77-5.77-5.77s-5.78,2.59-5.78,5.77v11.84c0,3.82,3.09,6.91,6.91,6.91h56.1l-18.37-18.93Z"/>
              <path class="cls-8" d="M142.03,53.02h-23.36v13.58h23.64c1.88,0,3.57-.76,4.8-1.99,1.18-1.18,1.93-2.79,1.99-4.59.12-3.85-3.22-7-7.07-7Z"/>
            </g>
            <rect class="cls-9" x="124.64" y="53.02" width="5.42" height="13.58"/>
            <line class="cls-4" x1="93.04" y1="66.6" x2="118.68" y2="66.6"/>
          </g>
        </g>
        <circle class="cls-18" cx="102.66" cy="15.91" r="11.91"/>
      </g>
      <g>
        <g>
          <g>
            <g>
              <circle class="cls-1" cx="44.16" cy="254.1" r="20.99"/>
              <circle cx="44.16" cy="254.1" r="16.14"/>
              <circle class="cls-17" cx="44.16" cy="254.1" r="4.35"/>
            </g>
            <path d="M57.05,253.52h8.91c.92,0,1.67.75,1.67,1.67h0c0,.92-.75,1.67-1.67,1.67h-8.91v-3.35h0Z"/>
          </g>
          <g>
            <g>
              <circle class="cls-1" cx="154.98" cy="254.1" r="20.99"/>
              <circle cx="154.98" cy="254.1" r="16.14"/>
              <circle class="cls-17" cx="154.98" cy="254.1" r="4.35"/>
            </g>
            <path d="M167.86,253.52h8.91c.92,0,1.67.75,1.67,1.67h0c0,.92-.75,1.67-1.67,1.67h-8.91v-3.35h0Z"/>
          </g>
        </g>
        <g>
          <circle class="cls-2" cx="100.81" cy="254.1" r="29.18"/>
          <circle class="cls-13" cx="100.81" cy="254.1" r="21.29"/>
          <circle class="cls-14" cx="100.81" cy="254.1" r="11.37"/>
          <path d="M101.59,252.43h8.91c.92,0,1.67.75,1.67,1.67h0c0,.92-.75,1.67-1.67,1.67h-8.91v-3.35h0Z" transform="translate(213.77 508.2) rotate(180)"/>
        </g>
      </g>
    </g>
  </g>
</svg>