<?xml version="1.0" encoding="UTF-8"?>
<svg id="Layer_2" data-name="Layer 2" xmlns="http://www.w3.org/2000/svg" viewBox="0 0 450.15 779.09">
  <defs>
    <style>
      .cls-1 {
        fill: #6b3d2f;
      }

      .cls-1, .cls-2, .cls-3, .cls-4, .cls-5, .cls-6, .cls-7, .cls-8, .cls-9, .cls-10, .cls-11, .cls-12, .cls-13, .cls-14, .cls-15, .cls-16, .cls-17, .cls-18, .cls-19, .cls-20, .cls-21, .cls-22, .cls-23 {
        stroke: #191c26;
      }

      .cls-1, .cls-2, .cls-3, .cls-4, .cls-5, .cls-6, .cls-7, .cls-8, .cls-10, .cls-24, .cls-12, .cls-13, .cls-14, .cls-15, .cls-16, .cls-17, .cls-18, .cls-19, .cls-20, .cls-22, .cls-23 {
        stroke-miterlimit: 10;
      }

      .cls-1, .cls-3, .cls-7, .cls-12, .cls-17 {
        stroke-width: 2.08px;
      }

      .cls-2 {
        fill: #5b665c;
        stroke-width: 2.09px;
      }

      .cls-25 {
        fill: #e8814b;
      }

      .cls-3 {
        fill: #ebc587;
      }

      .cls-4 {
        stroke-width: 1.37px;
      }

      .cls-4, .cls-21 {
        fill: #3b433e;
      }

      .cls-5 {
        fill: #f5c538;
        stroke-width: 1.77px;
      }

      .cls-6 {
        fill: #211920;
        stroke-width: 1.67px;
      }

      .cls-26 {
        fill: #191c26;
      }

      .cls-7 {
        fill: #e69873;
      }

      .cls-8 {
        fill: #21191e;
      }

      .cls-8, .cls-10, .cls-20 {
        stroke-width: 2.03px;
      }

      .cls-9 {
        fill: #f7c538;
        stroke-width: 2.09px;
      }

      .cls-9, .cls-11, .cls-21 {
        stroke-linejoin: round;
      }

      .cls-10 {
        fill: #427b51;
      }

      .cls-11 {
        fill: #5655a3;
        stroke-width: 2.4px;
      }

      .cls-24 {
        stroke: #000;
        stroke-width: .25px;
      }

      .cls-24, .cls-13, .cls-14, .cls-15, .cls-16 {
        fill: none;
      }

      .cls-12 {
        fill: #e6c887;
      }

      .cls-13 {
        stroke-width: 2.34px;
      }

      .cls-14 {
        stroke-width: 2.2px;
      }

      .cls-15, .cls-23 {
        stroke-width: 2.06px;
      }

      .cls-16, .cls-21 {
        stroke-width: 2px;
      }

      .cls-17 {
        fill: #a9a393;
      }

      .cls-18 {
        fill: #ada39d;
        stroke-width: 1.43px;
      }

      .cls-19 {
        fill: #fccc4b;
        stroke-width: 1.93px;
      }

      .cls-20 {
        fill: #1e1b1c;
      }

      .cls-21 {
        stroke-linecap: round;
      }

      .cls-27 {
        fill: #e68249;
      }

      .cls-22 {
        fill: #fefdf5;
        stroke-width: 1.96px;
      }

      .cls-23 {
        fill: #3f7a52;
      }
    </style>
  </defs>
  <g id="Layer_40" data-name="Layer 40">
    <rect class="cls-17" x="27.9" y="442.48" width="43.77" height="116.49"/>
    <rect class="cls-11" x="326.77" y="1.2" width="22.3" height="59.19" rx="11.15" ry="11.15"/>
    <path class="cls-6" d="M331.72,34.88h75.04c23.37,0,42.34,18.97,42.34,42.34v6.84c0,4.13-3.35,7.48-7.48,7.48h-144.77c-4.13,0-7.48-3.35-7.48-7.48v-6.84c0-23.37,18.97-42.34,42.34-42.34Z"/>
    <path class="cls-9" d="M449.11,66.13v518.76c0,106.68-86.94,193.16-194.19,193.16-3.85,0-7.67-.11-11.46-.33-1.26-.07-2.51-.16-3.77-.25-1.55-.12-3.09-.26-4.62-.42-.64-.06-1.26-.13-1.89-.2-.53-.05-1.04-.11-1.56-.18-.8-.09-1.59-.19-2.39-.3-.04,0-.08,0-.12-.01-.65-.09-1.3-.18-1.95-.27-1.41-.2-2.82-.42-4.22-.65-.72-.12-1.45-.24-2.16-.37-1.88-.33-3.74-.68-5.59-1.07-.68-.14-1.38-.29-2.06-.44-.28-.06-.55-.12-.82-.18-1.2-.26-2.4-.54-3.58-.83-3.12-.76-6.22-1.59-9.27-2.49-2.13-.64-4.26-1.3-6.37-2.01-.73-.24-1.45-.49-2.17-.74-.54-.19-1.07-.38-1.61-.57-1.62-.57-3.23-1.17-4.83-1.8-.46-.18-.92-.36-1.39-.54-.52-.2-1.04-.41-1.57-.63-.62-.25-1.23-.5-1.85-.76-.51-.21-1.02-.43-1.52-.65-.71-.3-1.4-.6-2.09-.91-.7-.31-1.39-.62-2.08-.93-.69-.32-1.37-.63-2.06-.96-.69-.32-1.37-.64-2.05-.98-.67-.33-1.35-.66-2.03-1-.67-.34-1.35-.68-2.02-1.02-.73-.38-1.46-.76-2.18-1.14-.6-.33-1.22-.65-1.82-.98-.69-.37-1.38-.75-2.06-1.13-.62-.36-1.26-.72-1.88-1.08-2.19-1.25-4.34-2.55-6.47-3.89-1.04-.65-2.09-1.31-3.11-1.99-5.99-3.92-11.75-8.16-17.24-12.71-.48-.38-.95-.77-1.42-1.17-1-.83-1.97-1.67-2.94-2.52-.52-.46-1.04-.92-1.56-1.38-1.42-1.26-2.82-2.55-4.19-3.86-.56-.53-1.12-1.07-1.68-1.61-.55-.54-1.1-1.08-1.65-1.63-2.33-2.3-4.59-4.67-6.78-7.09-.5-.55-1-1.11-1.5-1.67-3.54-3.97-6.9-8.09-10.1-12.35-.44-.59-.88-1.18-1.31-1.77-2.79-3.81-5.45-7.72-7.95-11.73-.38-.6-.76-1.2-1.13-1.81-.64-1.05-1.27-2.1-1.89-3.16-.38-.65-.75-1.3-1.12-1.95-.37-.66-.75-1.31-1.11-1.97-.33-.6-.66-1.2-.98-1.8-.41-.74-.8-1.48-1.18-2.22-.34-.65-.68-1.3-1.01-1.96-.72-1.39-1.41-2.8-2.08-4.21-.31-.63-.6-1.26-.89-1.89-.32-.68-.63-1.37-.95-2.06-2.81-6.24-5.3-12.66-7.45-19.24-.46-1.4-.9-2.81-1.32-4.22-.15-.49-.29-.98-.43-1.47-1.01-3.42-1.91-6.89-2.73-10.39-.16-.69-.32-1.38-.47-2.08-.13-.56-.25-1.13-.36-1.69-.13-.62-.26-1.23-.39-1.84-.9-4.49-1.64-9.04-2.23-13.64-.08-.64-.16-1.28-.23-1.93-.2-1.7-.37-3.41-.52-5.13-.06-.64-.12-1.29-.17-1.94-.22-2.85-.38-5.72-.48-8.6-.03-.65-.05-1.31-.06-1.96-.01-.21-.01-.41-.01-.61-.04-1.4-.05-2.8-.05-4.2v-141.77c0-4.02,3.26-7.28,7.28-7.28h10.25v-113.38h-25.48c-28.57,0-51.74-23.04-51.74-51.47,0-14.22,5.79-27.08,15.16-36.4,9.36-9.31,22.3-15.07,36.58-15.07h149.51l10.16-16.62,17.86-29.24,1.91-3.12h.02c12.64-5.43,23.72-15.56,32.76-31.66,0,0,9.66-29.3,15.23-38.72,11.99-20.27,32.37-34.03,57.66-34.03h111.21Z"/>
    <path class="cls-5" d="M361.91,345.44v67.42c0,12.69-10.29,22.98-22.98,22.98H77.86v-113.38h261.07c12.69,0,22.98,10.29,22.98,22.98Z"/>
    <path class="cls-10" d="M242.18,435.84v341.88c-1.25-.07-2.5-.16-3.75-.25-1.54-.12-3.07-.26-4.6-.42-.63-.06-1.25-.13-1.88-.2-.6-.06-1.19-.13-1.8-.21-.67-.07-1.34-.16-2.01-.25-.08,0-.15-.02-.23-.03-.65-.09-1.3-.18-1.94-.27-1.41-.2-2.81-.42-4.2-.65-.72-.12-1.44-.24-2.15-.37-1.87-.33-3.72-.68-5.56-1.07-.68-.14-1.37-.29-2.05-.44-.28-.06-.55-.12-.82-.18-1.19-.26-2.38-.54-3.56-.83-3.1-.76-6.18-1.59-9.22-2.49-2.13-.64-4.24-1.31-6.33-2.01-.73-.24-1.45-.49-2.16-.74-.54-.19-1.07-.38-1.6-.57-1.62-.57-3.22-1.17-4.81-1.8-.46-.18-.92-.36-1.38-.54-.52-.2-1.04-.41-1.56-.63-.62-.25-1.23-.5-1.84-.76-.51-.21-1.02-.43-1.52-.65-.7-.3-1.39-.6-2.08-.91-.69-.31-1.38-.62-2.06-.93-.69-.32-1.37-.63-2.05-.96-.69-.32-1.37-.64-2.04-.98-.67-.33-1.35-.66-2.02-1-.67-.34-1.34-.68-2.01-1.02-.73-.38-1.45-.76-2.17-1.14-.6-.33-1.21-.65-1.81-.98-.69-.37-1.37-.75-2.05-1.13-.62-.36-1.25-.72-1.87-1.08-2.18-1.25-4.32-2.55-6.43-3.89-1.04-.65-2.08-1.32-3.1-1.99-5.96-3.92-11.69-8.16-17.15-12.71-.47-.38-.94-.77-1.41-1.17-.99-.83-1.96-1.67-2.92-2.52-.52-.46-1.04-.92-1.55-1.38-1.42-1.26-2.81-2.55-4.17-3.86-.56-.53-1.12-1.07-1.67-1.61s-1.1-1.08-1.65-1.63c-2.31-2.3-4.56-4.67-6.74-7.09-.5-.55-1-1.11-1.49-1.67-3.52-3.97-6.87-8.09-10.05-12.35-.44-.59-.87-1.18-1.3-1.77-2.78-3.81-5.42-7.72-7.91-11.73-.38-.6-.76-1.2-1.12-1.81-.64-1.05-1.27-2.1-1.88-3.16-.38-.65-.75-1.3-1.12-1.95-.37-.66-.74-1.31-1.1-1.97-.33-.6-.66-1.2-.98-1.8-.4-.74-.79-1.48-1.17-2.22-.34-.65-.68-1.3-1.01-1.96-.71-1.39-1.4-2.8-2.06-4.21-.31-.63-.6-1.26-.89-1.89-.32-.68-.63-1.37-.94-2.06-2.8-6.24-5.28-12.66-7.42-19.24-.45-1.4-.89-2.81-1.31-4.22-.15-.49-.29-.98-.43-1.47-1-3.42-1.9-6.89-2.71-10.39-.16-.69-.32-1.38-.47-2.08-.13-.56-.25-1.13-.36-1.69-.13-.62-.26-1.23-.38-1.84-.9-4.49-1.64-9.04-2.22-13.64-.08-.64-.16-1.28-.23-1.93-.2-1.7-.37-3.41-.52-5.13-.06-.64-.12-1.29-.17-1.94-.22-2.85-.38-5.72-.48-8.6-.03-.65-.05-1.31-.06-1.96,0-.21,0-.41,0-.61-.04-1.4-.05-2.8-.05-4.2v-141.88c0-3.96,3.21-7.17,7.17-7.17h174.59Z"/>
    <path class="cls-8" d="M242.18,607.67v169.16c-3.38-.38-6.77-1.27-10.09-2.74l-47.69-21.09c-5.68-3.03-11.94-6.78-17.81-10.45-15.48-9.69-26.7-24.95-31.29-42.63-2.01-7.74-3.56-15.63-3.56-21.58,0-37.15,31.94-70.67,69.08-70.67h41.36Z"/>
    <circle class="cls-19" cx="167.07" cy="520.42" r="38.55"/>
    <circle class="cls-2" cx="167.07" cy="521.48" r="24.49"/>
    <circle class="cls-4" cx="167.07" cy="521.48" r="16.01"/>
    <circle class="cls-18" cx="337.3" cy="523.3" r="62.89"/>
    <circle class="cls-21" cx="337.3" cy="523.3" r="51.34"/>
    <g>
      <path class="cls-24" d="M366.3,481.88c.2.2.4.4.58.6,3.16,1.53,5.91,3.57,8.18,6.06,3.03,3.51,3.08,3.58,4.49,5.61,2.36,3.69,2.92,4.57,4.86,8.74,1.71,4.37,2.01,5.16,3,9.22.88,4.81,1.01,5.55,1.2,9.58-.05,5.11-.06,5.77-.64,9.76-.48,2.35-1.22,5.47-1.88,7.77-1.75,4.74-1.97,5.35-3.85,8.88-2.5,4.15-2.88,4.78-5.47,8.01-3.09,3.45-3.65,4.07-7.07,6.99-2.26,1.71-5.07,3.84-8.87,5.81-3.47,1.66-6.47,3.09-11.81,4.36-3.5.73-3.57.74-5.53.99q-3.19.32-4.84.36-2.93.02-4.4-.07-2.77-.22-4.14-.41-2.71-.44-4.04-.74c-2.67-.65-2.72-.67-4.07-1.09-2.71-.91-2.82-.94-4.24-1.53-2.87-1.26-2.99-1.31-4.55-2.13-2.98-1.68-3.22-1.82-5.01-3.04-3.07-2.25-3.46-2.54-5.59-4.44-2.35-2.3-4.56-4.46-7.25-8.21-2.4-3.66-2.98-4.53-4.98-8.71-1.75-4.35-2.07-5.13-3.11-9.2-.93-4.8-1.08-5.54-1.31-9.56,0-4.97,0-5.86.62-10.35,1.04-5.16,1.15-5.7,2.46-9.48,1.91-4.66,2.15-5.25,4.15-8.73,2.63-4.04,3.03-4.66,5.76-7.84,3.12-3.25,3.77-3.92,7.37-6.79,2.67-1.87,5.19-3.64,9.27-5.56,3.45-1.48,5.35-2.29,9.92-3.43,3.5-.73,3.57-.74,5.53-.99q3.19-.32,4.84-.36,2.93-.02,4.4.07,2.77.22,4.14.41,2.7.44,4.04.74c2.67.65,2.72.67,4.07,1.09,2.76.93,2.81.94,4.24,1.53,2.82,1.23,2.99,1.31,4.55,2.13,2.98,1.68,3.22,1.82,5.01,3.04.86.63,2.02,1.46,2.86,2.12-1.43-1.15-3.03-2.1-4.76-2.84.24.19.47.38.69.57-.42-.19-.85-.36-1.28-.52-.21-.18-.43-.36-.65-.53-4.87-1.74-10.76-1.91-17.34-.2-.42-.33-1.07-.56-1.71-.62.02.18.03.37.05.56-.03,0-.05,0-.08,0-.05-.19-.09-.38-.14-.57-.31-.02-.62,0-.9.07-.3.07-.53.18-.69.32.33.12.65.24.98.36-.01.01-.02.02-.03.03-.34-.11-.68-.22-1.02-.32-.25.29-.22.66.13,1.02.32-.08.63-.15.95-.22,0,0,.01.01.02.02s.02.01.02.02c-.3.09-.6.18-.9.27.4.34,1.04.57,1.69.65,0-.21,0-.41,0-.61.03,0,.05,0,.08,0,.03.2.06.41.09.62.34.02.67,0,.97-.07.28-.07.5-.17.65-.29-.32-.15-.63-.29-.95-.43.01-.01.03-.02.04-.03.33.13.66.26.99.39.27-.28.27-.65-.06-1.01,7.34-1.02,13.93-.2,19.42,2.1-.17-.19-.36-.37-.54-.56.46.19.91.38,1.36.59M371.95,485.43c-6.41-5.87-16.13-8.13-27.69-5.4,11.56-2.72,21.28-.46,27.69,5.4-3.13-2.69-3.32-2.85-5.59-4.44-3.09-2-3.15-2.04-5.01-3.04q-2.95-1.47-4.55-2.13-2.79-1.07-4.24-1.53-2.7-.78-4.07-1.09-2.69-.55-4.04-.74-2.75-.33-4.14-.41c-2.85-.11-2.91-.11-4.4-.07-3.05.15-3.17.16-4.84.36-3.34.5-3.54.53-5.53.99-3.6.96-5.58,1.48-9.92,3.43-2.89,1.46-5.61,2.84-9.27,5.56-3.38,2.74-4.18,3.39-7.37,6.79-2.98,3.6-3.52,4.25-5.76,7.84-2.34,4.29-2.7,4.95-4.15,8.73-1.56,4.87-1.76,5.49-2.46,9.48-.61,5.09-.71,5.87-.62,10.35.41,5.01.46,5.66,1.31,9.56,1.28,4.65,1.48,5.37,3.11,9.2,2,4.06,2.42,4.9,4.98,8.71,2,2.62,3.89,5.1,7.25,8.21,3.13,2.69,3.32,2.85,5.59,4.44,3.09,2,3.15,2.04,5.01,3.04q2.95,1.47,4.55,2.13,2.79,1.07,4.24,1.53,2.7.78,4.07,1.09,2.69.55,4.04.74,2.75.33,4.14.41c2.85.11,2.91.11,4.4.07,3.05-.15,3.17-.16,4.84-.36,3.34-.5,3.54-.53,5.53-.99,3.54-.94,6.89-1.84,11.81-4.36,2.45-1.37,5.51-3.08,8.87-5.81,3.29-2.88,4.07-3.57,7.07-6.99,2.86-3.72,3.38-4.39,5.47-8.01,2.2-4.39,2.54-5.06,3.85-8.88.65-2.31,1.41-5.42,1.88-7.77.63-5.23.7-5.78.64-9.76-.35-5.02-.39-5.67-1.2-9.58-1.23-4.67-1.42-5.39-3-9.22-1.96-4.09-2.36-4.94-4.86-8.74-2.15-2.89-4.01-5.39-7.61-8.71"/>
      <path class="cls-24" d="M331.48,574.32s.03,0,.05,0c-3.05-.35-6.08-.97-8.96-1.83,1.06.29,2.47.67,3.53.92q2.69.55,4.04.74l1.34.17M334.28,574.56l1.37.06c-.65-.02-1.3-.05-1.95-.1-.02,0-.04,0-.06,0l.63.04"/>
      <path class="cls-24" d="M296.41,553.26c-.22-.44-.43-.88-.64-1.33-2.23-2.22-3.86-4.47-4.93-6.71l1.19,2.36c1.03,1.9,2.48,3.8,4.37,5.68M333.9,568.79c.08-.31.16-.63.25-.97-13.89-1.59-27.56-6.59-36.26-13.95.19.44.38.87.59,1.29,8.5,7.19,21.85,12.08,35.42,13.63M371.49,561.55c.39-.37.77-.75,1.14-1.14-3.34,2.71-8.05,4.9-14.04,6.31-6.46,1.52-13.63,1.95-20.85,1.43-.11.33-.22.65-.33.96,7.05.5,14.06.09,20.37-1.4,5.85-1.38,10.45-3.52,13.71-6.16M374,559.21l.45-.47c-.05.06-.11.11-.17.17-.1.1-.19.2-.29.3"/>
      <path class="cls-24" d="M293.61,533.1c.04-.31.09-.62.14-.93s.1-.62.16-.94c-5.86-5.82-8.11-11.87-7.09-17.35l-.22,1.28-.19,1.28c-.33,5.37.74,9.82,7.2,16.66M337.39,551.23c.05-.31.1-.62.15-.93s.1-.62.15-.94c-15.85-1.81-31.44-7.52-41.36-15.92-.06.31-.11.62-.16.94s-.1.62-.14.93c9.92,8.39,25.51,14.1,41.36,15.92M381.28,542.78c.06-.31.11-.62.16-.93s.1-.62.14-.94c-3.81,3.09-9.18,5.59-16.01,7.2-7.37,1.74-15.55,2.22-23.78,1.63-.05.31-.1.63-.15.94s-.1.62-.15.93c8.23.59,16.41.1,23.78-1.63,6.83-1.61,12.2-4.11,16.01-7.2M387.98,531.45l.19-1.28c-.44,3.26-2.03,6.33-4.69,9.03-.04.31-.09.63-.14.94s-.1.62-.16.93c2.48-2.51,4.02-5.34,4.58-8.34l.22-1.28"/>
      <path class="cls-24" d="M302.49,510.21c.37-.57.74-1.13,1.12-1.69-7.48-7.43-8.09-15.32-2.77-21.33-.41.39-.8.78-1.19,1.19-5.45,6.15-4.82,14.22,2.84,21.83M340.87,526.11c.08-.69.16-1.37.24-2.06-13.57-1.55-26.92-6.44-35.42-13.63-.37.57-.72,1.15-1.07,1.74,8.7,7.36,22.36,12.36,36.25,13.95M379.34,518.7c-.2-.63-.42-1.26-.65-1.89-3.26,2.64-7.86,4.79-13.71,6.16-6.31,1.49-13.32,1.9-20.37,1.4-.05.69-.1,1.38-.16,2.07,7.22.52,14.39.09,20.85-1.43,5.98-1.41,10.7-3.6,14.03-6.31M383.72,501.37l-1.19-2.35c3.2,5.9,2.31,11.73-2.22,16.33.24.61.47,1.23.69,1.85,4.41-4.48,5.46-10.09,2.72-15.83"/>
      <path class="cls-24" d="M342.14,472.19c.06,0,.11.02.16.04,7.9.75,15.77,3.47,20.92,7.55.22.18.44.35.65.53.43.16.86.34,1.28.52-.23-.19-.46-.38-.69-.57-3.3-2.61-7.65-4.7-12.42-6.13-1.06-.29-2.48-.67-3.55-.93q-2.69-.55-4.04-.74c-.69-.08-1.61-.2-2.31-.27M319.23,477.18c.56-.11,1.13-.2,1.7-.28,1.91-1.71,4.74-3.09,8.4-3.95,3.4-.8,7.14-1.07,10.93-.87-.11-.03-.21-.04-.32-.05l-1.03-.04c-3.71-.12-7.36.19-10.7.97-3.92.92-6.94,2.4-8.99,4.23M320.02,491.37c.54-.41,1.09-.81,1.65-1.21-4.35-4.32-4.7-8.9-1.61-12.39-.59.1-1.18.22-1.76.35-3.31,3.73-2.93,8.64,1.72,13.26M343.33,501.03c.05-.62.09-1.23.14-1.83-7.89-.9-15.65-3.74-20.58-7.92-.53.42-1.05.85-1.57,1.28,5.28,4.47,13.58,7.51,22.01,8.47M366.69,496.53c-.45-.52-.91-1.03-1.38-1.54-1.89,1.54-4.57,2.78-7.97,3.58-3.67.86-7.74,1.11-11.84.81,0,.61,0,1.23,0,1.85,4.38.31,8.74.05,12.66-.87,3.63-.86,6.5-2.19,8.52-3.83M366.3,481.88c-.44-.21-.9-.4-1.36-.59.19.19.37.37.54.56,4.04,4.34,4.11,8.89.76,12.29.49.49.97.98,1.45,1.48,3.58-3.64,3.51-8.51-.82-13.14-.19-.2-.38-.4-.58-.6"/>
      <path class="cls-24" d="M344,478.94c-1.07-4.27-2.36-6.51-3.74-6.87-.11-.03-.21-.04-.32-.05l.36.02,1.83.14c.06,0,.11.02.16.04.82.31,1.48,2.5,1.87,6.73.02.18.03.37.05.56-.03,0-.05,0-.08,0-.05-.19-.09-.38-.14-.57"/>
      <path class="cls-24" d="M342.35,479.41c-7.81-2.37-15.41-2.83-22.29-1.63-.59.1-1.18.22-1.76.35-6.75,1.48-12.74,4.59-17.46,9.07-.41.39-.8.78-1.19,1.19-.28.29-.55.58-.81.88l.14-.16c1.16-1.21,2.72-2.82,3.95-3.96,4.48-4.04,10.06-6.77,16.31-7.97.56-.11,1.13-.2,1.7-.28,6.64-.96,13.97-.23,21.49,2.44.33.12.65.24.98.36-.01.01-.02.02-.03.03-.34-.11-.68-.22-1.02-.32"/>
      <path class="cls-24" d="M342.58,480.51c-6.87,2.13-13.59,5.88-19.7,10.76-.53.42-1.05.85-1.57,1.28-6.01,5.06-11.37,11.19-15.62,17.86-.37.57-.72,1.15-1.07,1.74-4.06,6.77-6.98,14.04-8.28,21.29-.06.31-.11.62-.16.94s-.1.62-.14.93c-1.02,7.17-.29,13.46,1.86,18.55.19.44.38.87.59,1.29,1.41,2.87,3.29,5.32,5.6,7.29l-1.44-1.27-1.66-1.59c-1.82-1.83-3.35-3.95-4.57-6.33-.22-.44-.43-.88-.64-1.33-2.33-5.26-3.17-11.65-2.16-18.83.04-.31.09-.62.14-.93s.1-.62.16-.94c1.32-7.25,4.34-14.42,8.58-21.02.37-.57.74-1.13,1.12-1.69,4.45-6.5,10.08-12.38,16.41-17.15.54-.41,1.09-.81,1.65-1.21,6.44-4.57,13.54-7.99,20.81-9.74.32-.08.63-.15.95-.22,0,0,.01.01.02.02s.02.01.02.02c-.3.09-.6.18-.9.27"/>
      <path class="cls-24" d="M344.43,481.18c.67,4.83,1.02,11.12,1.07,18.2,0,.61,0,1.23,0,1.85,0,7.21-.31,15.15-.89,23.15-.05.69-.1,1.38-.16,2.07-.63,8-1.53,16-2.67,23.31-.05.31-.1.63-.15.94s-.1.62-.15.93c-1.18,7.12-2.46,12.68-3.74,16.54-.11.33-.22.65-.33.96-1.28,3.57-2.56,5.42-3.71,5.4-.02,0-.04,0-.06,0-.65-.06-1.52-.13-2.17-.2.01,0,.03,0,.05,0,.61-.03,1.43-1.93,2.38-5.53.08-.31.16-.63.25-.97.97-3.89,2.08-9.47,3.24-16.59.05-.31.1-.62.15-.93s.1-.62.15-.94c1.16-7.31,2.24-15.29,3.18-23.26.08-.69.16-1.37.24-2.06.91-7.96,1.67-15.86,2.22-23.02.05-.62.09-1.23.14-1.83.51-7.03.8-13.26.8-18.03,0-.21,0-.41,0-.61.03,0,.05,0,.08,0,.03.2.06.41.09.62"/>
      <path class="cls-24" d="M346.13,480.75c7.59,3.08,14.42,7.73,20.12,13.39.49.49.97.98,1.45,1.48,5.5,5.82,9.83,12.59,12.62,19.73.24.61.47,1.23.69,1.85,2.52,7.2,3.47,14.73,2.47,22-.04.31-.09.63-.14.94s-.1.62-.16.93c-1.32,7.15-4.46,13.18-8.89,17.84-.1.1-.19.2-.29.3-1.26,1.2-2.95,2.78-4.28,3.9l-.05.04c.63-.51,1.24-1.04,1.82-1.6.39-.37.77-.75,1.14-1.14,4.29-4.53,7.34-10.49,8.65-17.63.06-.31.11-.62.16-.93s.1-.62.14-.94c1.01-7.28.14-14.88-2.24-22.22-.2-.63-.42-1.26-.65-1.89-2.64-7.28-6.76-14.24-12.01-20.28-.45-.52-.91-1.03-1.38-1.54-5.44-5.88-11.98-10.8-19.25-14.17-.32-.15-.63-.29-.95-.43.01-.01.03-.02.04-.03.33.13.66.26.99.39"/>
    </g>
    <rect class="cls-16" x="77.86" y="322.46" width="240.48" height="17.38"/>
    <rect class="cls-13" x="77.86" y="363.55" width="240.48" height="23.7"/>
    <g>
      <path class="cls-22" d="M361.87,348.1v62.1c0,14.16-11.48,25.64-25.64,25.64H77.86v-113.38h258.37c14.16,0,25.64,11.48,25.64,25.64Z"/>
      <path class="cls-20" d="M361.91,345.44v67.42c0,12.69-10.29,22.98-22.98,22.98h-20.59v-113.38h20.59c12.69,0,22.98,10.29,22.98,22.98Z"/>
      <g>
        <path class="cls-26" d="M164.81,343.59c0,1.9-.77,3.62-2.02,4.87s-2.97,2.02-4.87,2.02h-80.06v-13.78h80.06c3.8,0,6.89,3.08,6.89,6.89Z"/>
        <path class="cls-26" d="M164.81,367.3c0,1.9-.77,3.62-2.02,4.87s-2.97,2.02-4.87,2.02h-80.06v-13.79h80.06c3.8,0,6.89,3.09,6.89,6.9Z"/>
        <path class="cls-26" d="M164.81,391c0,1.9-.77,3.63-2.02,4.87-1.25,1.25-2.97,2.02-4.87,2.02h-80.06v-13.78h80.06c3.8,0,6.89,3.09,6.89,6.89Z"/>
        <path class="cls-26" d="M164.81,414.71c0,1.9-.77,3.62-2.02,4.87s-2.97,2.02-4.87,2.02h-80.06v-13.78h80.06c3.8,0,6.89,3.08,6.89,6.89Z"/>
      </g>
      <g>
        <rect class="cls-26" x="242.91" y="336.7" width="99.24" height="13.78" rx="6.89" ry="6.89"/>
        <rect class="cls-26" x="242.91" y="360.4" width="99.24" height="13.78" rx="6.89" ry="6.89"/>
        <rect class="cls-26" x="242.91" y="384.11" width="99.24" height="13.78" rx="6.89" ry="6.89"/>
        <rect class="cls-26" x="242.91" y="407.82" width="99.24" height="13.78" rx="6.89" ry="6.89"/>
      </g>
      <rect class="cls-13" x="77.86" y="343.59" width="240.48" height="23.71"/>
      <rect class="cls-13" x="77.86" y="391" width="240.48" height="23.71"/>
    </g>
    <rect class="cls-14" x="77.86" y="414.71" width="240.48" height="20.98"/>
    <rect class="cls-1" x="349.07" y="97.39" width="82.06" height="10.19" rx="5.1" ry="5.1"/>
    <rect class="cls-1" x="349.07" y="120.4" width="82.06" height="10.19" rx="5.1" ry="5.1"/>
    <rect class="cls-1" x="349.07" y="143.42" width="82.06" height="10.19" rx="5.1" ry="5.1"/>
    <path class="cls-27" d="M390.14,269.61v10.19h-192.69l26.57-46.02h130.29c19.79,0,35.83,16.04,35.83,35.83Z"/>
    <rect class="cls-1" x="349.07" y="166.43" width="82.06" height="10.19" rx="5.1" ry="5.1"/>
    <path class="cls-23" d="M331.33,240.12h31.05c15.3,0,27.71,12.42,27.71,27.71v11.96h-86.48v-11.96c0-15.3,12.42-27.71,27.71-27.71Z"/>
    <polygon class="cls-25" points="77.89 233.78 176.66 233.78 150.1 279.8 77.89 279.8 77.89 233.78"/>
    <polyline class="cls-15" points="335.1 279.79 77.86 279.79 77.86 219.52"/>
    <path class="cls-7" d="M178.89,173.66c-4.95,0-9.64-2.27-12.71-6.15l-12.85-16.23c-3.16-3.99-7.96-6.31-13.05-6.31h0c-8.54,0-15.46,6.92-15.46,15.46v39.96c0,7.12,2.23,13.71,6.02,19.13,6.04,8.62,16.05,14.26,27.37,14.26h14.88c19.06,0,29.21-14.26,29.21-14.26l10.16-16.62,17.86-29.24h-51.43Z"/>
    <path class="cls-12" d="M18.26,585.24h0c-5.32,0-9.63-4.31-9.63-9.63v-149.76c0-5.32,4.31-9.63,9.63-9.63h0c5.32,0,9.63,4.31,9.63,9.63v48.12c0,5.25.6,10.48,1.78,15.59h0c1.71,7.36,1.78,15,.23,22.39l-.53,2.5c-.99,4.68-1.48,9.45-1.48,14.23v46.93c0,5.32-4.31,9.63-9.63,9.63Z"/>
    <path class="cls-3" d="M36.21,440.49v62.61c-1.67-.1-3.66-.85-5.72-1.94-6.67-3.52-14.15-10.57-14.15-10.57v-50.1c0-2.61,2.12-4.73,4.73-4.73h10.41c2.61,0,4.73,2.12,4.73,4.73Z"/>
    <path class="cls-3" d="M36.21,503.1v57.86c0,2.61-2.12,4.72-4.73,4.72h-10.41c-2.61,0-4.73-2.11-4.73-4.72v-49.23s7.48-7.05,14.15-10.57c2.06,1.09,4.05,1.84,5.72,1.94Z"/>
  </g>
</svg>